<svg width="96" height="96" viewBox="0 0 96 96" fill="none" xmlns="http://www.w3.org/2000/svg">
<path d="M14.975 51.1658C11.2744 47.4322 9 42.3623 9 36.7778C9 25.3025 18.6035 16 30.45 16C36.7545 16 42.4237 21.8443 46.3483 26.8797C47.1833 27.951 48.8167 27.951 49.6517 26.8797C53.5763 21.8443 59.2455 16 65.55 16C77.3965 16 87 25.3025 87 36.7778C87 42.6363 84.4969 47.9285 80.4701 51.7057L50.8202 81.195C49.2601 82.7467 46.7397 82.7469 45.1793 81.1956L14.975 51.1658Z" fill="#E95252"/>
<path fill-rule="evenodd" clip-rule="evenodd" d="M13.5649 52.5841L13.5545 52.5737C9.50433 48.4874 7 42.9196 7 36.7778C7 24.1384 17.5594 14 30.45 14C34.2249 14 37.6446 15.7436 40.5172 17.9711C43.4032 20.209 45.9201 23.0768 47.9258 25.6502C47.9374 25.6651 47.9459 25.6703 47.9532 25.6738C47.9634 25.6785 47.9796 25.6831 48 25.6831C48.0204 25.6831 48.0366 25.6785 48.0468 25.6738C48.0541 25.6703 48.0626 25.6651 48.0742 25.6502C50.0799 23.0768 52.5968 20.209 55.4828 17.9711C58.3554 15.7436 61.7751 14 65.55 14C78.4406 14 89 24.1384 89 36.7778C89 43.2111 86.2527 49.013 81.8601 53.1439L52.2306 82.6131C49.8904 84.9406 46.1098 84.9409 43.7692 82.6139L13.5649 52.5841ZM80.4701 51.7057C84.4969 47.9285 87 42.6363 87 36.7778C87 25.3025 77.3965 16 65.55 16C59.2455 16 53.5763 21.8443 49.6517 26.8797C48.8167 27.951 47.1833 27.951 46.3483 26.8797C42.4237 21.8443 36.7545 16 30.45 16C18.6035 16 9 25.3025 9 36.7778C9 42.3623 11.2744 47.4322 14.975 51.1658L45.1793 81.1956C46.7397 82.7469 49.2601 82.7467 50.8202 81.195L80.4701 51.7057Z" fill="#60050F"/>
<path fill-rule="evenodd" clip-rule="evenodd" d="M21.8838 58.0346L45.1794 81.1956C46.7398 82.7469 49.2603 82.7467 50.8204 81.195L50.8805 81.1352C50.1266 81.0533 49.3898 80.7569 48.7671 80.2425L21.8838 58.0346ZM80.0442 21.4609C76.2268 18.0697 71.138 16 65.5501 16C59.2457 16 53.5764 21.8443 49.6518 26.8797C48.8169 27.951 47.1834 27.951 46.3484 26.8797C43.8268 23.6444 40.585 20.0751 36.9171 17.9366C40.6977 20.6278 44.0121 24.6781 46.5338 27.9442C48.0689 29.9324 50.9357 29.9363 52.5285 27.9941C55.6383 24.2023 59.501 20.2406 64.9999 19.5C70.0056 18.8258 75.4764 19.2519 80.0442 21.4609Z" fill="#D93F3F"/>
<path fill-rule="evenodd" clip-rule="evenodd" d="M9.20605 39.67C10.208 42.0552 11.7954 44.2047 13.8217 45.9944L43.3734 71.7141C44.8791 73.0245 47.1205 73.0243 48.626 71.7136L77.6374 46.4548C81.561 43.2332 83.9999 38.7192 83.9999 33.7222C83.9999 24.3601 75.4388 16.6936 64.5927 16.0445C64.91 16.0151 65.2291 16 65.5499 16C77.3964 16 86.9999 25.3025 86.9999 36.7778C86.9999 42.6363 84.4968 47.9285 80.47 51.7057L50.8201 81.195C49.26 82.7467 46.7396 82.7469 45.1792 81.1956L14.9749 51.1658C11.9247 48.0884 9.8434 44.1031 9.20605 39.67ZM29.5444 16.0182C35.4509 16.3504 40.7411 21.1723 44.4328 25.3272C44.7642 25.7002 45.1971 25.9245 45.6508 26.0001C41.7665 21.1885 36.3902 16 30.4499 16C30.1466 16 29.8447 16.0061 29.5444 16.0182Z" fill="#D93F3F"/>
<path fill-rule="evenodd" clip-rule="evenodd" d="M10.7793 45.0774C11.7008 46.544 12.8287 47.8943 14.1279 49.0972L45.3033 77.5399C46.8308 78.9335 49.1686 78.9333 50.6958 77.5394L81.3024 49.6053C82.8429 48.2794 84.1659 46.7551 85.2194 45.0787C84.0913 47.5835 82.4681 49.8312 80.4697 51.7057L50.8199 81.195C49.2598 82.7467 46.7393 82.7469 45.1789 81.1956L14.9746 51.1658C13.2293 49.4049 11.8012 47.3466 10.7793 45.0774ZM30.1867 16.0015C33.0071 16.0476 35.701 17.1329 38.1734 18.7345C35.7769 17.0902 33.1725 16 30.4497 16C30.3619 16 30.2742 16.0005 30.1867 16.0015ZM57.8218 18.7373C60.2953 17.1342 62.9907 16.0477 65.8128 16.0015C65.7252 16.0005 65.6375 16 65.5497 16C62.8252 16 60.2194 17.0914 57.8218 18.7373Z" fill="#AE2929"/>
<path d="M37.5917 22.1794C41.405 27.4227 32.3337 26.4814 27.5538 32.6953C23.7486 37.6421 20.4615 46.5672 15.6721 40.862C10.8826 35.1567 12.0314 26.308 18.2379 21.0977C24.4444 15.8874 33.7677 16.9215 37.5917 22.1794Z" fill="#FF6D6D"/>
<path d="M35.2939 21.7117C36.6955 24.5148 31.4019 22.5651 27.3517 27.7852C23.147 33.2045 17.5407 38.0634 14.8448 33.2045C12.7214 29.1018 15.5453 23.4234 21.1522 20.5214C26.7592 17.6194 33.7523 18.6284 35.2939 21.7117Z" fill="#FF968F"/>
<path d="M74.4554 20.7563C76.8035 23.574 72.1073 25.4525 68.3503 31.088C65.2881 35.6813 56.985 41.1799 53.792 35.784C51.149 31.3177 52.334 23.7349 58.6457 19.8346C64.9574 15.9343 71.5958 17.3248 74.4554 20.7563Z" fill="#FF6D6D"/>
<path d="M72.107 20.7564C73.7204 22.7731 70.2285 23.5741 66.9411 26.8615C63.6538 30.1488 58.1283 32.8054 56.4698 29.6009C54.8113 26.3965 57.0169 21.9614 61.3962 19.6948C65.7755 17.4282 70.2285 18.4083 72.107 20.7564Z" fill="#FF968F"/>
<path d="M65.5307 21.5138C66.1499 22.7102 65.3264 24.3662 63.6913 25.2124C62.0562 26.0587 60.2287 25.7748 59.6095 24.5784C58.9903 23.382 59.8138 21.7261 61.4489 20.8798C63.0839 20.0335 64.9114 20.3174 65.5307 21.5138Z" fill="#FFD1CE"/>
<path d="M24.6836 22.7649C25.3139 23.9826 24.4757 25.6681 22.8114 26.5294C21.1472 27.3908 19.2871 27.1019 18.6568 25.8841C18.0266 24.6664 18.8648 22.9809 20.529 22.1196C22.1932 21.2582 24.0533 21.5471 24.6836 22.7649Z" fill="#FFBFBB"/>
<path fill-rule="evenodd" clip-rule="evenodd" d="M22.3945 22.0528C22.6415 22.5467 22.4412 23.1474 21.9473 23.3944C21.4141 23.661 19.7934 24.7341 18.2809 26.6247C17.9359 27.0559 17.3066 27.1259 16.8753 26.7808C16.4441 26.4358 16.3742 25.8065 16.7192 25.3753C18.4067 23.2659 20.2527 22.0056 21.0528 21.6055C21.5468 21.3586 22.1475 21.5588 22.3945 22.0528Z" fill="#FFEAE9"/>
<path d="M45 62C45 62.5523 44.5523 63 44 63C43.4477 63 43 62.5523 43 62C43 61.4477 43.4477 61 44 61C44.5523 61 45 61.4477 45 62Z" fill="#FF6060"/>
<path d="M41 64C41 64.5523 40.5523 65 40 65C39.4477 65 39 64.5523 39 64C39 63.4477 39.4477 63 40 63C40.5523 63 41 63.4477 41 64Z" fill="#FF6060"/>
<path d="M42 57C42 57.5523 41.5523 58 41 58C40.4477 58 40 57.5523 40 57C40 56.4477 40.4477 56 41 56C41.5523 56 42 56.4477 42 57Z" fill="#FF6060"/>
<path d="M54 59C54 59.5523 53.5523 60 53 60C52.4477 60 52 59.5523 52 59C52 58.4477 52.4477 58 53 58C53.5523 58 54 58.4477 54 59Z" fill="#FF6060"/>
<path d="M56 61C56 61.5523 55.5523 62 55 62C54.4477 62 54 61.5523 54 61C54 60.4477 54.4477 60 55 60C55.5523 60 56 60.4477 56 61Z" fill="#FF6060"/>
<path d="M49 57C49 57.5523 48.5523 58 48 58C47.4477 58 47 57.5523 47 57C47 56.4477 47.4477 56 48 56C48.5523 56 49 56.4477 49 57Z" fill="#FF6060"/>
<path d="M53 53.5C53 53.7761 52.7761 54 52.5 54C52.2239 54 52 53.7761 52 53.5C52 53.2239 52.2239 53 52.5 53C52.7761 53 53 53.2239 53 53.5Z" fill="#FF6060"/>
<path d="M46 54.5C46 54.7761 45.7761 55 45.5 55C45.2239 55 45 54.7761 45 54.5C45 54.2239 45.2239 54 45.5 54C45.7761 54 46 54.2239 46 54.5Z" fill="#FF6060"/>
<path d="M36 54.5C36 54.7761 35.7761 55 35.5 55C35.2239 55 35 54.7761 35 54.5C35 54.2239 35.2239 54 35.5 54C35.7761 54 36 54.2239 36 54.5Z" fill="#FF6060"/>
<path d="M48 69.5C48 69.7761 47.7761 70 47.5 70C47.2239 70 47 69.7761 47 69.5C47 69.2239 47.2239 69 47.5 69C47.7761 69 48 69.2239 48 69.5Z" fill="#FF6060"/>
<path d="M51 68.5C51 68.7761 50.7761 69 50.5 69C50.2239 69 50 68.7761 50 68.5C50 68.2239 50.2239 68 50.5 68C50.7761 68 51 68.2239 51 68.5Z" fill="#FF6060"/>
<path d="M50 59.5C50 59.7761 49.7761 60 49.5 60C49.2239 60 49 59.7761 49 59.5C49 59.2239 49.2239 59 49.5 59C49.7761 59 50 59.2239 50 59.5Z" fill="#FF6060"/>
<path d="M45 58.5C45 58.7761 44.7761 59 44.5 59C44.2239 59 44 58.7761 44 58.5C44 58.2239 44.2239 58 44.5 58C44.7761 58 45 58.2239 45 58.5Z" fill="#FF6060"/>
<path d="M33 57.5C33 57.7761 32.7761 58 32.5 58C32.2239 58 32 57.7761 32 57.5C32 57.2239 32.2239 57 32.5 57C32.7761 57 33 57.2239 33 57.5Z" fill="#FF6060"/>
<path d="M30 54.5C30 54.7761 29.7761 55 29.5 55C29.2239 55 29 54.7761 29 54.5C29 54.2239 29.2239 54 29.5 54C29.7761 54 30 54.2239 30 54.5Z" fill="#FF6060"/>
<path d="M57 56.5C57 56.7761 56.7761 57 56.5 57C56.2239 57 56 56.7761 56 56.5C56 56.2239 56.2239 56 56.5 56C56.7761 56 57 56.2239 57 56.5Z" fill="#FF6060"/>
<path d="M62 55.5C62 55.7761 61.7761 56 61.5 56C61.2239 56 61 55.7761 61 55.5C61 55.2239 61.2239 55 61.5 55C61.7761 55 62 55.2239 62 55.5Z" fill="#FF6060"/>
<path d="M66 55.5C66 55.7761 65.7761 56 65.5 56C65.2239 56 65 55.7761 65 55.5C65 55.2239 65.2239 55 65.5 55C65.7761 55 66 55.2239 66 55.5Z" fill="#FF6060"/>
<path d="M54 65C54 65.5523 53.5523 66 53 66C52.4477 66 52 65.5523 52 65C52 64.4477 52.4477 64 53 64C53.5523 64 54 64.4477 54 65Z" fill="#FF6060"/>
<path d="M51 64C51 65.1046 50.1046 66 49 66C47.8954 66 47 65.1046 47 64C47 62.8954 47.8954 62 49 62C50.1046 62 51 62.8954 51 64Z" fill="#FF6060"/>
<path d="M45 67.5C45 68.3284 44.3284 69 43.5 69C42.6716 69 42 68.3284 42 67.5C42 66.6716 42.6716 66 43.5 66C44.3284 66 45 66.6716 45 67.5Z" fill="#FF6060"/>
<path d="M61 59.5C61 60.3284 60.3284 61 59.5 61C58.6716 61 58 60.3284 58 59.5C58 58.6716 58.6716 58 59.5 58C60.3284 58 61 58.6716 61 59.5Z" fill="#FF6060"/>
<path d="M37 60.5C37 61.3284 36.3284 62 35.5 62C34.6716 62 34 61.3284 34 60.5C34 59.6716 34.6716 59 35.5 59C36.3284 59 37 59.6716 37 60.5Z" fill="#FF6060"/>
</svg>
