<?xml version="1.0" encoding="utf-8"?>
<!-- Generator: Adobe Illustrator 28.2.0, SVG Export Plug-In . SVG Version: 6.00 Build 0)  -->
<svg version="1.1" id="Layer_1" xmlns="http://www.w3.org/2000/svg" xmlns:xlink="http://www.w3.org/1999/xlink" x="0px" y="0px"
	 viewBox="0 0 1838.94 2672.47" style="enable-background:new 0 0 1838.94 2672.47;" xml:space="preserve">
<style type="text/css">
	.st0{fill:#E5B08C;}
	.st1{fill:#FF4F33;}
	.st2{fill:#F2A286;}
	.st3{fill:#FFCDA7;}
	.st4{fill:#D26159;}
	.st5{fill:#00030F;}
	.st6{fill:#FFAA47;}
	.st7{fill:#FFF6E1;}
	.st8{fill:#70ACA0;}
	.st9{fill:#31756C;}
	.st10{fill:#D9EBFF;}
</style>
<ellipse class="st0" cx="929.88" cy="2404.63" rx="652.03" ry="191.26"/>
<g>
	<path class="st1" d="M391.77,971.13l53.58-85.8c-10.48-10.38-22.33-20.23-35.58-29.54c-18.11,34.68-41.74,72.87-64.64,109.89
		c-5.04,8.15-10.1,16.33-15.12,24.49c9.65,4.27,20.37,5.32,30.85,2.94C373.78,990.17,384.76,982.36,391.77,971.13z"/>
	<path class="st2" d="M1227.71,1826.24c4.03-8.92,31.31-70.08,57.12-148.9c25.57-78.07,54.91-189.92,49.48-279.41
		c-9.74-160.42,35.58-395.71,43.44-434.95L1019.8,779.98c-2.2-1.13-3.71-3.27-4.02-5.72c-20.48-159.48-77-577.34-95.34-619.19
		c-32.64-24.2-70.03-32.61-102.85-23.07c-23.87,6.94-42.25,23.18-50.55,44.63c-13.2,146.39,27.28,439.98,27.69,442.93
		c0.01,0.07,0.02,0.14,0.03,0.21c16.41,149.14-14.64,184.5-34.61,192.3c-16.69,6.52-35.54-1.65-50.43-21.85
		c-33.25-45.1-95.49-171.05-98.12-176.38c-0.07-0.14-0.14-0.29-0.2-0.44c-46.76-112.52-125.17-294.57-140.56-313.99
		c-34.16-14.74-69.46-12-97.08,7.53c-22.11,15.63-34.75,39.13-32.99,61.33c0.01,0.11,0.01,0.22,0.02,0.32
		c2.85,79.58,83.66,339.55,108.36,417.34c5.97,18.8,4.67,38.75-3.67,56.19c-3.11,6.51-6.49,11.17-10.23,14.06
		c8.96,7.23,17.2,14.75,24.73,22.55c0.22,0.2,0.42,0.41,0.61,0.63c32.91,34.3,52.08,73.97,57.16,118.5
		c3.76,32.97-0.29,68.7-12.02,106.18c-6.68,21.34-15.86,43.29-27.38,65.54c9.21,7.24,28.44,24.48,47.72,54.95
		c23.84,37.68,52.35,103.84,52.76,205c0.02,4.14-3.33,7.51-7.47,7.53c-1.04,0-2.04-0.2-2.94-0.59c-2.69-1.13-4.58-3.78-4.59-6.88
		c-0.39-97.05-27.36-160.27-49.91-196.21c-16.87-26.88-33.84-42.93-42.8-50.33c-2.4,4.3-4.87,8.61-7.44,12.92
		c-31.58,53.07-64.63,88.29-66.02,89.76c-2.84,3.01-7.59,3.14-10.6,0.3c-3.01-2.84-3.15-7.59-0.31-10.6
		c0.33-0.35,33.48-35.7,64.21-87.43c28.09-47.28,59.89-118.35,51.88-188.49c-4.36-38.18-20.07-72.61-46.83-102.92l-51.51,82.48
		c-9.15,14.65-23.46,24.83-40.29,28.66c-13.29,3.03-26.88,1.81-39.19-3.38c-0.97-0.41-1.92-0.85-2.87-1.3
		c-45.48,74.71-84.74,146.58-72.26,185.36c23.52,73.05,47.05,221.64,46.64,294.41c-0.18,32.19,22.29,69.76,65,108.65
		c38.14,34.74,89.55,67.92,144.75,93.42c107.79,49.8,129.86,237.04,116.01,382.25c-4.54,47.57,9.56,79.91,39.71,90.97
		c19.5,7.18,44.18,5.06,69.48-5.96c26.33-11.47,50.39-31.45,67.73-56.26c19.12-27.34,40.45-42.51,65.22-46.35
		c49.17-7.63,99.9,31.12,153.61,72.16c5.12,3.91,10.25,7.83,15.38,11.71c30.6,23.13,69.25,25.1,103.4,5.28
		c45.22-26.25,69.64-80.45,62.21-138.1C1184.08,1884.69,1204.79,1850.5,1227.71,1826.24z"/>
	<path class="st3" d="M451.2,793.88c10.51-25,11.7-61.54,11.7-61.54s-5.86-18.48-25.81-71.61
		c-19.96-53.14-41.54-122.49-25.19-131.13s19.09-17.37,3.06-12.83c-16.03,4.53-20.16,0.91-5-8.23
		c15.15-9.14,37.84-16.05,20.57-18.63c-17.27-2.58-35.04,17.23-48.48-22.33c-13.44-39.56-21.8-105.69,7.47-137.13
		c17.35-18.64,16.82-30.59,13.51-37.23c-10.37,2.77-20.23,7.35-29.27,13.74c-22.11,15.63-34.75,39.13-32.99,61.33
		c0.01,0.11,0.01,0.22,0.02,0.32c2.85,79.58,83.66,339.55,108.36,417.34C449.98,788.57,450.65,791.22,451.2,793.88z"/>
	<path class="st4" d="M1199.02,2000.59c-14.94-115.9,5.78-150.09,28.69-174.35c4.03-8.92,31.31-70.08,57.12-148.9
		c14.9-45.49,31.07-102.46,40.9-159.79c-40.82-44.75-83.22-78.29-124.99-93.69c-106.33-39.2-476.34-55.91-476.34-55.91
		s-93.39,22.75-21.39,102.07c71.99,79.32,295.55,91.7,364.65,222.52s-95.06,147.26-179.97,78.5
		c-84.92-68.76-76.81,32.57-201.55-8.75c-108.85-36.05-141.82-88.84-255.73-118.79c23.72,15.12,49.36,29.14,75.87,41.4
		c107.79,49.8,129.86,237.04,116.01,382.25c-4.54,47.57,9.56,79.91,39.71,90.97c19.5,7.18,44.18,5.06,69.48-5.96
		c26.33-11.47,50.39-31.45,67.73-56.26c2.73-3.91,5.51-7.56,8.34-10.98c41.25-154.48,89.51-292.17,85.41-199.15
		c-5.44,123.39,61.64-65.8,64.07-1.22c2.42,64.57,193.89-94.75,193.65,100.03c-0.1,77.27-17.18,127.38-36.55,163.92
		c7.69-2.25,15.29-5.52,22.68-9.81C1182.03,2112.45,1206.45,2058.24,1199.02,2000.59z"/>
	<path class="st3" d="M514.08,1644.54c-33.1-21.96-58.18-16.07-116.7-49.22c-58.51-33.15,18.06-78.53,39.9-152.64
		s-38.8-92.15-62.99-69.4c-24.19,22.75-35.78,65.87-49.67,28.48c-13.88-37.4-17.53-66.7-24.8-113.08
		c-7.27-46.37-29.87-122.28-18.4-149.45c11.46-27.18,40.16-97.45,57.45-100.51c17.3-3.06,41.09-4.79,65.96-38.08
		c20.98-28.08,32.89-61.67,28.73-68.09l-29.06,46.53c-9.15,14.65-23.46,24.83-40.29,28.66c-13.29,3.03-26.88,1.81-39.19-3.38
		c-0.97-0.41-1.92-0.85-2.87-1.3c-45.48,74.71-84.74,146.58-72.26,185.36c23.52,73.05,47.05,221.64,46.64,294.41
		c-0.18,32.19,22.29,69.76,65,108.65c32.85,29.92,75.53,58.67,122.01,82.37C522.41,1680.76,537.57,1660.13,514.08,1644.54z"/>
	<path class="st3" d="M767.03,176.63c-13.2,146.39,27.28,439.98,27.69,442.93c0.01,0.07,0.02,0.14,0.03,0.21
		c14.41,6.51,35.54,16.44,26.11-25.19c-9.43-41.64-22.34-194.26-14.99-199.4c7.35-5.14,66.64-3.43,58.24-13.09
		c-8.4-9.66-31.01-0.13-54.22-4.27c-23.2-4.14-20.21-33,3.17-38.21c23.38-5.2,48.42-17.71,19.68-14.3
		c-28.74,3.41-46.41,0.67-47.03-17.95c-0.62-18.62-5.67-93.71,6.51-124.82c10.19-26.02,55.76-46.98,71.35-52.75
		c-15.69-2.73-31.3-2.07-45.99,2.21C793.71,138.95,775.34,155.19,767.03,176.63z"/>
	<path class="st4" d="M552.11,765.25c0,0,27.86-8.02,59.57-40.78c8.89-9.19,18.37-30.48,26.83-57.64
		c-14.88-28.6-25.85-50.81-26.92-52.98c-0.07-0.14-0.14-0.29-0.2-0.44c-46.76-112.52-125.17-294.57-140.56-313.99
		c-11.21-4.84-22.54-7.78-33.68-8.88c-14.52,9.49-25.45,42.33,0.29,143.9C482.31,611.54,552.11,765.25,552.11,765.25z"/>
	<path class="st4" d="M1015.77,774.26c-20.48-159.48-77-577.34-95.34-619.19c-2.85-2.11-5.73-4.09-8.64-5.96
		c-13.31,2.84-52.66,15.6-55.76,67.41c-3.74,62.44,80.52,521.17,89.91,549.14c7.56,22.52,48.63,54.58,71.53,12.46
		C1016.56,777.03,1015.96,775.7,1015.77,774.26z"/>
	<path class="st5" d="M1239.43,1835.68c0.57-0.6,1.05-1.29,1.39-2.05c0.3-0.65,30.11-65.73,58.2-151.45
		c37.82-115.43,54.73-211.37,50.25-285.16c-10.48-172.59,43.74-433.97,44.29-436.59c0.69-3.31-0.92-6.68-3.93-8.22l-359.5-183.79
		c-3.14-24.27-20.37-156.95-39.63-292.25C947.44,173.63,936.57,153.3,933,146.62c-0.51-0.95-1.22-1.78-2.08-2.44
		c-36.79-27.92-79.63-37.61-117.52-26.59c-28.82,8.38-50.97,28.32-60.77,54.72c-0.23,0.62-0.38,1.26-0.44,1.92
		c-13.55,146.74,26.69,440.29,27.66,447.29c12.96,117.88-4.5,168.51-25.17,176.58c-9.98,3.9-22.28-2.38-32.9-16.78
		c-31.84-43.2-93.69-167.95-96.64-173.91c-1.93-4.63-32.17-77.29-64.26-151.27c-67.26-155.1-76.66-164.62-80.2-168.21
		c-0.66-0.66-1.43-1.2-2.28-1.58c-39.54-17.61-80.86-14.6-113.31,8.34c-26.36,18.63-41.4,47.2-39.29,74.6
		c3.03,81.67,84.22,342.99,109.05,421.18c4.81,15.15,3.78,31.2-2.9,45.18c-3.06,6.41-5.45,8.4-6.3,8.95
		c-1.7-0.44-3.48-0.26-5.03,0.46c-3.08-2.2-6.23-4.38-9.45-6.52c-1.79-1.19-3.99-1.55-6.07-1.01c-2.07,0.55-3.81,1.95-4.78,3.87
		c-18.25,36.08-43.5,76.9-67.92,116.37c-58.35,94.32-113.46,183.4-96.77,235.22c23.15,71.92,46.33,218.14,45.92,289.73
		c-0.21,36.56,23.96,77.99,69.89,119.82c39.25,35.74,92,69.82,148.56,95.95c45.01,20.8,78.24,72.17,96.08,148.56
		c19.86,84.99,15.59,173.47,11.28,218.65c-2.7,28.25,0.6,51.95,9.79,70.45c8,16.1,20.57,28.06,36.49,34.77
		c1.05,0.44,2.11,0.86,3.18,1.26c47.87,17.62,115.82-12.12,154.69-67.71c16.65-23.82,34.72-36.94,55.23-40.12
		c42.85-6.65,91.11,30.22,142.2,69.25c5.14,3.93,10.29,7.86,15.45,11.76c35.58,26.89,80.43,29.24,119.97,6.29
		c23.21-13.47,42.84-35.04,55.3-60.73c13.52-27.89,18.45-59.79,14.26-92.26C1198.42,1878.57,1223.1,1852.76,1239.43,1835.68z
		 M345.14,965.68c22.9-37.02,46.53-75.21,64.64-109.89c13.24,9.31,25.1,19.17,35.58,29.54l-53.58,85.8
		c-7.02,11.23-17.99,19.04-30.9,21.98c-10.48,2.39-21.2,1.33-30.85-2.94C335.04,982.01,340.1,973.83,345.14,965.68z M1136.8,2138.7
		c-34.15,19.82-72.8,17.85-103.4-5.28c-5.13-3.88-10.26-7.8-15.38-11.71c-53.71-41.03-104.44-79.79-153.61-72.16
		c-24.77,3.85-46.1,19.01-65.22,46.35c-17.35,24.81-41.4,44.79-67.73,56.26c-25.3,11.02-49.98,13.14-69.48,5.96
		c-30.14-11.07-44.25-43.4-39.71-90.97c13.85-145.21-8.22-332.45-116.01-382.25c-55.2-25.5-106.61-58.68-144.75-93.42
		c-42.7-38.89-65.18-76.46-65-108.65c0.41-72.78-23.13-221.36-46.64-294.41c-12.48-38.78,26.78-110.65,72.26-185.36
		c0.95,0.46,1.9,0.9,2.87,1.3c12.31,5.19,25.89,6.41,39.19,3.38c16.84-3.84,31.15-14.01,40.29-28.66l51.51-82.48
		c26.77,30.31,42.47,64.74,46.83,102.92c8.01,70.13-23.79,141.21-51.88,188.49c-30.73,51.73-63.88,87.08-64.21,87.43
		c-2.84,3.01-2.71,7.76,0.31,10.6c3.01,2.84,7.76,2.71,10.6-0.3c1.39-1.47,34.44-36.69,66.02-89.76c2.57-4.32,5.04-8.62,7.44-12.92
		c8.95,7.4,25.93,23.45,42.8,50.33c22.56,35.94,49.53,99.16,49.91,196.21c0.01,3.1,1.9,5.75,4.59,6.88c0.9,0.38,1.9,0.59,2.94,0.59
		c4.14-0.02,7.49-3.39,7.47-7.53c-0.41-101.16-28.91-167.32-52.76-205c-19.28-30.47-38.51-47.71-47.72-54.95
		c11.52-22.24,20.7-44.2,27.38-65.54c11.73-37.48,15.77-73.21,12.02-106.18c-5.07-44.53-24.25-84.2-57.16-118.5
		c-0.19-0.22-0.39-0.43-0.61-0.63c-7.53-7.8-15.78-15.32-24.73-22.55c3.74-2.9,7.11-7.55,10.23-14.06
		c8.33-17.44,9.64-37.39,3.67-56.19c-24.7-77.78-105.51-337.76-108.36-417.34c0-0.11-0.01-0.22-0.02-0.32
		c-1.76-22.2,10.88-45.7,32.99-61.33c27.62-19.53,62.92-22.27,97.08-7.53c15.39,19.42,93.79,201.47,140.56,313.99
		c0.06,0.15,0.13,0.29,0.2,0.44c2.63,5.34,64.87,131.28,98.12,176.38c14.89,20.2,33.75,28.37,50.43,21.85
		c19.97-7.8,51.02-43.16,34.61-192.3c-0.01-0.07-0.02-0.14-0.03-0.21c-0.41-2.96-40.89-296.54-27.69-442.93
		c8.31-21.45,26.68-37.69,50.55-44.63c32.81-9.54,70.21-1.14,102.85,23.07c18.34,41.85,74.86,459.7,95.34,619.19
		c0.32,2.45,1.82,4.6,4.02,5.72l357.95,182.99c-7.86,39.24-53.18,274.53-43.44,434.95c5.43,89.5-23.91,201.35-49.48,279.41
		c-25.81,78.82-53.09,139.98-57.12,148.9c-22.91,24.26-43.63,58.45-28.69,174.35C1206.45,2058.24,1182.03,2112.45,1136.8,2138.7z"/>
	<g>
		<path class="st6" d="M1573.76,1064c-95.79-40.4-206.6,4.66-247,100.46s4.66,206.6,100.46,247c88.3,37.24,189.36,1.86,236.27-78.93
			c0.02-0.03,0.03-0.06,0.05-0.08c0.71-1.23,1.41-2.47,2.1-3.73c0.12-0.22,0.25-0.45,0.37-0.67c0.69-1.26,1.36-2.53,2.03-3.82
			c0.02-0.04,0.04-0.08,0.06-0.12c0.67-1.31,1.33-2.63,1.98-3.96c0.15-0.32,0.3-0.64,0.46-0.96c0.49-1.02,0.96-2.04,1.43-3.07
			c0.17-0.37,0.34-0.75,0.51-1.12c0.59-1.32,1.18-2.65,1.75-4l0,0c0.59-1.39,1.15-2.79,1.7-4.18c0.23-0.58,0.45-1.17,0.67-1.76
			c0.3-0.79,0.6-1.58,0.89-2.37c0.29-0.78,0.56-1.57,0.84-2.35c0.2-0.57,0.4-1.13,0.59-1.7c0.32-0.94,0.63-1.88,0.94-2.83
			c0.12-0.36,0.23-0.72,0.35-1.08c0.36-1.12,0.7-2.25,1.04-3.37c0.03-0.09,0.05-0.17,0.08-0.26c5.28-17.88,7.84-36.4,7.69-54.91
			c-0.01-0.98-0.02-1.96-0.04-2.93c0-0.21-0.01-0.41-0.02-0.62C1686.92,1161.02,1643.96,1093.6,1573.76,1064z"/>
		<g>
			<g>
				
					<ellipse transform="matrix(0.2972 -0.9548 0.9548 0.2972 -3.0975 2281.8872)" class="st1" cx="1548.58" cy="1143.05" rx="58.99" ry="58.99"/>
			</g>
			<g>
				
					<ellipse transform="matrix(0.4817 -0.8763 0.8763 0.4817 -424.0089 1979.9882)" class="st1" cx="1461.94" cy="1348.47" rx="58.99" ry="58.99"/>
			</g>
			<g>
				
					<ellipse transform="matrix(0.9809 -0.1945 0.1945 0.9809 -207.1023 295.7834)" class="st1" cx="1402.55" cy="1202.44" rx="58.99" ry="58.99"/>
			</g>
			<g>
				
					<ellipse transform="matrix(0.9809 -0.1945 0.1945 0.9809 -220.0305 337.3948)" class="st1" cx="1607.97" cy="1289.07" rx="58.99" ry="58.99"/>
			</g>
		</g>
		
			<ellipse transform="matrix(0.2142 -0.9768 0.9768 0.2142 -436.7455 2253.4695)" class="st7" cx="1182.27" cy="1398.19" rx="129.78" ry="129.78"/>
		
			<ellipse transform="matrix(0.7071 -0.7071 0.7071 0.7071 -639.8987 856.6185)" class="st7" cx="714.08" cy="1200.74" rx="129.78" ry="129.78"/>
		<path class="st8" d="M1421.39,1425.28c-103.42-43.62-152.07-163.23-108.45-266.65c43.62-103.42,163.23-152.07,266.65-108.45
			c47.81,20.16,83.9,56.57,104.59,100.11c6.25-48.1-2.13-79-10.58-96.75c-7.3-15.32-15.83-23.58-19.55-26.68l-201.83-85.12
			l0.05-0.11c-0.48-0.14-0.95-0.29-1.43-0.48l-292.38-113.49l-19.38-8.18L854.04,689.44l-203.33-85.76
			c-4.79-0.49-16.66-0.85-32.75,4.63c-18.61,6.34-46.58,21.91-76.67,59.95c45.62-15.57,96.88-15.13,144.69,5.03
			c103.42,43.62,152.07,163.23,108.45,266.65c-43.62,103.42-163.23,152.07-266.65,108.45c-75.4-31.8-121.67-104-124.32-180.87
			c-65.41,98.73-189.76,291.27-223.66,377.87c-23.7,60.54-33.39,112.93-28.79,155.7c4.42,41.18,21.98,71.2,52.18,89.21
			c31.27,18.65,74.04,22.06,117.35,9.35c34.53-10.13,85.92-35.14,134.62-96.78c37.71-47.73,100.54-66.31,186.75-55.21
			c68.37,8.8,150.66,35.46,251.55,81.51c103.4,40.11,179.93,80.43,233.95,123.25c68.11,53.99,98.66,111.95,90.81,172.27
			c-10.15,77.9,7.81,132.16,24.65,163.95c21.13,39.88,53.42,68.13,88.61,77.51c33.97,9.05,67.72,0.68,100.3-24.9
			c33.84-26.57,64.6-70.07,91.41-129.3c38.35-84.72,89.45-308.16,114.49-423.91C1580.79,1439.82,1496.79,1457.08,1421.39,1425.28z
			 M1242.13,1005.77l52.22,22.02c19.24,8.11,28.29,30.36,20.17,49.6c-8.11,19.24-30.36,28.29-49.6,20.17l-52.22-22.02
			c-19.24-8.11-28.29-30.36-20.17-49.6C1200.65,1006.7,1222.9,997.65,1242.13,1005.77z M901.1,861.93l52.22,22.02
			c19.24,8.11,28.29,30.36,20.17,49.6c-8.11,19.24-30.36,28.29-49.6,20.17l-52.22-22.02c-19.24-8.11-28.29-30.36-20.17-49.6
			C859.62,862.87,881.87,853.82,901.1,861.93z M657.82,1334.13c-73.56-31.02-108.16-116.1-77.14-189.66
			c31.02-73.56,116.1-108.16,189.66-77.14c73.56,31.02,108.16,116.1,77.14,189.66C816.46,1330.55,731.38,1365.16,657.82,1334.13z
			 M1017.88,1135.06l-0.32-0.13l-0.31-0.13c-33.01-13.92-48.54-52.1-34.62-85.11c13.92-33.01,52.1-48.54,85.11-34.62l0.34,0.14
			l0.29,0.12c33.01,13.92,48.54,52.1,34.62,85.11C1089.07,1133.45,1050.89,1148.98,1017.88,1135.06z M1126,1531.59
			c-73.56-31.02-108.16-116.1-77.14-189.66c31.02-73.56,116.1-108.16,189.66-77.14c73.56,31.02,108.16,116.1,77.14,189.66
			C1284.64,1528.01,1199.56,1562.61,1126,1531.59z"/>
		<g>
			
				<ellipse transform="matrix(0.7071 -0.7071 0.7071 0.7071 -350.4077 1424.0753)" class="st5" cx="1543.81" cy="1135.02" rx="58.99" ry="58.99"/>
		</g>
		<g>
			
				<ellipse transform="matrix(0.9938 -0.1116 0.1116 0.9938 -140.4411 170.9272)" class="st5" cx="1457.17" cy="1340.43" rx="58.99" ry="58.99"/>
		</g>
		<g>
			
				<ellipse transform="matrix(0.989 -0.148 0.148 0.989 -161.3834 220.0319)" class="st5" cx="1397.78" cy="1194.41" rx="58.99" ry="58.99"/>
		</g>
		<g>
			
				<ellipse transform="matrix(0.989 -0.148 0.148 0.989 -171.9435 251.3887)" class="st5" cx="1603.2" cy="1281.04" rx="58.99" ry="58.99"/>
		</g>
		<g>
			
				<ellipse transform="matrix(0.7071 -0.7071 0.7071 0.7071 -642.3942 1245.509)" class="st5" cx="1182.27" cy="1398.19" rx="89.84" ry="89.84"/>
		</g>
		<g>
			
				<ellipse transform="matrix(0.9992 -0.0404 0.0404 0.9992 -55.4598 48.8482)" class="st1" cx="1182.27" cy="1398.19" rx="62.65" ry="62.65"/>
		</g>
		<path class="st7" d="M1141.57,1396.19c10.45-24.78,39-36.39,63.78-25.94c11.83,4.99,20.65,14.12,25.51,24.98
			c-1.1-17.88-12.06-34.47-29.68-41.9c-24.78-10.45-53.33,1.16-63.78,25.94c-5.46,12.94-4.89,26.91,0.43,38.8
			C1137.38,1410.81,1138.55,1403.34,1141.57,1396.19z"/>
		<g>
			<path class="st5" d="M811.84,1200.54l-27.98-11.8c-10.93-4.61-16.05-17.2-11.44-28.13l11.8-27.98
				c4.61-10.93-0.51-23.52-11.44-28.13l-30.77-12.98c-10.93-4.61-23.52,0.51-28.13,11.44l-11.8,27.98
				c-4.61,10.93-17.2,16.05-28.13,11.44l-27.98-11.8c-10.93-4.61-23.52,0.51-28.13,11.44l-12.98,30.77
				c-4.61,10.93,0.51,23.52,11.44,28.13l27.98,11.8c10.93,4.61,16.05,17.2,11.44,28.13l-11.8,27.98
				c-4.61,10.93,0.51,23.52,11.44,28.13l30.77,12.98c10.93,4.61,23.52-0.51,28.13-11.44l11.8-27.98
				c4.61-10.93,17.2-16.05,28.13-11.44l27.98,11.8c10.93,4.61,23.52-0.51,28.13-11.44l12.98-30.77
				C827.89,1217.74,822.77,1205.15,811.84,1200.54z"/>
		</g>
		<path class="st6" d="M877.5,917.89l52.22,22.02c11.62,4.9,25.05-0.57,29.95-12.18c4.9-11.62-0.57-25.05-12.18-29.95l-52.22-22.02
			c-11.62-4.9-25.05,0.57-29.95,12.18C860.42,899.55,865.89,912.99,877.5,917.89z"/>
		<path class="st6" d="M431.06,792.76c-0.41,1.06-0.81,2.11-1.2,3.17c-0.12,0.33-0.25,0.66-0.37,0.99c-0.5,1.39-0.99,2.79-1.46,4.18
			c-0.01,0.04-0.03,0.08-0.04,0.12c-0.46,1.37-0.9,2.75-1.32,4.13c-0.07,0.24-0.15,0.48-0.22,0.72c-0.42,1.37-0.82,2.74-1.2,4.11
			c-0.01,0.03-0.02,0.06-0.03,0.09c-25.11,89.98,20.08,187.05,108.39,224.29c95.79,40.4,206.6-4.66,247-100.46
			s-4.66-206.6-100.46-247c-70.21-29.61-148.47-13.31-201.18,35.22c-0.15,0.14-0.3,0.27-0.44,0.4c-0.72,0.67-1.43,1.35-2.15,2.04
			c-13.36,12.82-24.82,27.57-33.94,43.83c-0.04,0.08-0.09,0.15-0.13,0.23c-0.57,1.03-1.14,2.06-1.69,3.1
			c-0.18,0.33-0.35,0.66-0.53,1c-0.46,0.88-0.92,1.76-1.37,2.65c-0.27,0.53-0.54,1.07-0.8,1.61c-0.37,0.75-0.74,1.49-1.1,2.24
			c-0.36,0.76-0.72,1.53-1.07,2.29c-0.26,0.57-0.53,1.14-0.79,1.71c-0.62,1.37-1.22,2.75-1.81,4.14c-0.57,1.34-1.11,2.69-1.64,4.04
			C431.36,792,431.21,792.38,431.06,792.76z M653.11,751.23c60.44,25.49,88.88,95.41,63.39,155.85
			c-25.49,60.44-95.41,88.88-155.85,63.39c-60.44-25.49-88.88-95.41-63.39-155.85C522.76,754.17,592.67,725.73,653.11,751.23z"/>
		<path class="st6" d="M1218.54,1061.72l52.22,22.02c11.61,4.9,25.05-0.57,29.95-12.18s-0.57-25.05-12.18-29.95l-52.22-22.02
			c-11.61-4.9-25.05,0.57-29.95,12.18C1201.46,1043.38,1206.92,1056.82,1218.54,1061.72z"/>
		<path class="st7" d="M868.21,894.49c4.9-11.62,18.33-17.08,29.95-12.18l52.22,22.02c4.4,1.86,7.91,4.94,10.32,8.68
			c-1.75-6.61-6.43-12.37-13.21-15.23l-52.22-22.02c-11.62-4.9-25.05,0.57-29.95,12.18c-3.04,7.22-2.08,15.13,1.86,21.27
			C865.93,904.48,866.17,899.33,868.21,894.49z"/>
		<path class="st7" d="M1209.24,1038.32c4.9-11.62,18.33-17.08,29.95-12.18l52.22,22.02c4.4,1.86,7.91,4.94,10.32,8.68
			c-1.75-6.61-6.43-12.37-13.2-15.23l-52.22-22.02c-11.61-4.9-25.05,0.57-29.95,12.18c-3.04,7.22-2.08,15.13,1.86,21.27
			C1206.96,1048.31,1207.2,1043.16,1209.24,1038.32z"/>
		
			<ellipse transform="matrix(0.3606 -0.9327 0.9327 0.3606 -414.8815 1116.5045)" class="st5" cx="606.88" cy="860.85" rx="103.97" ry="103.97"/>
		
			<ellipse transform="matrix(0.4171 -0.9089 0.9089 0.4171 -428.6325 1053.386)" class="st1" cx="606.88" cy="860.85" rx="81.34" ry="81.34"/>
		<path class="st7" d="M548.72,855.81c14.75-34.97,55.06-51.36,90.03-36.62c16.7,7.04,29.15,19.93,36.01,35.27
			c-1.56-25.23-17.02-48.65-41.89-59.14c-34.97-14.75-75.28,1.64-90.03,36.62c-7.7,18.27-6.9,37.99,0.6,54.76
			C542.81,876.45,544.46,865.91,548.72,855.81z"/>
		<path class="st1" d="M1644.33,1003.87l4.66-11.06c1.12-2.65-0.13-5.72-2.78-6.84l-153.33-64.67c-7.43-3.13-16.02,0.36-19.15,7.79
			l-1.21,2.86c-0.25,0.59-0.53,1.15-0.84,1.7l171.89,72.5C1643.77,1005.38,1644.01,1004.62,1644.33,1003.87z"/>
		<path class="st1" d="M845.38,667.45l1.21-2.86c3.13-7.43-0.36-16.02-7.79-19.15l-153.33-64.67c-2.65-1.12-5.72,0.13-6.84,2.78
			l-4.66,11.06c-0.32,0.75-0.7,1.45-1.1,2.13l171.89,72.5C844.92,668.64,845.13,668.04,845.38,667.45z"/>
		<path class="st1" d="M1062.55,1029.15l-0.28-0.12l-0.34-0.15c-25.39-10.71-54.75,1.24-65.46,26.62
			c-10.71,25.39,1.24,54.75,26.62,65.46l0.31,0.13l0.32,0.13c25.39,10.71,54.75-1.24,65.46-26.62
			C1099.88,1069.23,1087.94,1039.86,1062.55,1029.15z"/>
		<path class="st5" d="M871.67,931.71l52.22,22.02c19.24,8.11,41.49-0.94,49.6-20.17c8.11-19.24-0.94-41.49-20.17-49.6l-52.22-22.02
			c-19.24-8.11-41.49,0.94-49.6,20.17C843.39,901.34,852.44,923.59,871.67,931.71z M895.27,875.76l52.22,22.02
			c11.62,4.9,17.08,18.33,12.18,29.95c-4.9,11.62-18.33,17.08-29.95,12.18l-52.22-22.02c-11.62-4.9-17.08-18.33-12.18-29.95
			C870.22,876.32,883.66,870.86,895.27,875.76z"/>
		<path class="st5" d="M560.65,970.47c60.44,25.49,130.36-2.94,155.85-63.39c25.49-60.44-2.94-130.36-63.39-155.85
			c-60.44-25.49-130.36,2.94-155.85,63.39C471.77,875.06,500.21,944.97,560.65,970.47z M647.29,765.05
			c52.82,22.28,77.67,83.38,55.4,136.2c-22.28,52.82-83.38,77.67-136.2,55.4c-52.82-22.28-77.67-83.38-55.4-136.2
			C533.36,767.62,594.46,742.77,647.29,765.05z"/>
		<path class="st5" d="M1068.38,1015.33l-0.29-0.12l-0.34-0.14c-33.01-13.92-71.19,1.61-85.11,34.62
			c-13.92,33.01,1.61,71.19,34.62,85.11l0.31,0.13l0.32,0.13c33.01,13.92,71.19-1.61,85.11-34.62
			C1116.91,1067.43,1101.38,1029.25,1068.38,1015.33z M1023.71,1121.24l-0.32-0.13l-0.31-0.13c-25.39-10.71-37.33-40.07-26.62-65.46
			c10.71-25.39,40.07-37.33,65.46-26.62l0.34,0.15l0.28,0.12c25.39,10.71,37.33,40.07,26.62,65.46
			C1078.46,1120,1049.1,1131.95,1023.71,1121.24z"/>
		<path class="st5" d="M1238.53,1264.79c-73.56-31.02-158.64,3.58-189.66,77.14c-31.02,73.56,3.58,158.64,77.14,189.66
			c73.56,31.02,158.64-3.58,189.66-77.14C1346.69,1380.9,1312.08,1295.82,1238.53,1264.79z M1131.83,1517.77
			c-65.93-27.81-96.95-104.07-69.14-170.01c27.81-65.93,104.07-96.95,170.01-69.15c65.94,27.81,96.95,104.07,69.15,170.01
			C1274.03,1514.56,1197.77,1545.58,1131.83,1517.77z"/>
		<path class="st5" d="M1212.71,1075.54l52.22,22.02c19.24,8.11,41.49-0.94,49.6-20.17c8.11-19.24-0.94-41.49-20.17-49.6
			l-52.22-22.02c-19.24-8.11-41.49,0.94-49.6,20.17C1184.42,1045.17,1193.47,1067.42,1212.71,1075.54z M1236.3,1019.59l52.22,22.02
			c11.61,4.9,17.08,18.33,12.18,29.95s-18.33,17.08-29.95,12.18l-52.22-22.02c-11.61-4.9-17.08-18.33-12.18-29.95
			C1211.25,1020.15,1224.69,1014.69,1236.3,1019.59z"/>
		<path class="st5" d="M770.34,1067.34c-73.56-31.02-158.64,3.58-189.66,77.14c-31.02,73.56,3.58,158.64,77.14,189.66
			c73.56,31.02,158.64-3.58,189.66-77.14C878.5,1183.44,843.9,1098.36,770.34,1067.34z M663.65,1320.31
			c-65.94-27.81-96.95-104.07-69.15-170.01c27.81-65.93,104.07-96.95,170.01-69.15c65.93,27.81,96.95,104.07,69.15,170.01
			C805.85,1317.1,729.58,1348.12,663.65,1320.31z"/>
		<path class="st7" d="M1541.44,1165.76c-0.74-0.1-1.84-0.35-3.3-0.75c-1.46-0.4-2.86-0.89-4.18-1.44
			c-2.77-1.17-4.66-2.51-5.65-4.03c-0.99-1.52-0.85-3.79,0.42-6.8l5.15-12.21c-0.57-2.87-1.15-6.02-1.76-9.47
			c-0.61-3.45-1.15-6.95-1.65-10.49c-0.49-3.55-0.88-6.99-1.17-10.35c-0.29-3.35-0.4-6.36-0.34-9.04c1.24-0.76,2.73-1.3,4.47-1.63
			c1.74-0.33,3.6-0.08,5.59,0.76c2.35,0.99,4.06,2.28,5.13,3.87c1.07,1.59,1.71,3.99,1.92,7.2l1.14,18.27l0.54,0.23
			c1.63-1.51,3.09-2.9,4.37-4.17c1.28-1.27,2.55-2.55,3.8-3.83c1.25-1.28,2.56-2.61,3.92-3.99c1.36-1.38,2.92-2.97,4.68-4.79
			c1.31-0.08,2.7,0,4.15,0.26c1.45,0.26,2.78,0.64,3.99,1.15c2.11,0.89,3.67,2.2,4.67,3.94c1.01,1.74,1.04,3.72,0.1,5.95
			c-0.31,0.72-0.83,1.53-1.56,2.43c-0.73,0.9-2.08,2.16-4.04,3.78c-1.96,1.62-4.73,3.77-8.31,6.45c-3.58,2.68-8.36,6.13-14.33,10.36
			L1541.44,1165.76z"/>
		<path class="st7" d="M1591.52,1310.15c-1.03-0.43-2.22-0.97-3.58-1.62c-1.36-0.65-2.74-1.37-4.14-2.17
			c-1.4-0.8-2.77-1.65-4.1-2.53c-1.33-0.88-2.5-1.82-3.5-2.81c-2.78-2.66-3.51-5.56-2.19-8.7l17.81-42.23
			c0.53-1.27,1.29-2.1,2.28-2.5c0.98-0.4,2.17-0.56,3.55-0.47c2.35,0.14,5.14,0.69,8.35,1.66c3.21,0.97,6.45,2.13,9.7,3.51
			c7.72,3.25,13.11,7.06,16.17,11.4c3.07,4.35,3.46,9.23,1.17,14.66c-1.14,2.71-2.91,4.72-5.31,6.02c-2.4,1.3-5.11,1.84-8.14,1.63
			c2.66,2.12,4.53,4.71,5.61,7.8c1.08,3.08,0.91,6.31-0.52,9.69c-2.52,5.97-6.6,9.45-12.23,10.44
			C1606.82,1314.91,1599.84,1313.66,1591.52,1310.15z M1600.32,1272.85l6.6,2.78c2.59,1.09,4.68,1.41,6.26,0.94
			c1.58-0.47,2.77-1.64,3.56-3.51c0.69-1.63,0.55-3.21-0.39-4.75c-0.95-1.54-2.78-2.88-5.49-4.02c-0.9-0.38-1.96-0.79-3.16-1.23
			c-1.2-0.44-2.16-0.73-2.87-0.89L1600.32,1272.85z M1591.02,1294.92c0.74,0.6,1.76,1.22,3.05,1.87c1.29,0.65,2.53,1.23,3.74,1.74
			c2.41,1.02,4.62,1.36,6.64,1.04c2.02-0.32,3.47-1.54,4.36-3.65c0.84-1.99,0.77-3.69-0.2-5.09c-0.97-1.4-2.81-2.68-5.52-3.82
			l-7.41-3.13L1591.02,1294.92z"/>
		<path class="st7" d="M1381.59,1163.08c0.66-0.72,1.44-1.38,2.33-2c0.9-0.61,1.9-1.1,3.01-1.45c1.11-0.35,2.3-0.52,3.57-0.52
			c1.28,0.01,2.58,0.29,3.9,0.85c1.75,0.74,3.1,1.82,4.06,3.26c0.96,1.43,1.68,3.5,2.18,6.19l2.52,13.74l16.88-10.99
			c0.58-0.04,1.36,0.02,2.32,0.18c0.96,0.16,1.87,0.41,2.71,0.77c2.77,1.17,4.66,2.75,5.67,4.74c1.01,1.99,1.11,3.95,0.29,5.87
			c-0.71,1.69-1.79,3.01-3.22,3.97c-1.43,0.96-3.3,2.05-5.59,3.29l-14.12,7.47l5.85,27.29c-1.42,2.03-3.21,3.35-5.35,3.97
			c-2.14,0.62-4.57,0.36-7.29-0.78c-1.75-0.74-3.07-1.81-3.97-3.22c-0.9-1.41-1.57-3.45-2-6.12l-2.44-14.66l-18.64,12.38
			c-0.51-0.14-0.98-0.29-1.41-0.44c-0.44-0.15-0.86-0.31-1.29-0.49c-3.44-1.45-5.68-3.21-6.72-5.28c-1.04-2.07-1.13-4.13-0.27-6.18
			c0.74-1.75,1.75-3.11,3.06-4.09c1.3-0.98,3.01-2.05,5.14-3.21l14.64-8.2L1381.59,1163.08z"/>
		<path class="st7" d="M1456.96,1309.99c1.28-0.17,3.07-0.09,5.38,0.25c2.31,0.33,4.52,0.95,6.63,1.84c3.01,1.27,5.5,2.83,7.45,4.69
			c1.95,1.85,2.86,3.85,2.74,6c-0.24,3.59-0.6,7.74-1.09,12.43c-0.49,4.69-1.03,9.52-1.64,14.49c-0.6,4.96-1.21,9.86-1.82,14.68
			c-0.61,4.82-1.17,9.08-1.66,12.77c-1.08,0.54-2.45,0.76-4.11,0.66c-1.66-0.1-3.49-0.57-5.48-1.41c-1.45-0.61-2.62-1.25-3.51-1.91
			c-0.89-0.66-1.55-1.36-1.98-2.11c-0.43-0.75-0.68-1.6-0.74-2.55c-0.06-0.95-0.03-2,0.1-3.15l1-6.93l-16.37-6.9
			c-1.25,1.6-2.52,3.27-3.81,5c-1.3,1.73-2.57,3.39-3.81,5c-0.97-0.06-1.97-0.17-2.99-0.36c-1.02-0.18-2.2-0.55-3.52-1.11
			c-3.07-1.3-5.13-2.79-6.16-4.46c-1.03-1.68-1.15-3.45-0.37-5.32c0.36-0.84,0.83-1.64,1.43-2.38c0.6-0.74,1.29-1.62,2.07-2.64
			c1.11-1.45,2.55-3.22,4.32-5.31c1.77-2.09,3.7-4.35,5.79-6.77c2.09-2.42,4.26-4.89,6.54-7.42c2.27-2.52,4.41-4.9,6.42-7.14
			c2.01-2.24,3.82-4.23,5.44-5.96C1454.84,1312.22,1456.08,1310.9,1456.96,1309.99z M1462.9,1326.23c-1.91,2.18-4.05,4.59-6.41,7.25
			c-2.37,2.66-4.64,5.41-6.83,8.25l11.21,4.73c0.53-3.61,1.01-7.15,1.45-10.63c0.43-3.47,0.81-6.6,1.13-9.38L1462.9,1326.23z"/>
		<g>
			<path class="st9" d="M307.36,1225.03c32.81-77.8,82.67-161.75,136.96-241.76c-25.01-33.34-39.42-73.84-40.85-115.74
				c-65.41,98.73-189.76,291.27-223.66,377.87c-23.7,60.54-33.39,112.93-28.79,155.7c4.42,41.18,21.98,71.2,52.18,89.21
				c31.27,18.65,74.04,22.06,117.35,9.35c22.64-6.64,52.54-19.69,84.17-45.26C313.45,1446.29,235.93,1394.39,307.36,1225.03z"/>
			<path class="st9" d="M617.96,608.32c-18.61,6.34-46.58,21.91-76.67,59.95c45.37-15.48,96.32-15.13,143.89,4.71
				c14.36-16.57,26.33-30.08,35.15-39.92l-69.63-29.36C645.92,603.2,634.05,602.84,617.96,608.32z"/>
		</g>
		<g>
			<path class="st9" d="M1448.67,1706.37c32.81-77.8,58.13-172.1,77.54-266.82c41.33-5.36,80.39-23.31,111.4-51.52
				c-25.05,115.75-76.14,339.19-114.49,423.91c-26.81,59.23-57.56,102.73-91.41,129.3c-32.58,25.58-66.33,33.95-100.3,24.9
				c-35.18-9.38-67.48-37.63-88.61-77.51c-11.05-20.85-22.57-51.37-26.33-91.87C1285.97,1856.45,1377.24,1875.73,1448.67,1706.37z"
				/>
			<path class="st9" d="M1673.51,1053.5c8.45,17.75,16.83,48.65,10.58,96.75c-20.58-43.29-56.39-79.53-103.8-99.76
				c1.84-21.85,3.16-39.85,4.06-53.03l69.63,29.36C1657.67,1029.9,1666.21,1038.16,1673.51,1053.5z"/>
		</g>
		<path class="st5" d="M1673.79,1344.53c0.03-0.06,0.07-0.11,0.1-0.17c1.71-2.78,3.35-5.61,4.92-8.47c0.14-0.26,0.29-0.52,0.43-0.79
			c0.65-1.2,1.29-2.4,1.91-3.61c0.12-0.24,0.25-0.47,0.37-0.71c0.71-1.39,1.41-2.79,2.1-4.2c0.13-0.28,0.26-0.56,0.4-0.83
			c0.55-1.15,1.09-2.3,1.62-3.46c0.18-0.39,0.36-0.78,0.53-1.17c0.64-1.42,1.27-2.85,1.88-4.29l0,0c0,0,0,0,0,0c0,0,0,0,0,0
			c0.63-1.49,1.24-2.99,1.83-4.49c0.24-0.61,0.47-1.23,0.71-1.84c0.33-0.86,0.66-1.72,0.98-2.59c0.3-0.82,0.59-1.64,0.88-2.45
			c0.22-0.63,0.44-1.25,0.66-1.88c0.34-0.99,0.67-1.98,0.99-2.97c0.13-0.39,0.25-0.79,0.38-1.18c0.38-1.19,0.75-2.39,1.11-3.58
			c0.01-0.04,0.02-0.08,0.04-0.12c5.49-18.42,8.23-37.15,8.41-55.68c0.01-0.49,0.01-0.97,0.02-1.46c0-0.78,0-1.56-0.01-2.34
			c-0.01-0.96-0.02-1.93-0.04-2.89c-0.01-0.42-0.02-0.83-0.03-1.25c-0.51-18.33-3.48-36.62-8.96-54.37
			c1.01-5.84,1.92-11.21,2.69-15.98c16.25-100.78-25.17-139.61-35.28-147.44l0.07-0.17l-0.68-0.29c-0.79-0.59-1.31-0.93-1.49-1.05
			l-0.54-0.35l-0.59-0.25c-0.96-0.41-1.42-1.52-1.01-2.49l4.66-11.06c4.33-10.27-0.5-22.16-10.78-26.49l-153.33-64.67
			c-15.05-6.35-32.46,0.73-38.8,15.78l-1.21,2.86c-0.4,0.95-1.47,1.41-2.44,1.03l-292.08-113.37l-18.98-8L860.16,675.75
			c-0.94-0.43-1.36-1.51-0.96-2.46l1.21-2.86c6.35-15.05-0.73-32.46-15.78-38.8l-153.33-64.67c-10.27-4.33-22.16,0.5-26.49,10.77
			l-4.66,11.06c-0.41,0.96-1.52,1.42-2.49,1.01l-0.59-0.25l-0.63-0.15c-2.63-0.61-65.16-13.9-132.76,77.2
			c-2.86,3.86-6.07,8.25-9.57,13.08c-16.53,8.46-31.71,19.1-45.19,31.53c-0.31,0.28-0.61,0.56-0.92,0.85
			c-0.71,0.66-1.41,1.32-2.1,1.99c-0.56,0.54-1.12,1.08-1.68,1.62c-0.35,0.34-0.69,0.69-1.04,1.03
			c-13.15,13.07-24.65,28.11-34.01,44.9c-0.02,0.03-0.04,0.06-0.05,0.1c-0.61,1.09-1.2,2.19-1.79,3.3
			c-0.19,0.36-0.39,0.73-0.58,1.09c-0.48,0.92-0.96,1.85-1.43,2.78c-0.3,0.59-0.59,1.18-0.89,1.78c-0.39,0.78-0.77,1.56-1.15,2.35
			c-0.4,0.83-0.78,1.66-1.17,2.5c-0.28,0.6-0.56,1.2-0.83,1.8c-0.66,1.47-1.31,2.95-1.94,4.45c-0.61,1.44-1.19,2.89-1.77,4.34
			c-0.16,0.4-0.31,0.8-0.47,1.2c-0.46,1.19-0.91,2.38-1.35,3.58c-0.1,0.29-0.21,0.57-0.32,0.86c-0.53,1.48-1.05,2.96-1.55,4.44
			c-0.08,0.25-0.16,0.49-0.24,0.74c-0.43,1.3-0.85,2.61-1.25,3.91c-0.09,0.28-0.17,0.56-0.26,0.83c-0.96,3.14-1.84,6.29-2.64,9.46
			c-0.01,0.05-0.03,0.11-0.04,0.16c-2.29,9.09-3.96,18.33-4.98,27.65c-60.28,90.36-201.69,306.65-238.63,401
			c-24.59,62.81-34.59,117.57-29.74,162.78c4.89,45.47,25.43,80.22,59.41,100.49c4.89,2.91,10.01,5.49,15.34,7.74
			c32.71,13.79,73.25,15.05,113.92,3.12c52.52-15.41,101.68-50.63,142.17-101.88c34.22-43.31,92.45-60.01,173.06-49.63
			c66.9,8.61,147.83,34.89,247.44,80.37l0.2,0.09l0.2,0.08c102.08,39.59,177.4,79.2,230.26,121.1
			c63.7,50.49,92.38,103.84,85.25,158.58c-8.43,64.76,0.65,124.55,26.27,172.91c23.08,43.56,58.79,74.54,98,84.98
			c38.23,10.19,77.45,0.65,113.43-27.59c35.76-28.07,67.99-73.46,95.81-134.91c41.79-92.31,97.98-344.54,120.61-450.78
			C1663.43,1360.15,1668.88,1352.52,1673.79,1344.53z M1688.96,1232.64c0.01,0.21,0.01,0.41,0.02,0.62
			c0.02,0.98,0.03,1.95,0.04,2.93c0.15,18.52-2.42,37.03-7.69,54.91c-0.03,0.09-0.05,0.17-0.08,0.26c-0.33,1.13-0.68,2.25-1.04,3.37
			c-0.11,0.36-0.23,0.72-0.35,1.08c-0.31,0.95-0.62,1.89-0.94,2.83c-0.19,0.57-0.39,1.13-0.59,1.7c-0.28,0.78-0.55,1.57-0.84,2.35
			c-0.29,0.79-0.59,1.58-0.89,2.37c-0.22,0.59-0.44,1.17-0.67,1.76c-0.55,1.4-1.12,2.79-1.7,4.18l0,0c-0.57,1.34-1.15,2.67-1.75,4
			c-0.17,0.38-0.34,0.75-0.51,1.12c-0.47,1.03-0.95,2.05-1.43,3.07c-0.15,0.32-0.3,0.64-0.46,0.96c-0.65,1.33-1.3,2.65-1.98,3.96
			c-0.02,0.04-0.04,0.08-0.06,0.12c-0.66,1.28-1.34,2.55-2.03,3.82c-0.12,0.23-0.25,0.45-0.37,0.67c-0.69,1.25-1.39,2.49-2.1,3.73
			c-0.02,0.03-0.03,0.06-0.05,0.08c-46.91,80.79-147.97,116.17-236.27,78.93c-95.79-40.4-140.86-151.2-100.46-247
			s151.2-140.86,247-100.46C1643.96,1093.6,1686.92,1161.02,1688.96,1232.64z M1472.52,931.95l1.21-2.86
			c3.13-7.43,11.72-10.92,19.15-7.79l153.33,64.67c2.65,1.12,3.9,4.19,2.78,6.84l-4.66,11.06c-0.32,0.75-0.55,1.51-0.76,2.28
			l-171.89-72.5C1471.99,933.11,1472.27,932.54,1472.52,931.95z M673.96,594.61l4.66-11.06c1.12-2.65,4.19-3.9,6.84-2.78
			l153.33,64.67c7.43,3.13,10.92,11.73,7.79,19.15l-1.21,2.86c-0.25,0.59-0.45,1.19-0.63,1.79l-171.89-72.5
			C673.26,596.07,673.64,595.36,673.96,594.61z M434.96,783.44c0.26-0.57,0.53-1.14,0.79-1.71c0.35-0.77,0.71-1.53,1.07-2.29
			c0.36-0.75,0.73-1.5,1.1-2.24c0.27-0.54,0.53-1.07,0.8-1.61c0.45-0.89,0.91-1.77,1.37-2.65c0.18-0.33,0.35-0.66,0.53-1
			c0.56-1.04,1.12-2.07,1.69-3.1c0.04-0.08,0.09-0.15,0.13-0.23c9.12-16.26,20.58-31.01,33.94-43.83c0.71-0.68,1.42-1.37,2.15-2.04
			c0.15-0.14,0.29-0.27,0.44-0.4c52.71-48.53,130.97-64.83,201.18-35.22c95.79,40.4,140.86,151.21,100.46,247
			s-151.21,140.86-247,100.46c-88.3-37.24-133.5-134.3-108.39-224.29c0.01-0.03,0.02-0.06,0.03-0.09c0.38-1.37,0.79-2.74,1.2-4.11
			c0.07-0.24,0.15-0.48,0.22-0.72c0.43-1.38,0.86-2.75,1.32-4.13c0.01-0.04,0.03-0.08,0.04-0.12c0.47-1.4,0.96-2.79,1.46-4.18
			c0.12-0.33,0.24-0.66,0.37-0.99c0.39-1.06,0.79-2.12,1.2-3.17c0.15-0.38,0.3-0.76,0.45-1.15c0.53-1.35,1.08-2.7,1.64-4.04
			C433.74,786.18,434.34,784.81,434.96,783.44z M1523.19,1811.97c-26.81,59.23-57.57,102.73-91.41,129.3
			c-32.58,25.58-66.33,33.95-100.3,24.9c-35.18-9.38-67.48-37.63-88.61-77.51c-16.85-31.8-34.8-86.06-24.65-163.95
			c7.86-60.32-22.69-118.28-90.81-172.27c-54.02-42.82-130.55-83.14-233.95-123.25c-100.9-46.05-183.19-72.71-251.55-81.51
			c-86.2-11.09-149.03,7.48-186.75,55.21c-48.7,61.64-100.09,86.65-134.62,96.78c-43.31,12.7-86.08,9.3-117.35-9.35
			c-30.2-18.01-47.75-48.02-52.18-89.21c-4.6-42.78,5.09-95.16,28.79-155.7c33.9-86.6,158.25-279.14,223.66-377.87
			c2.64,76.87,48.92,149.07,124.32,180.87c103.42,43.62,223.03-5.03,266.65-108.45c43.62-103.42-5.04-223.03-108.45-266.65
			c-47.8-20.16-99.07-20.59-144.69-5.03c30.08-38.04,58.06-53.61,76.67-59.95c16.09-5.48,27.96-5.12,32.75-4.63l203.33,85.76
			l285.04,130.03l19.38,8.18l292.38,113.49c0.47,0.18,0.95,0.34,1.43,0.48l-0.05,0.11l201.83,85.12
			c3.72,3.11,12.25,11.36,19.55,26.68c8.45,17.75,16.83,48.65,10.58,96.75c-20.7-43.54-56.79-79.94-104.59-100.11
			c-103.42-43.62-223.03,5.04-266.65,108.45c-43.62,103.42,5.04,223.03,108.45,266.65c75.4,31.8,159.4,14.54,216.29-37.22
			C1612.64,1503.81,1561.54,1727.25,1523.19,1811.97z"/>
		
			<ellipse transform="matrix(0.3886 -0.9214 0.9214 0.3886 -325.8268 1610.813)" class="st7" cx="1050.88" cy="1050.93" rx="18.22" ry="31.01"/>
		<path class="st9" d="M1020.54,782.99c-34,80.61-13.96,170.65,43.72,230.73c1.17,0.42,2.33,0.86,3.49,1.35l0.34,0.14l0.29,0.12
			c13.9,5.86,24.68,16.03,31.49,28.29c11.57,7.77,24.04,14.56,37.37,20.18c29.01,12.24,59.15,17.76,88.65,17.28l-13.18-5.56
			c-19.24-8.11-28.29-30.36-20.17-49.6c8.11-19.24,30.36-28.29,49.6-20.17l52.22,22.02c13.32,5.62,21.75,18.01,22.98,31.48
			c44.65-21.73,81.77-58.87,102.45-107.9c2.72-6.45,5.09-12.97,7.12-19.53l-268.45-104.2l-19.38-8.18l-111.76-50.98
			C1024.89,773.2,1022.63,778.03,1020.54,782.99z"/>
		<path class="st9" d="M1345.16,1481.02c14.22-30.9,33.03-51.67,54.24-66.62c-88.1-50.33-126.85-159.99-86.46-255.77
			c4.7-11.15,10.29-21.65,16.64-31.48c-28.96,21.63-50.37,53.82-60.46,85.49c-8.9,27.92-13.96,46.32-19.75,57.27
			c66.04,34.48,95.75,114.71,66.3,184.54c-31.02,73.56-116.1,108.16-189.66,77.14c-73.56-31.02-108.16-116.1-77.14-189.66
			c0.16-0.39,0.34-0.76,0.5-1.15c-32.11,24.03-36.97,77.85-67.55,64.19c-38.03-16.98-176.57-61.29-147-109.07
			c12.91-20.87,17.56-38.76,18.34-54.95c-1.56,5.39-3.45,10.75-5.68,16.04c-31.02,73.56-116.1,108.16-189.66,77.14
			c-46.38-19.56-77.26-60.62-85.98-106.72c-11.42,16.41-24.65,34.45-40.44,53.5c-31.84,38.41-45.9,72-51.65,97.65
			c38.21-29.46,92.57-39.86,162.17-30.9c68.37,8.8,150.66,35.46,251.55,81.51c103.4,40.11,179.93,80.43,233.95,123.25
			c53.48,42.39,83.79,87.23,90.55,133.73c1.26-31.06-7.14-70.39,18.18-87.3C1274.16,1573.46,1311.41,1554.34,1345.16,1481.02z"/>
		<path class="st9" d="M1016.51,1159.76c36.86,15.55,79.34-1.73,94.89-38.59c10.27-24.36,6.2-51.17-8.38-71.05
			c6.51,15.55,7.03,33.6-0.03,50.32c-13.92,33.01-52.1,48.54-85.11,34.62l-0.32-0.13l-0.31-0.13
			c-28.5-12.02-43.95-42.12-38.68-71.37c-0.22,0.48-0.45,0.96-0.65,1.45C962.37,1101.73,979.65,1144.22,1016.51,1159.76z"/>
	</g>
	<path class="st2" d="M535.44,1521.96c7.93-14.16,15.03-28.76,21.01-43.86c2.83-7.16,5.74-14.5,8.41-21.89l0-16.11
		c0.17-1.91,0.43-3.8,0.79-5.67c-1.12-1.31-1.81-2.99-1.82-4.85c-0.39-97.05-27.36-160.27-49.92-196.21
		c-16.87-26.89-33.84-42.93-42.79-50.34c-2.4,4.3-4.87,8.61-7.44,12.93c-31.58,53.07-64.63,88.29-66.02,89.76
		c-2.84,3.01-7.59,3.15-10.6,0.3s-3.15-7.59-0.3-10.6c0.33-0.35,33.47-35.7,64.21-87.43c28.09-47.27,59.89-118.35,51.87-188.49
		c-4.35-38.18-20.06-72.61-46.83-102.92l-51.52,82.47c-9.14,14.65-23.45,24.83-40.3,28.66c-13.29,3.02-26.88,1.81-39.18-3.38
		c-0.96-0.4-1.91-0.84-2.87-1.3c-45.48,74.71-84.73,146.58-72.25,185.36c23.52,73.05,47.06,221.64,46.64,294.42
		c-0.18,32.19,22.29,69.76,65,108.65c25.2,22.96,56.21,45.23,90.27,65.06C475.46,1609.22,507.81,1566.98,535.44,1521.96z"/>
	<path class="st4" d="M462.2,895.85c0,0,7.14,92.45-37.36,197.96c-44.5,105.51-101.47,128.24-91.89,196.3s12.09,54.68,68.6-21.28
		c56.51-75.96,99.03-11.58,108.63,72.8c9.6,84.39-6,131.79-29.02,168.52c-23.02,36.73,32.91,44.01,65.6-15.64
		c32.69-59.65,34.49-63.91,27.11-105.94c-7.38-42.03-25.93-124.54-57.91-166.27c-31.98-41.73-48.58-49.99-48.58-49.99
		s23.93-50.79,25.95-55.58c2.02-4.8,14.33-42.91,17.19-86.9C513.37,985.85,503.81,922.19,462.2,895.85z"/>
	<path class="st10" d="M424.61,857.72c0,0,27.48,12.22,26.13,27.34c-1.36,15.12-44.96,84.28-56.58,96.96
		c-11.62,12.67-21.45,16.63-38.7,16.6c-17.25-0.03-39.55-7.51-40.99-8.47c-1.44-0.96,79.49-120.77,82.92-125.18
		c3.43-4.41,7.02-12.94,10.97-14.1C412.3,849.71,424.61,857.72,424.61,857.72z"/>
	<path class="st5" d="M506.27,1684.9c-55.2-25.5-106.61-58.68-144.74-93.42c-42.7-38.89-65.18-76.46-65-108.65
		c0.41-72.78-23.12-221.36-46.64-294.42c-12.48-38.78,26.77-110.65,72.25-185.36c0.96,0.46,1.91,0.89,2.87,1.3
		c12.31,5.19,25.9,6.41,39.18,3.38c16.84-3.84,31.15-14.01,40.3-28.66l51.52-82.47c26.77,30.3,42.47,64.73,46.83,102.92
		c8.01,70.14-23.79,141.22-51.87,188.49c-30.74,51.73-63.88,87.08-64.21,87.43c-2.84,3.01-2.71,7.76,0.3,10.6s7.76,2.71,10.6-0.3
		c1.39-1.47,34.44-36.69,66.02-89.76c2.57-4.31,5.04-8.62,7.44-12.93c8.96,7.4,25.93,23.45,42.79,50.34
		c22.56,35.94,49.53,99.16,49.92,196.21c0.02,3.1,1.9,5.75,4.59,6.89c0.9,0.38,1.89,0.59,2.93,0.59c4.14-0.02,7.49-3.38,7.47-7.53
		c-0.4-101.17-28.91-167.32-52.75-205c-19.29-30.47-38.5-47.71-47.73-54.96c11.52-22.24,20.71-44.19,27.39-65.53
		c11.73-37.49,15.77-73.21,12.02-106.19c-5.08-44.52-24.25-84.2-57.16-118.5c-0.18-0.22-0.39-0.42-0.61-0.62
		c-7.53-7.79-15.78-15.32-24.73-22.54l-14.64-11.12c-3.09-2.2-6.24-4.38-9.46-6.52c-1.78-1.18-3.99-1.55-6.07-1.01
		c-2.08,0.55-3.81,1.95-4.78,3.87c-18.26,36.08-43.5,76.9-67.92,116.37c-58.35,94.32-113.46,183.4-96.77,235.22
		c23.15,71.93,46.33,218.15,45.92,289.73c-0.2,36.55,23.97,77.99,69.9,119.83c39.25,35.74,92,69.81,148.56,95.94
		c1.36,0.63,2.71,1.29,4.05,1.97c2.73-3.94,5.56-8.11,8.47-12.5C510.47,1686.91,508.39,1685.88,506.27,1684.9z M345.14,965.68
		c22.9-37.02,46.53-75.22,64.65-109.9c13.24,9.31,25.09,19.17,35.57,29.55l-53.59,85.79c-7.02,11.24-17.99,19.04-30.9,21.99
		c-10.48,2.38-21.19,1.33-30.84-2.94C335.04,982.01,340.09,973.83,345.14,965.68z"/>
	<path class="st10" d="M1389.76,880.62c-3.32-5.31-9.97-13.25-22.83-20.94c-21.69-12.97-48.56-1.73-51.67,3.09
		c-19.18,41.56-22.96,66.12-23.66,75.67c21.45,22.44,45.83,23.75,52.17,22.24c17.9-19.54,38.23-56.83,46.26-72.19l0,0
		C1391.34,885.99,1391.23,882.98,1389.76,880.62z"/>
	<path class="st2" d="M1185.7,694.11c-6.71-3.68-13.52-6.96-20.36-9.84c-36.85-15.54-74.13-19.29-97.32-8.94
		c-13.73,6.13-22.51,17.05-26.11,32.46c-11.39,48.79-17.29,168.53,20.67,224.24c11.17,16.39,25.47,25.96,42.51,28.45
		c44.58,6.51,70.38-1.99,84.17-10.27c14.56-8.74,18.96-18.77,19.14-19.19l0.07-0.17l0.05-0.1c30.2-65.55,41.59-119.65,33.85-160.78
		C1236.06,736.36,1217.52,711.55,1185.7,694.11z M1195.81,935.96l-0.93,1.03c-11.89,13.25-55.56,25.53-102.77,5.62
		c-2.07-0.87-4.13-1.8-6.21-2.8l-2.66-1.28l-1.12-2.86c-4.92-12.53-16.05-49.88-13.16-125.94c0.4-8.44,7.86-19.38,19.95-29.35
		c9.55-7.87,35.34-25.66,68.45-20.85c25.12,3.65,41.17,12.08,50.21,18.5c8.58,6.09,13.34,16.42,12.42,26.95
		c-2.3,26.36-9.21,91.76-23.68,129.68L1195.81,935.96z"/>
	<path class="st10" d="M1198.88,790.26c-7.69-5.47-21.52-12.66-43.68-15.88c-27.18-3.95-48.74,10.98-56.75,17.58
		c-10.61,8.75-14.41,16.31-14.51,18.42c-2.63,69.31,6.86,104.91,11.16,117.18c44.27,20.03,80.06,6.69,87.76,0.23
		c13.41-36.39,19.97-98.74,22.18-124.12C1205.5,798.43,1203.14,793.29,1198.88,790.26z"/>
	<path class="st2" d="M1393.28,788.88c-13.76-12.38-28.96-22.08-43.55-28.23c-15.16-6.39-29.66-8.97-41.19-6.77
		c-11.17,2.13-19.19,8.39-24.52,19.13c-17.3,34.85-43.13,124.25-24.42,172.97c5.46,14.22,14.08,23.47,26.31,28.33
		c60.67,23.99,81.11-2.21,81.95-3.34l0.16-0.24l0.01,0.02c34.51-44.18,52.76-82.97,54.24-115.3
		C1423.44,829.28,1413.97,807.5,1393.28,788.88z M1403.33,895.44L1403.33,895.44c-8.5,16.27-30.38,56.31-49.86,76.84l-0.96,1.01
		l-1.26,0.6c-7.34,3.5-22.96,3.31-39.9-3.84c-11.07-4.67-22.71-12.31-32.99-23.82l-1.97-2.2l0.06-2.95
		c0.2-9.52,3.05-36.65,25.24-84.71c4.11-8.67,17.82-13.4,21.93-14.65c8.47-2.57,30.37-7.22,50.99,5.11
		c15.43,9.23,23.66,19.16,27.85,25.86C1406.76,879.52,1407.09,888.25,1403.33,895.44z"/>
	<path class="st5" d="M1403.31,777.73c-24.19-21.77-64.27-44.94-97.59-38.58c-15.64,2.99-27.8,12.39-35.15,27.19
		c-3.05,6.14-6.92,15.35-10.91,26.6c-0.17-9.01-1.02-17.61-2.55-25.76c-7.1-37.76-28.7-66.77-64.21-86.23
		c-36.1-19.78-92.06-36.71-131-19.32c-17.98,8.03-29.95,22.81-34.6,42.74c-5.12,21.94-10.43,64.53-8.54,112.33
		c1.49,37.61,8.15,89.6,31.43,123.76c9.66,14.18,21.39,24.19,35.01,29.94c5.59,2.36,11.51,4,17.73,4.91
		c94.74,13.84,117.47-34.19,119.27-38.42c6.04-13.11,11.34-25.8,15.92-38.07c-0.47,18.97,1.55,37.16,7.46,52.53
		c6.77,17.62,18.03,29.85,33.51,36.37c0.43,0.18,0.86,0.36,1.29,0.53c70.32,27.81,97.05-5.04,99.52-8.36
		c36.43-46.64,55.72-88.29,57.34-123.77C1438.63,825.62,1427.21,799.24,1403.31,777.73z M1208.52,930.74l-0.05,0.1l-0.07,0.17
		c-0.18,0.42-4.58,10.45-19.14,19.19c-13.79,8.28-39.59,16.78-84.17,10.27c-17.04-2.49-31.34-12.06-42.51-28.45
		c-37.96-55.71-32.06-175.45-20.67-224.24c3.6-15.4,12.38-26.32,26.11-32.46c23.19-10.36,60.47-6.61,97.32,8.94
		c6.83,2.88,13.65,6.17,20.36,9.84c31.82,17.44,50.36,42.25,56.67,75.85C1250.11,811.09,1238.72,865.19,1208.52,930.74z
		 M1368.01,970.75l-0.01-0.02l-0.16,0.24c-0.84,1.13-21.28,27.33-81.95,3.34c-12.23-4.85-20.85-14.11-26.31-28.33
		c-18.71-48.72,7.12-138.12,24.42-172.97c5.33-10.74,13.35-17,24.52-19.13c11.53-2.2,26.03,0.37,41.19,6.77
		c14.59,6.15,29.79,15.85,43.55,28.23c20.69,18.62,30.17,40.39,28.97,66.57C1420.77,887.78,1402.52,926.58,1368.01,970.75z"/>
	<path class="st5" d="M1207.57,778.03c-9.04-6.42-25.09-14.84-50.21-18.5c-33.11-4.81-58.9,12.98-68.45,20.85
		c-12.09,9.97-19.55,20.91-19.95,29.35c-2.89,76.06,8.24,113.42,13.16,125.94l1.12,2.86l2.66,1.28c2.08,1,4.14,1.93,6.21,2.8
		c47.21,19.91,90.88,7.63,102.77-5.62l0.93-1.03l0.5-1.3c14.47-37.92,21.38-103.32,23.68-129.68
		C1220.91,794.45,1216.15,784.13,1207.57,778.03z M1095.11,927.56c-4.3-12.28-13.79-47.87-11.16-117.18
		c0.1-2.11,3.89-9.67,14.51-18.42c8.01-6.6,29.57-21.53,56.75-17.58c22.16,3.22,35.98,10.41,43.68,15.88
		c4.26,3.02,6.62,8.16,6.16,13.41c-2.21,25.37-8.77,87.72-22.18,124.12C1175.17,934.25,1139.38,947.59,1095.11,927.56z"/>
	<path class="st5" d="M1402.48,872.67c-4.19-6.71-12.42-16.64-27.85-25.86c-20.62-12.33-42.53-7.68-50.99-5.11
		c-4.11,1.25-17.82,5.98-21.93,14.65c-22.19,48.06-25.04,75.19-25.24,84.71l-0.06,2.95l1.97,2.2
		c10.28,11.52,21.92,19.16,32.99,23.82c16.95,7.15,32.56,7.34,39.9,3.84l1.26-0.6l0.96-1.01c19.48-20.52,41.35-60.57,49.86-76.84
		l0,0C1407.09,888.25,1406.76,879.52,1402.48,872.67z M1390.03,888.49L1390.03,888.49c-8.03,15.37-28.36,52.65-46.26,72.19
		c-6.34,1.51-30.72,0.2-52.17-22.24c0.7-9.55,4.48-34.11,23.66-75.67c3.1-4.81,29.97-16.06,51.67-3.09
		c12.86,7.69,19.51,15.63,22.83,20.94C1391.23,882.98,1391.34,885.99,1390.03,888.49z"/>
	<path class="st4" d="M1230.9,737.3c-12.39-15.02-33.8-32.31-68.57-37.14c-64.92-9.02-92.05,37.44-93.54,65.52
		c-1.38,25.94,27.51-16.06,56.4-4.16c9.53-2.55,20.38-3.71,32.17-1.99c25.12,3.65,41.17,12.08,50.21,18.5
		c8.58,6.09,13.34,16.42,12.42,26.95c-2.3,26.36-9.21,91.76-23.68,129.68l-0.5,1.3l-0.93,1.03c-11.89,13.25-55.56,25.53-102.77,5.62
		c-2.07-0.87-4.13-1.8-6.21-2.8l-2.66-1.28l-1.12-2.86c-1.21-3.07-2.78-7.64-4.44-13.89c-4.6-4.43-10.02-13.94-14.71-29.58
		c-9.11-30.37-18.28-4.93-9.18,24.18c2.63,5.62,5.55,10.87,8.8,15.63c11.17,16.39,25.47,25.96,42.51,28.45
		c44.58,6.51,70.38-1.99,84.17-10.27c14.56-8.74,18.96-18.77,19.14-19.19l0.07-0.17l0.05-0.1c30.2-65.55,41.59-119.65,33.85-160.78
		C1240.12,757.97,1236.31,747.11,1230.9,737.3z"/>
	<path class="st4" d="M1393.28,788.88c-6.92-6.22-14.2-11.77-21.58-16.53c-6.75-0.27-11.77,3.84-8.71,19.03
		c7.15,35.5-0.17,30.53,10.2,40.55c10.37,10.02-6.02,3.11-24.19-2.91s-45.77,9.18-52.54,29.15c-6.78,19.97-21.88,52.44-23.96,66.86
		c-1.48,10.28-9.07,17.74-14.86,15.15c0.59,1.99,1.24,3.93,1.96,5.8c5.46,14.22,14.08,23.47,26.31,28.33
		c60.67,23.99,81.11-2.21,81.95-3.34l0.16-0.24l0.01,0.02c34.51-44.18,52.76-82.97,54.24-115.3
		C1423.44,829.28,1413.97,807.5,1393.28,788.88z M1403.33,895.44L1403.33,895.44c-8.5,16.27-30.38,56.31-49.86,76.84l-0.96,1.01
		l-1.26,0.6c-7.34,3.5-22.96,3.31-39.9-3.84c-11.07-4.67-22.71-12.31-32.99-23.82l-1.97-2.2l0.06-2.95
		c0.2-9.52,3.05-36.65,25.24-84.71c4.11-8.67,17.82-13.4,21.93-14.65c8.47-2.57,30.37-7.22,50.99,5.11
		c15.43,9.23,23.66,19.16,27.85,25.86C1406.76,879.52,1407.09,888.25,1403.33,895.44z"/>
	<path class="st3" d="M468.96,1625.26c-18.52-5.63-40.26-12.19-71.58-29.93c-58.51-33.15,18.06-78.53,39.9-152.64
		s-38.8-92.15-62.99-69.4c-24.19,22.75-35.78,65.87-49.67,28.48c-13.88-37.4-17.53-66.7-24.8-113.08
		c-7.27-46.37-29.87-122.28-18.4-149.45c11.46-27.18,40.16-97.45,57.45-100.51c17.3-3.06,41.09-4.79,65.96-38.08
		c20.98-28.08,32.88-61.66,28.73-68.09l-29.06,46.52c-9.14,14.65-23.45,24.83-40.3,28.66c-13.29,3.02-26.88,1.81-39.18-3.38
		c-0.96-0.4-1.91-0.84-2.87-1.3c-45.48,74.71-84.73,146.58-72.25,185.36c23.52,73.05,47.06,221.64,46.64,294.42
		c-0.18,32.19,22.29,69.76,65,108.65c25.2,22.96,56.21,45.23,90.27,65.06C457.13,1645.88,462.9,1635.49,468.96,1625.26z"/>
</g>
</svg>
