<svg width="96" height="96" viewBox="0 0 96 96" fill="none" xmlns="http://www.w3.org/2000/svg">
<path d="M43.6178 59.7718C43.0228 56.9236 45.0903 54 48 54C50.9097 54 52.9772 56.9236 52.3822 59.7718C51.8239 62.444 51.4595 65.5595 52 68C53.5155 74.8421 60 82 60 82H36C36 82 42.4845 74.8421 44 68C44.5405 65.5595 44.1761 62.444 43.6178 59.7718Z" fill="#F6B307"/>
<path fill-rule="evenodd" clip-rule="evenodd" d="M61.8284 82.8107C61.5077 83.5338 60.791 84 60 84H36C35.209 84 34.4923 83.5338 34.1717 82.8107C33.8512 82.0878 33.9867 81.2439 34.5174 80.6577L36 82H60C60 82 59.3193 81.2486 58.3475 80C56.3197 77.3949 53.0245 72.6253 52 68C51.4595 65.5595 51.824 62.444 52.3822 59.7718C52.9773 56.9236 50.9097 54 48 54C45.0903 54 43.0228 56.9236 43.6178 59.7718C44.1761 62.444 44.5406 65.5595 44 68C42.9756 72.6253 39.6804 77.3949 37.6526 80C36.6808 81.2486 36 82 36 82M34.5174 80.6577L34.5288 80.645L34.5754 80.5926C34.6178 80.5447 34.6826 80.4709 34.7669 80.3731C34.9356 80.1775 35.182 79.8863 35.4842 79.5141C36.0896 78.7684 36.9134 77.704 37.7814 76.436C39.5472 73.8567 41.3733 70.6107 42.0474 67.5675C42.4913 65.563 42.207 62.7986 41.6601 60.1808C40.8445 56.2767 43.6377 52 48 52C52.3624 52 55.1556 56.2767 54.34 60.1808C53.7931 62.7986 53.5087 65.563 53.9527 67.5675C54.6268 70.6107 56.4529 73.8567 58.2187 76.436C59.0867 77.704 59.9105 78.7684 60.5159 79.5141C60.818 79.8863 61.0645 80.1775 61.2332 80.3731C61.3175 80.4709 61.3822 80.5447 61.4247 80.5926L61.4713 80.645L61.4822 80.6572C62.013 81.2434 62.1489 82.0878 61.8284 82.8107" fill="#5B3303"/>
<path fill-rule="evenodd" clip-rule="evenodd" d="M56 82H60C60 82 53.5155 74.8421 52 68C51.4595 65.5595 51.8239 62.444 52.3822 59.7718C52.9773 56.9236 50.9097 54 48 54C47.3422 54 46.7274 54.1494 46.1768 54.4136C47.6429 55.1096 48.3822 56.7449 48.3822 59.7718C48.3822 63.5805 48.4595 69.0595 49 71.5C50.5155 78.3421 56 82 56 82Z" fill="#C18B00"/>
<path fill-rule="evenodd" clip-rule="evenodd" d="M44.7426 71.5298C45.2784 71.6638 45.6042 72.2067 45.4702 72.7425C44.9362 74.8786 43.8797 76.9833 42.8322 78.5547C42.5258 79.0142 41.9049 79.1384 41.4454 78.832C40.9859 78.5257 40.8617 77.9048 41.1681 77.4453C42.1205 76.0167 43.064 74.1214 43.53 72.2575C43.6639 71.7217 44.2068 71.3959 44.7426 71.5298Z" fill="#FFCB43"/>
<path fill-rule="evenodd" clip-rule="evenodd" d="M77 38C83.0751 38 88 33.0751 88 27C88 20.9249 83.0751 16 77 16C70.9249 16 66 20.9249 66 27C66 33.0751 70.9249 38 77 38ZM77 33C80.3137 33 83 30.3137 83 27C83 23.6863 80.3137 21 77 21C73.6863 21 71 23.6863 71 27C71 30.3137 73.6863 33 77 33Z" fill="#F6B307"/>
<path fill-rule="evenodd" clip-rule="evenodd" d="M90 27C90 34.1797 84.1797 40 77 40C69.8203 40 64 34.1797 64 27C64 19.8203 69.8203 14 77 14C84.1797 14 90 19.8203 90 27ZM77 31C79.2091 31 81 29.2091 81 27C81 24.7909 79.2091 23 77 23C74.7909 23 73 24.7909 73 27C73 29.2091 74.7909 31 77 31ZM88 27C88 33.0751 83.0751 38 77 38C70.9249 38 66 33.0751 66 27C66 20.9249 70.9249 16 77 16C83.0751 16 88 20.9249 88 27ZM83 27C83 30.3137 80.3137 33 77 33C73.6863 33 71 30.3137 71 27C71 23.6863 73.6863 21 77 21C80.3137 21 83 23.6863 83 27Z" fill="#5B3303"/>
<path fill-rule="evenodd" clip-rule="evenodd" d="M87.0002 25C87.0002 31.0751 82.0753 36 76.0002 36C72.0909 36 68.658 33.9607 66.707 30.8879C68.2778 35.0443 72.2938 38 77.0002 38C83.0753 38 88.0002 33.0751 88.0002 27C88.0002 24.8341 87.3743 22.8145 86.2934 21.1121C86.7502 22.3209 87.0002 23.6312 87.0002 25ZM71.2253 28.6338C71.0787 28.1144 71.0002 27.5663 71.0002 27C71.0002 23.6863 73.6865 21 77.0002 21C78.948 21 80.679 21.9281 81.7751 23.3662C81.0636 20.8465 78.7476 19 76.0002 19C72.6865 19 70.0002 21.6863 70.0002 25C70.0002 26.3659 70.4567 27.6253 71.2253 28.6338Z" fill="#D29700"/>
<path fill-rule="evenodd" clip-rule="evenodd" d="M19 38C25.0751 38 30 33.0751 30 27C30 20.9249 25.0751 16 19 16C12.9249 16 8 20.9249 8 27C8 33.0751 12.9249 38 19 38ZM19 33C22.3137 33 25 30.3137 25 27C25 23.6863 22.3137 21 19 21C15.6863 21 13 23.6863 13 27C13 30.3137 15.6863 33 19 33Z" fill="#F6B307"/>
<path fill-rule="evenodd" clip-rule="evenodd" d="M32 27C32 34.1797 26.1797 40 19 40C11.8203 40 6 34.1797 6 27C6 19.8203 11.8203 14 19 14C26.1797 14 32 19.8203 32 27ZM19 31C21.2091 31 23 29.2091 23 27C23 24.7909 21.2091 23 19 23C16.7909 23 15 24.7909 15 27C15 29.2091 16.7909 31 19 31ZM30 27C30 33.0751 25.0751 38 19 38C12.9249 38 8 33.0751 8 27C8 20.9249 12.9249 16 19 16C25.0751 16 30 20.9249 30 27ZM25 27C25 30.3137 22.3137 33 19 33C15.6863 33 13 30.3137 13 27C13 23.6863 15.6863 21 19 21C22.3137 21 25 23.6863 25 27Z" fill="#5B3303"/>
<path fill-rule="evenodd" clip-rule="evenodd" d="M27.2622 34.2622C25.3248 35.9664 22.7831 37 20 37C13.9249 37 9 32.0751 9 26C9 23.2169 10.0336 20.6752 11.7378 18.7378C9.44614 20.7537 8 23.7079 8 27C8 33.0751 12.9249 38 19 38C22.292 38 25.2463 36.5538 27.2622 34.2622ZM15.2867 22.2867C16.3082 21.4809 17.5979 21 19 21C22.3137 21 25 23.6863 25 27C25 28.402 24.5191 29.6918 23.7133 30.7132C25.106 29.6145 26 27.9116 26 26C26 22.6863 23.3137 20 20 20C18.0883 20 16.3855 20.894 15.2867 22.2867Z" fill="#D29700"/>
<path d="M20 22C20 17.5817 23.5817 14 28 14H68C72.4183 14 76 17.5817 76 22V34C76 49.464 63.464 62 48 62C32.536 62 20 49.464 20 34V22Z" fill="#FFCF23"/>
<path fill-rule="evenodd" clip-rule="evenodd" d="M28 12H68C73.5228 12 78 16.4772 78 22V34C78 50.5685 64.5685 64 48 64C31.4315 64 18 50.5685 18 34V22C18 16.4772 22.4772 12 28 12ZM28 14C23.5817 14 20 17.5817 20 22V34C20 49.464 32.536 62 48 62C63.464 62 76 49.464 76 34V22C76 17.5817 72.4183 14 68 14H28Z" fill="#5B3303"/>
<path fill-rule="evenodd" clip-rule="evenodd" d="M41 61.1179C43.2373 61.6937 45.5829 62 48 62C63.464 62 76 49.464 76 34V14H62V34C62 47.0469 53.0766 58.0096 41 61.1179Z" fill="#FFC429"/>
<path d="M20 14V34C20 43.5458 24.7768 51.9759 32.0705 57.0303C35.5398 59.4344 42.127 51.1894 42.0185 46.9699C42.0059 46.4805 42 45.99 42 45.5V14H20Z" fill="#FFDB5B"/>
<path fill-rule="evenodd" clip-rule="evenodd" d="M33.5342 57.9786C37.7561 60.5311 42.7065 62 48 62C63.464 62 76 49.464 76 34V14H71.9997V32C71.9997 47.464 59.4637 60 43.9998 60C40.2997 60 36.7673 59.2823 33.5342 57.9786Z" fill="#F5B40C"/>
<path d="M76 14H20V18H76V14Z" fill="#D29803"/>
<path fill-rule="evenodd" clip-rule="evenodd" d="M24 17C25.1046 17 26 17.8954 26 19C26 25.799 26.0041 31.2688 26.6065 35.6661C27.2065 40.0461 28.3634 43.0351 30.4141 45.0858C31.1951 45.8669 31.1951 47.1332 30.4141 47.9142C29.633 48.6953 28.3667 48.6953 27.5856 47.9142C24.6365 44.9649 23.2935 40.9539 22.6435 36.2089C22 31.511 22 25.7736 22 19.1264L22 19C22 17.8954 22.8954 17 24 17Z" fill="#FFEBA6"/>
<path fill-rule="evenodd" clip-rule="evenodd" d="M23.9999 20C24.5522 20 24.9999 20.4477 24.9999 21C24.9999 22.3147 24.9888 23.0965 24.9798 23.7317C24.9661 24.6984 24.9572 25.3254 24.9996 26.9743C25.0138 27.5264 24.5777 27.9855 24.0256 27.9997C23.4735 28.0138 23.0144 27.5778 23.0002 27.0257C22.9571 25.3458 22.9665 24.6656 22.9804 23.6618C22.9892 23.0211 22.9999 22.2486 22.9999 21C22.9999 20.4477 23.4476 20 23.9999 20Z" fill="white"/>
<path d="M28 84C28 82.8954 28.8954 82 30 82H66C67.1046 82 68 82.8954 68 84C68 85.1046 67.1046 86 66 86H30C28.8954 86 28 85.1046 28 84Z" fill="#FFD84F"/>
<path fill-rule="evenodd" clip-rule="evenodd" d="M30 80H66C68.2091 80 70 81.7909 70 84C70 86.2091 68.2091 88 66 88H30C27.7909 88 26 86.2091 26 84C26 81.7909 27.7909 80 30 80ZM30 82C28.8954 82 28 82.8954 28 84C28 85.1046 28.8954 86 30 86H66C67.1046 86 68 85.1046 68 84C68 82.8954 67.1046 82 66 82H30Z" fill="#5B3303"/>
<path d="M12 12C12 10.8954 12.8954 10 14 10H82C83.1046 10 84 10.8954 84 12C84 13.1046 83.1046 14 82 14H14C12.8954 14 12 13.1046 12 12Z" fill="#FFD84F"/>
<path fill-rule="evenodd" clip-rule="evenodd" d="M14 8H82C84.2091 8 86 9.79086 86 12C86 14.2091 84.2091 16 82 16H14C11.7909 16 10 14.2091 10 12C10 9.79086 11.7909 8 14 8ZM14 10C12.8954 10 12 10.8954 12 12C12 13.1046 12.8954 14 14 14H82C83.1046 14 84 13.1046 84 12C84 10.8954 83.1046 10 82 10H14Z" fill="#5B3303"/>
<path fill-rule="evenodd" clip-rule="evenodd" d="M14 11.5C14 10.9477 14.4477 10.5 15 10.5H66C66.5523 10.5 67 10.9477 67 11.5C67 12.0523 66.5523 12.5 66 12.5H15C14.4477 12.5 14 12.0523 14 11.5Z" fill="#FFEBA6"/>
<path fill-rule="evenodd" clip-rule="evenodd" d="M29 83C29 82.4477 29.4477 82 30 82H59C59.5523 82 60 82.4477 60 83C60 83.5523 59.5523 84 59 84H30C29.4477 84 29 83.5523 29 83Z" fill="#FFEBA6"/>
<path fill-rule="evenodd" clip-rule="evenodd" d="M20 11.5C20 10.9477 20.4477 10.5 21 10.5H27C27.5523 10.5 28 10.9477 28 11.5C28 12.0523 27.5523 12.5 27 12.5H21C20.4477 12.5 20 12.0523 20 11.5Z" fill="white"/>
<path d="M58 54.5C58 55.3284 57.3284 56 56.5 56C55.6716 56 55 55.3284 55 54.5C55 53.6716 55.6716 53 56.5 53C57.3284 53 58 53.6716 58 54.5Z" fill="#E6A809"/>
<path d="M63 51C63 51.5523 62.5523 52 62 52C61.4477 52 61 51.5523 61 51C61 50.4477 61.4477 50 62 50C62.5523 50 63 50.4477 63 51Z" fill="#E6A809"/>
<path d="M55 58C55 58.5523 54.5523 59 54 59C53.4477 59 53 58.5523 53 58C53 57.4477 53.4477 57 54 57C54.5523 57 55 57.4477 55 58Z" fill="#E6A809"/>
<path d="M52 55C52 55.5523 51.5523 56 51 56C50.4477 56 50 55.5523 50 55C50 54.4477 50.4477 54 51 54C51.5523 54 52 54.4477 52 55Z" fill="#E6A809"/>
<path d="M48 58C48 58.5523 47.5523 59 47 59C46.4477 59 46 58.5523 46 58C46 57.4477 46.4477 57 47 57C47.5523 57 48 57.4477 48 58Z" fill="#E6A809"/>
<path d="M72 44C72 44.5523 71.5523 45 71 45C70.4477 45 70 44.5523 70 44C70 43.4477 70.4477 43 71 43C71.5523 43 72 43.4477 72 44Z" fill="#E6A809"/>
<path d="M63 47C63 47.5523 62.5523 48 62 48C61.4477 48 61 47.5523 61 47C61 46.4477 61.4477 46 62 46C62.5523 46 63 46.4477 63 47Z" fill="#E6A809"/>
<path d="M73 39C73 39.5523 72.5523 40 72 40C71.4477 40 71 39.5523 71 39C71 38.4477 71.4477 38 72 38C72.5523 38 73 38.4477 73 39Z" fill="#E6A809"/>
<path d="M58 49C58 49.5523 57.5523 50 57 50C56.4477 50 56 49.5523 56 49C56 48.4477 56.4477 48 57 48C57.5523 48 58 48.4477 58 49Z" fill="#E6A809"/>
<path d="M62 55C62 55.5523 61.5523 56 61 56C60.4477 56 60 55.5523 60 55C60 54.4477 60.4477 54 61 54C61.5523 54 62 54.4477 62 55Z" fill="#E6A809"/>
<path d="M68 51C68 51.5523 67.5523 52 67 52C66.4477 52 66 51.5523 66 51C66 50.4477 66.4477 50 67 50C67.5523 50 68 50.4477 68 51Z" fill="#E6A809"/>
<path d="M66 47C66 47.5523 65.5523 48 65 48C64.4477 48 64 47.5523 64 47C64 46.4477 64.4477 46 65 46C65.5523 46 66 46.4477 66 47Z" fill="#E6A809"/>
<path d="M70 46.5C70 46.7761 69.7761 47 69.5 47C69.2239 47 69 46.7761 69 46.5C69 46.2239 69.2239 46 69.5 46C69.7761 46 70 46.2239 70 46.5Z" fill="#E6A809"/>
<path d="M69 42.5C69 42.7761 68.7761 43 68.5 43C68.2239 43 68 42.7761 68 42.5C68 42.2239 68.2239 42 68.5 42C68.7761 42 69 42.2239 69 42.5Z" fill="#E6A809"/>
<path d="M66 43.5C66 43.7761 65.7761 44 65.5 44C65.2239 44 65 43.7761 65 43.5C65 43.2239 65.2239 43 65.5 43C65.7761 43 66 43.2239 66 43.5Z" fill="#E6A809"/>
<path d="M69 39.5C69 39.7761 68.7761 40 68.5 40C68.2239 40 68 39.7761 68 39.5C68 39.2239 68.2239 39 68.5 39C68.7761 39 69 39.2239 69 39.5Z" fill="#E6A809"/>
<path d="M63 43.5C63 43.7761 62.7761 44 62.5 44C62.2239 44 62 43.7761 62 43.5C62 43.2239 62.2239 43 62.5 43C62.7761 43 63 43.2239 63 43.5Z" fill="#E6A809"/>
<path d="M47 54.5C47 54.7761 46.7761 55 46.5 55C46.2239 55 46 54.7761 46 54.5C46 54.2239 46.2239 54 46.5 54C46.7761 54 47 54.2239 47 54.5Z" fill="#E6A809"/>
<path d="M68 47.5C68 47.7761 67.7761 48 67.5 48C67.2239 48 67 47.7761 67 47.5C67 47.2239 67.2239 47 67.5 47C67.7761 47 68 47.2239 68 47.5Z" fill="#E6A809"/>
<path d="M65 53.5C65 53.7761 64.7761 54 64.5 54C64.2239 54 64 53.7761 64 53.5C64 53.2239 64.2239 53 64.5 53C64.7761 53 65 53.2239 65 53.5Z" fill="#E6A809"/>
<path d="M60 51.5C60 51.7761 59.7761 52 59.5 52C59.2239 52 59 51.7761 59 51.5C59 51.2239 59.2239 51 59.5 51C59.7761 51 60 51.2239 60 51.5Z" fill="#E6A809"/>
<path d="M55 51.5C55 51.7761 54.7761 52 54.5 52C54.2239 52 54 51.7761 54 51.5C54 51.2239 54.2239 51 54.5 51C54.7761 51 55 51.2239 55 51.5Z" fill="#E6A809"/>
<path d="M51 58.5C51 58.7761 50.7761 59 50.5 59C50.2239 59 50 58.7761 50 58.5C50 58.2239 50.2239 58 50.5 58C50.7761 58 51 58.2239 51 58.5Z" fill="#E6A809"/>
<path fill-rule="evenodd" clip-rule="evenodd" d="M16.3946 18.0528C16.6416 18.5468 16.4413 19.1474 15.9474 19.3944C15.0333 19.8514 13.802 20.6391 12.8 21.975C11.8084 23.2971 11 25.2103 11 28C11 28.5523 10.5523 29 10 29C9.44772 29 9 28.5523 9 28C9 24.7897 9.94158 22.4529 11.2 20.775C12.4481 19.1109 13.9669 18.1485 15.053 17.6055C15.547 17.3586 16.1476 17.5588 16.3946 18.0528Z" fill="#FFD953"/>
<path d="M38 33.6L44.25 32.3333L46.125 29.1667L48 26L51.75 32.3333L58 33.6L53 38.6667L54.25 45L48 41.8333L41.75 45L43 38.6667L38 33.6Z" fill="#FFEBA6"/>
<path fill-rule="evenodd" clip-rule="evenodd" d="M44.25 32.3333L48 26L51.75 32.3333L58 33.6L53 38.6667L54.25 45L48 41.8333L41.75 45L43 38.6667L38 33.6L44.25 32.3333ZM40.8329 39.318L36.5765 35.0048C36.0607 34.4822 35.8728 33.7189 36.087 33.0165C36.3013 32.3142 36.8831 31.7857 37.6028 31.6399L42.9819 30.5497L46.2791 24.981C46.6391 24.3729 47.2934 24 48 24C48.7067 24 49.361 24.3729 49.721 24.981L53.0182 30.5497L58.3973 31.6399C59.117 31.7857 59.6988 32.3142 59.9131 33.0165C60.1273 33.7189 59.9394 34.4822 59.4236 35.0048L55.1672 39.318L56.2122 44.6127C56.3603 45.3631 56.0675 46.1323 55.4578 46.5942C54.8481 47.056 54.0284 47.1298 53.3461 46.7841L48 44.0754L42.654 46.7841C41.9717 47.1298 41.152 47.056 40.5423 46.5942C39.9326 46.1323 39.6398 45.3631 39.7879 44.6127L40.8329 39.318Z" fill="#F5B40C"/>
<path fill-rule="evenodd" clip-rule="evenodd" d="M48.4473 29.1055C48.9413 29.3525 49.1415 29.9532 48.8945 30.4472L46.8945 34.4472C46.7428 34.7506 46.4477 34.9564 46.1105 34.9939L41.6105 35.4939C41.0616 35.5548 40.5672 35.1593 40.5062 34.6104C40.4452 34.0615 40.8407 33.5671 41.3897 33.5061L45.349 33.0662L47.1057 29.5528C47.3527 29.0588 47.9533 28.8586 48.4473 29.1055Z" fill="white"/>
</svg>
