<svg width="96" height="96" viewBox="0 0 96 96" fill="none" xmlns="http://www.w3.org/2000/svg">
<path d="M16 46C16 28.3269 30.3269 14 48 14C65.6731 14 80 28.3269 80 46V86.549C80 87.3504 79.3504 88 78.549 88H17.451C16.6496 88 16 87.3504 16 86.549V46Z" fill="#6B6373"/>
<path fill-rule="evenodd" clip-rule="evenodd" d="M14 46C14 27.2223 29.2223 12 48 12C66.7777 12 82 27.2223 82 46V86.549C82 88.4549 80.4549 90 78.549 90H17.451C15.5451 90 14 88.4549 14 86.549V46ZM48 14C30.3269 14 16 28.3269 16 46V86.549C16 87.3504 16.6496 88 17.451 88H78.549C79.3504 88 80 87.3504 80 86.549V46C80 28.3269 65.6731 14 48 14Z" fill="#2D2A3C"/>
<path fill-rule="evenodd" clip-rule="evenodd" d="M16.0658 34C14.7348 34 13.7755 32.7229 14.2386 31.4751C16.4207 25.5956 20.0946 20.4409 24.8007 16.471C25.7145 15.7001 27.0846 15.9862 27.6824 17.0216L30.7542 22.3423C31.2453 23.1929 31.0401 24.2682 30.3201 24.9363C27.9317 27.1523 25.9604 29.8117 24.5372 32.7835C24.1885 33.5115 23.4669 34 22.6598 34H16.0658ZM13.965 41C12.9242 41 12.0513 41.7983 12.0184 42.8386C12.0062 43.2242 12 43.6114 12 44V55C12 56.1046 12.8954 57 14 57H20C21.1046 57 22 56.1046 22 55V44C22 43.7446 22.0037 43.4901 22.011 43.2365C22.0454 42.042 21.1233 41 19.9283 41H13.965ZM76.0717 41C74.8767 41 73.9546 42.042 73.989 43.2365C73.9963 43.4901 74 43.7446 74 44V55C74 56.1046 74.8954 57 76 57H82C83.1046 57 84 56.1046 84 55V44C84 43.6114 83.9938 43.2242 83.9816 42.8386C83.9486 41.7983 83.0758 41 82.035 41H76.0717ZM79.9342 34C81.2652 34 82.2245 32.7229 81.7614 31.4751C79.5793 25.5956 75.9053 20.4409 71.1993 16.471C70.2855 15.7001 68.9154 15.9862 68.3176 17.0216L65.2458 22.3423C64.7547 23.1929 64.9599 24.2682 65.6799 24.9363C68.0683 27.1523 70.0396 29.8117 71.4628 32.7835C71.8115 33.5115 72.5331 34 73.3402 34H79.9342ZM48 18C44.9286 18 41.9815 18.5326 39.2462 19.5104C38.2868 19.8534 37.198 19.5033 36.6886 18.6209L33.643 13.3459C33.0594 12.3349 33.4605 11.036 34.5432 10.5994C38.7004 8.92288 43.2424 8 48 8C52.7576 8 57.2996 8.92288 61.4568 10.5994C62.5395 11.036 62.9406 12.3349 62.3569 13.3459L59.3114 18.6209C58.802 19.5033 57.7132 19.8534 56.7538 19.5104C54.0185 18.5326 51.0714 18 48 18ZM14 84C12.8954 84 12 83.1046 12 82V66C12 64.8954 12.8954 64 14 64H20C21.1046 64 22 64.8954 22 66V82C22 83.1046 21.1046 84 20 84H14ZM76 84C74.8954 84 74 83.1046 74 82V66C74 64.8954 74.8954 64 76 64H82C83.1046 64 84 64.8954 84 66V82C84 83.1046 83.1046 84 82 84H76Z" fill="#829095"/>
<path fill-rule="evenodd" clip-rule="evenodd" d="M12.3636 30.7792C14.6678 24.5706 18.5459 19.1308 23.5111 14.9423C25.4434 13.3121 28.2381 13.9841 29.4144 16.0216L32.4863 21.3423C33.4825 23.0677 33.0263 25.1536 31.6804 26.4024C29.4743 28.4493 27.6544 30.905 26.341 33.6474C25.6854 35.0163 24.2942 36 22.6598 36H16.0658C13.4578 36 11.3758 33.4408 12.3636 30.7792ZM10 44C10 43.5903 10.0065 43.182 10.0194 42.7753C10.0886 40.5909 11.9103 39 13.965 39H19.9283C22.3602 39 24.0738 41.0859 24.0102 43.2942C24.0034 43.5286 24 43.7639 24 44V55C24 57.2091 22.2091 59 20 59H14C11.7909 59 10 57.2091 10 55V44ZM72 44C72 43.7639 71.9966 43.5286 71.9898 43.2942C71.9262 41.0859 73.6398 39 76.0717 39H82.035C84.0897 39 85.9114 40.5909 85.9806 42.7753C85.9935 43.182 86 43.5903 86 44V55C86 57.2091 84.2091 59 82 59H76C73.7909 59 72 57.2091 72 55V44ZM72.4889 14.9423C77.4541 19.1308 81.3322 24.5706 83.6364 30.7792C84.6242 33.4408 82.5421 36 79.9342 36H73.3402C71.7058 36 70.3146 35.0163 69.659 33.6474C68.3456 30.905 66.5257 28.4493 64.3196 26.4024C62.9737 25.1536 62.5175 23.0677 63.5137 21.3423L66.5856 16.0216C67.7619 13.9841 70.5565 13.3121 72.4889 14.9423ZM48 20C45.1612 20 42.4418 20.492 39.9194 21.3937C38.1306 22.0332 35.9906 21.4119 34.9566 19.6209L31.911 14.3459C30.7619 12.3556 31.5075 9.6671 33.7951 8.74454C38.1861 6.97378 42.9818 6 48 6C53.0182 6 57.8139 6.97378 62.2049 8.74454C64.4925 9.6671 65.2381 12.3556 64.089 14.3459L61.0434 19.6209C60.0094 21.4119 57.8694 22.0332 56.0806 21.3937C53.5582 20.492 50.8388 20 48 20ZM10 82V66C10 63.7909 11.7909 62 14 62H20C22.2091 62 24 63.7909 24 66V82C24 84.2091 22.2091 86 20 86H14C11.7909 86 10 84.2091 10 82ZM72 82V66C72 63.7909 73.7909 62 76 62H82C84.2091 62 86 63.7909 86 66V82C86 84.2091 84.2091 86 82 86H76C73.7909 86 72 84.2091 72 82ZM14.2386 31.4751C13.7755 32.7229 14.7348 34 16.0658 34H22.6598C23.4669 34 24.1885 33.5115 24.5372 32.7835C25.9605 29.8117 27.9317 27.1523 30.3201 24.9363C31.0401 24.2682 31.2453 23.1929 30.7542 22.3423L27.6824 17.0216C27.0846 15.9862 25.7145 15.7001 24.8007 16.471C20.0946 20.4409 16.4207 25.5956 14.2386 31.4751ZM12.0184 42.8386C12.0513 41.7983 12.9242 41 13.965 41H19.9283C21.1233 41 22.0454 42.042 22.011 43.2365C22.0037 43.4901 22 43.7446 22 44V55C22 56.1046 21.1046 57 20 57H14C12.8954 57 12 56.1046 12 55V44C12 43.6114 12.0062 43.2242 12.0184 42.8386ZM73.989 43.2365C73.9546 42.042 74.8767 41 76.0717 41H82.035C83.0758 41 83.9486 41.7983 83.9816 42.8386C83.9938 43.2242 84 43.6114 84 44V55C84 56.1046 83.1046 57 82 57H76C74.8954 57 74 56.1046 74 55V44C74 43.7446 73.9963 43.4901 73.989 43.2365ZM81.7614 31.4751C82.2245 32.7229 81.2652 34 79.9342 34H73.3402C72.5331 34 71.8115 33.5115 71.4628 32.7835C70.0396 29.8117 68.0683 27.1523 65.6799 24.9363C64.9599 24.2682 64.7547 23.1929 65.2458 22.3423L68.3176 17.0216C68.9154 15.9862 70.2855 15.7001 71.1993 16.471C75.9053 20.4409 79.5793 25.5956 81.7614 31.4751ZM39.2462 19.5104C41.9815 18.5326 44.9286 18 48 18C51.0714 18 54.0185 18.5326 56.7538 19.5104C57.7132 19.8534 58.802 19.5033 59.3114 18.6209L62.3569 13.3459C62.9406 12.3349 62.5395 11.036 61.4568 10.5994C57.2996 8.92288 52.7576 8 48 8C43.2424 8 38.7004 8.92288 34.5432 10.5994C33.4605 11.036 33.0594 12.3349 33.643 13.3459L36.6886 18.6209C37.198 19.5033 38.2868 19.8534 39.2462 19.5104ZM12 82C12 83.1046 12.8954 84 14 84H20C21.1046 84 22 83.1046 22 82V66C22 64.8954 21.1046 64 20 64H14C12.8954 64 12 64.8954 12 66V82ZM74 82C74 83.1046 74.8954 84 76 84H82C83.1046 84 84 83.1046 84 82V66C84 64.8954 83.1046 64 82 64H76C74.8954 64 74 64.8954 74 66V82Z" fill="#303A3E"/>
<path d="M26 44C26 31.8497 35.8497 22 48 22L-nan -nanL48 22C60.1503 22 70 31.8497 70 44V88H26V44Z" fill="#1D9DB9"/>
<path fill-rule="evenodd" clip-rule="evenodd" d="M72 90H24V44C24 30.7452 34.7452 20 48 20C61.2548 20 72 30.7452 72 44V90ZM48 22C35.8497 22 26 31.8497 26 44V88H70V44C70 31.8497 60.1503 22 48 22Z" fill="#2D2A3B"/>
<path fill-rule="evenodd" clip-rule="evenodd" d="M47 22.0225C43.3681 22.1849 39.9653 23.228 37 24.9433V88.0001H47V22.0225ZM49 88.0001H59V24.9433C56.0347 23.228 52.6319 22.1849 49 22.0225V88.0001ZM26 44.0001C26 36.7131 29.5428 30.2536 35 26.2501V88.0001H26V44.0001ZM61 88.0001H70V44.0001C70 36.7131 66.4572 30.2536 61 26.2501V88.0001Z" fill="#50E0D8"/>
<path fill-rule="evenodd" clip-rule="evenodd" d="M35 43.1593C28.9472 49.6441 28.0103 58.9193 27.129 67.6451C26.8191 70.7131 26.5161 73.7131 26 76.5V44.0001C26 36.7131 29.5428 30.2536 35 26.2501V43.1593ZM47 36.2301C45.905 36.5832 44.7402 37.0039 43.5 37.5C40.9277 38.5289 38.7875 39.8063 37 41.2798V24.9433C39.9653 23.228 43.3681 22.1849 47 22.0225V36.2301ZM59 35.0845C56.6529 34.4765 53.4807 34.4375 49 35.6383V22.0225C52.6319 22.1849 56.0347 23.228 59 24.9433V35.0845ZM69.9652 42.7525C68.361 41.3591 67.1372 40.3186 66.5 40C65.9219 39.711 65.3624 39.1806 64.7106 38.5627C63.774 37.6749 62.6468 36.6063 61 35.8134V26.2501C66.1436 30.0236 69.5865 35.9789 69.9652 42.7525Z" fill="#7CEDE6"/>
<path fill-rule="evenodd" clip-rule="evenodd" d="M37 28.8555C39.7958 26.6436 42.6934 25.6923 44.603 25.4948C45.1523 25.4379 45.5516 24.9465 45.4948 24.3972C45.4379 23.8478 44.9465 23.4486 44.3972 23.5054C42.4193 23.71 39.7053 24.5631 37 26.3822V28.8555ZM35 30.6939C32.1468 33.7287 29.7078 38.3289 28.9946 45.1048C28.9368 45.654 28.4446 46.0524 27.8954 45.9946C27.3461 45.9368 26.9478 45.4446 27.0056 44.8954C27.8836 36.554 31.2487 31.1937 35 27.9189V30.6939Z" fill="#CEFFFC"/>
<path d="M56 58C56 59.1046 55.1046 60 54 60C52.8954 60 52 59.1046 52 58C52 56.8954 52.8954 56 54 56C55.1046 56 56 56.8954 56 58Z" fill="#114178"/>
<path fill-rule="evenodd" clip-rule="evenodd" d="M58 58C58 60.2091 56.2091 62 54 62C51.7909 62 50 60.2091 50 58C50 55.7909 51.7909 54 54 54C56.2091 54 58 55.7909 58 58ZM54 60C55.1046 60 56 59.1046 56 58C56 56.8954 55.1046 56 54 56C52.8954 56 52 56.8954 52 58C52 59.1046 52.8954 60 54 60Z" fill="#1C9DB9"/>
<path fill-rule="evenodd" clip-rule="evenodd" d="M26.8514 17.9759C27.1409 18.4463 26.9942 19.0622 26.5239 19.3517C24.0996 20.8435 22.0719 23.2089 20.5146 25.6179C18.9612 28.0209 17.9224 30.3945 17.4485 31.8162C17.2738 32.3402 16.7075 32.6233 16.1836 32.4487C15.6596 32.2741 15.3765 31.7077 15.5511 31.1838C16.0772 29.6055 17.1884 27.0792 18.835 24.5321C20.4776 21.9912 22.7 19.3565 25.4757 17.6484C25.946 17.3589 26.562 17.5056 26.8514 17.9759Z" fill="#A7B5BA"/>
<path fill-rule="evenodd" clip-rule="evenodd" d="M26.8518 17.9759C27.1412 18.4463 26.9946 19.0622 26.5242 19.3517C24.1247 20.8283 22.1134 23.1609 20.5619 25.5454C20.2608 26.0083 19.6413 26.1394 19.1784 25.8382C18.7155 25.537 18.5844 24.9176 18.8856 24.4547C20.5228 21.9383 22.7281 19.3394 25.476 17.6484C25.9464 17.3589 26.5623 17.5056 26.8518 17.9759Z" fill="#C3DCE4"/>
<path fill-rule="evenodd" clip-rule="evenodd" d="M14 42.5C14.5523 42.5 15 42.9477 15 43.5V55C15 55.5523 14.5523 56 14 56C13.4477 56 13 55.5523 13 55V43.5C13 42.9477 13.4477 42.5 14 42.5Z" fill="#A7B5BA"/>
<path fill-rule="evenodd" clip-rule="evenodd" d="M76 42.5C76.5523 42.5 77 42.9477 77 43.5V55C77 55.5523 76.5523 56 76 56C75.4477 56 75 55.5523 75 55V43.5C75 42.9477 75.4477 42.5 76 42.5Z" fill="#A7B5BA"/>
<path fill-rule="evenodd" clip-rule="evenodd" d="M14 65C14.5523 65 15 65.4477 15 66V81.5C15 82.0523 14.5523 82.5 14 82.5C13.4477 82.5 13 82.0523 13 81.5V66C13 65.4477 13.4477 65 14 65Z" fill="#A7B5BA"/>
<path fill-rule="evenodd" clip-rule="evenodd" d="M76 65C76.5523 65 77 65.4477 77 66V81.5C77 82.0523 76.5523 82.5 76 82.5C75.4477 82.5 75 82.0523 75 81.5V66C75 65.4477 75.4477 65 76 65Z" fill="#A7B5BA"/>
<path fill-rule="evenodd" clip-rule="evenodd" d="M58.6354 12.9312C49.7475 9.45336 40.0549 11.487 36.3642 12.9312C35.8499 13.1325 35.2698 12.8787 35.0685 12.3644C34.8673 11.8501 35.1211 11.27 35.6354 11.0687C39.6113 9.51292 49.852 7.34658 59.3642 11.0687C59.8785 11.27 60.1323 11.8501 59.931 12.3644C59.7298 12.8787 59.1497 13.1325 58.6354 12.9312Z" fill="#A7B5BA"/>
<path fill-rule="evenodd" clip-rule="evenodd" d="M46.4978 10.0235C46.5327 10.5746 46.1142 11.0498 45.563 11.0847C41.5341 11.34 38.1812 12.2202 36.3642 12.9312C35.8499 13.1325 35.2698 12.8787 35.0685 12.3644C34.8673 11.8501 35.1211 11.27 35.6354 11.0688C37.6555 10.2783 41.2127 9.35636 45.4365 9.08871C45.9877 9.05378 46.4629 9.47229 46.4978 10.0235Z" fill="#C3DCE4"/>
<path fill-rule="evenodd" clip-rule="evenodd" d="M70.5145 17.1425C70.9881 17.4267 71.1417 18.0409 70.8575 18.5145L68.2454 22.868C69.3271 24.0816 71.1634 26.435 72.8742 29.5144C73.1424 29.9972 72.9684 30.606 72.4857 30.8742C72.0029 31.1424 71.3941 30.9685 71.1259 30.4857C69.1688 26.963 67.0574 24.4717 66.2929 23.7071C65.9684 23.3827 65.9064 22.879 66.1425 22.4855L69.1425 17.4855C69.4267 17.012 70.0409 16.8584 70.5145 17.1425Z" fill="#A7B5BA"/>
<path d="M81 76C81 76.5523 80.5523 77 80 77C79.4477 77 79 76.5523 79 76C79 75.4477 79.4477 75 80 75C80.5523 75 81 75.4477 81 76Z" fill="#556971"/>
<path d="M82 81C82 81.5523 81.5523 82 81 82C80.4477 82 80 81.5523 80 81C80 80.4477 80.4477 80 81 80C81.5523 80 82 80.4477 82 81Z" fill="#556971"/>
<path d="M81 73.5C81 73.7761 80.7761 74 80.5 74C80.2239 74 80 73.7761 80 73.5C80 73.2239 80.2239 73 80.5 73C80.7761 73 81 73.2239 81 73.5Z" fill="#556971"/>
<path d="M83 77.5C83 77.7761 82.7761 78 82.5 78C82.2239 78 82 77.7761 82 77.5C82 77.2239 82.2239 77 82.5 77C82.7761 77 83 77.2239 83 77.5Z" fill="#556971"/>
<path d="M79 78.5C79 78.7761 78.7761 79 78.5 79C78.2239 79 78 78.7761 78 78.5C78 78.2239 78.2239 78 78.5 78C78.7761 78 79 78.2239 79 78.5Z" fill="#556971"/>
<path d="M79 81.5C79 81.7761 78.7761 82 78.5 82C78.2239 82 78 81.7761 78 81.5C78 81.2239 78.2239 81 78.5 81C78.7761 81 79 81.2239 79 81.5Z" fill="#556971"/>
<path d="M43 80C43 80.5523 42.5523 81 42 81C41.4477 81 41 80.5523 41 80C41 79.4477 41.4477 79 42 79C42.5523 79 43 79.4477 43 80Z" fill="#49EFE5"/>
<path d="M41 75C41 75.5523 40.5523 76 40 76C39.4477 76 39 75.5523 39 75C39 74.4477 39.4477 74 40 74C40.5523 74 41 74.4477 41 75Z" fill="#49EFE5"/>
<path d="M44 69C44 69.5523 43.5523 70 43 70C42.4477 70 42 69.5523 42 69C42 68.4477 42.4477 68 43 68C43.5523 68 44 68.4477 44 69Z" fill="#49EFE5"/>
<path d="M44 85C44 85.5523 43.5523 86 43 86C42.4477 86 42 85.5523 42 85C42 84.4477 42.4477 84 43 84C43.5523 84 44 84.4477 44 85Z" fill="#49EFE5"/>
<path d="M43 77.5C43 77.7761 42.7761 78 42.5 78C42.2239 78 42 77.7761 42 77.5C42 77.2239 42.2239 77 42.5 77C42.7761 77 43 77.2239 43 77.5Z" fill="#49EFE5"/>
<path d="M45 73.5C45 73.7761 44.7761 74 44.5 74C44.2239 74 44 73.7761 44 73.5C44 73.2239 44.2239 73 44.5 73C44.7761 73 45 73.2239 45 73.5Z" fill="#49EFE5"/>
<path d="M42 72.5C42 72.7761 41.7761 73 41.5 73C41.2239 73 41 72.7761 41 72.5C41 72.2239 41.2239 72 41.5 72C41.7761 72 42 72.2239 42 72.5Z" fill="#49EFE5"/>
<path d="M41 69.5C41 69.7761 40.7761 70 40.5 70C40.2239 70 40 69.7761 40 69.5C40 69.2239 40.2239 69 40.5 69C40.7761 69 41 69.2239 41 69.5Z" fill="#49EFE5"/>
<path d="M43 64.5C43 64.7761 42.7761 65 42.5 65C42.2239 65 42 64.7761 42 64.5C42 64.2239 42.2239 64 42.5 64C42.7761 64 43 64.2239 43 64.5Z" fill="#49EFE5"/>
<path d="M45 78.5C45 78.7761 44.7761 79 44.5 79C44.2239 79 44 78.7761 44 78.5C44 78.2239 44.2239 78 44.5 78C44.7761 78 45 78.2239 45 78.5Z" fill="#49EFE5"/>
<path d="M40 79.5C40 79.7761 39.7761 80 39.5 80C39.2239 80 39 79.7761 39 79.5C39 79.2239 39.2239 79 39.5 79C39.7761 79 40 79.2239 40 79.5Z" fill="#49EFE5"/>
<path d="M45 81.5C45 81.7761 44.7761 82 44.5 82C44.2239 82 44 81.7761 44 81.5C44 81.2239 44.2239 81 44.5 81C44.7761 81 45 81.2239 45 81.5Z" fill="#49EFE5"/>
<path d="M41 82.5C41 82.7761 40.7761 83 40.5 83C40.2239 83 40 82.7761 40 82.5C40 82.2239 40.2239 82 40.5 82C40.7761 82 41 82.2239 41 82.5Z" fill="#49EFE5"/>
<path d="M41 85.5C41 85.7761 40.7761 86 40.5 86C40.2239 86 40 85.7761 40 85.5C40 85.2239 40.2239 85 40.5 85C40.7761 85 41 85.2239 41 85.5Z" fill="#49EFE5"/>
<path d="M53 81C53 81.5523 53.4477 82 54 82C54.5523 82 55 81.5523 55 81C55 80.4477 54.5523 80 54 80C53.4477 80 53 80.4477 53 81Z" fill="#49EFE5"/>
<path d="M55 76C55 76.5523 55.4477 77 56 77C56.5523 77 57 76.5523 57 76C57 75.4477 56.5523 75 56 75C55.4477 75 55 75.4477 55 76Z" fill="#49EFE5"/>
<path d="M51 72C51 72.5523 51.4477 73 52 73C52.5523 73 53 72.5523 53 72C53 71.4477 52.5523 71 52 71C51.4477 71 51 71.4477 51 72Z" fill="#49EFE5"/>
<path d="M52 84C52 84.5523 52.4477 85 53 85C53.5523 85 54 84.5523 54 84C54 83.4477 53.5523 83 53 83C52.4477 83 52 83.4477 52 84Z" fill="#49EFE5"/>
<path d="M54 78.5C54 78.7761 54.2239 79 54.5 79C54.7761 79 55 78.7761 55 78.5C55 78.2239 54.7761 78 54.5 78C54.2239 78 54 78.2239 54 78.5Z" fill="#49EFE5"/>
<path d="M51 76.5C51 76.7761 51.2239 77 51.5 77C51.7761 77 52 76.7761 52 76.5C52 76.2239 51.7761 76 51.5 76C51.2239 76 51 76.2239 51 76.5Z" fill="#49EFE5"/>
<path d="M53 75.5C53 75.7761 53.2239 76 53.5 76C53.7761 76 54 75.7761 54 75.5C54 75.2239 53.7761 75 53.5 75C53.2239 75 53 75.2239 53 75.5Z" fill="#49EFE5"/>
<path d="M54 72.5C54 72.7761 54.2239 73 54.5 73C54.7761 73 55 72.7761 55 72.5C55 72.2239 54.7761 72 54.5 72C54.2239 72 54 72.2239 54 72.5Z" fill="#49EFE5"/>
<path d="M55 69.5C55 69.7761 55.2239 70 55.5 70C55.7761 70 56 69.7761 56 69.5C56 69.2239 55.7761 69 55.5 69C55.2239 69 55 69.2239 55 69.5Z" fill="#49EFE5"/>
<path d="M51 79.5C51 79.7761 51.2239 80 51.5 80C51.7761 80 52 79.7761 52 79.5C52 79.2239 51.7761 79 51.5 79C51.2239 79 51 79.2239 51 79.5Z" fill="#49EFE5"/>
<path d="M56 79.5C56 79.7761 56.2239 80 56.5 80C56.7761 80 57 79.7761 57 79.5C57 79.2239 56.7761 79 56.5 79C56.2239 79 56 79.2239 56 79.5Z" fill="#49EFE5"/>
<path d="M51 82.5C51 82.7761 51.2239 83 51.5 83C51.7761 83 52 82.7761 52 82.5C52 82.2239 51.7761 82 51.5 82C51.2239 82 51 82.2239 51 82.5Z" fill="#49EFE5"/>
<path d="M56 82.5C56 82.7761 56.2239 83 56.5 83C56.7761 83 57 82.7761 57 82.5C57 82.2239 56.7761 82 56.5 82C56.2239 82 56 82.2239 56 82.5Z" fill="#49EFE5"/>
<path d="M55 85.5C55 85.7761 55.2239 86 55.5 86C55.7761 86 56 85.7761 56 85.5C56 85.2239 55.7761 85 55.5 85C55.2239 85 55 85.2239 55 85.5Z" fill="#49EFE5"/>
<path d="M30 82.5C30 82.7761 29.7761 83 29.5 83C29.2239 83 29 82.7761 29 82.5C29 82.2239 29.2239 82 29.5 82C29.7761 82 30 82.2239 30 82.5Z" fill="#49EFE5"/>
<path d="M31 79C31 79.5523 30.5523 80 30 80C29.4477 80 29 79.5523 29 79C29 78.4477 29.4477 78 30 78C30.5523 78 31 78.4477 31 79Z" fill="#49EFE5"/>
<path d="M32 75C32 75.5523 31.5523 76 31 76C30.4477 76 30 75.5523 30 75C30 74.4477 30.4477 74 31 74C31.5523 74 32 74.4477 32 75Z" fill="#49EFE5"/>
<path d="M32 84C32 84.5523 31.5523 85 31 85C30.4477 85 30 84.5523 30 84C30 83.4477 30.4477 83 31 83C31.5523 83 32 83.4477 32 84Z" fill="#49EFE5"/>
<path d="M32 80.5C32 80.7761 31.7761 81 31.5 81C31.2239 81 31 80.7761 31 80.5C31 80.2239 31.2239 80 31.5 80C31.7761 80 32 80.2239 32 80.5Z" fill="#49EFE5"/>
<path d="M33 77.5C33 77.7761 32.7761 78 32.5 78C32.2239 78 32 77.7761 32 77.5C32 77.2239 32.2239 77 32.5 77C32.7761 77 33 77.2239 33 77.5Z" fill="#49EFE5"/>
<path d="M29 75.5C29 75.7761 28.7761 76 28.5 76C28.2239 76 28 75.7761 28 75.5C28 75.2239 28.2239 75 28.5 75C28.7761 75 29 75.2239 29 75.5Z" fill="#49EFE5"/>
<path d="M30 72.5C30 72.7761 29.7761 73 29.5 73C29.2239 73 29 72.7761 29 72.5C29 72.2239 29.2239 72 29.5 72C29.7761 72 30 72.2239 30 72.5Z" fill="#49EFE5"/>
<path d="M33 68.5C33 68.7761 32.7761 69 32.5 69C32.2239 69 32 68.7761 32 68.5C32 68.2239 32.2239 68 32.5 68C32.7761 68 33 68.2239 33 68.5Z" fill="#49EFE5"/>
<path d="M34 78.5C34 78.7761 33.7761 79 33.5 79C33.2239 79 33 78.7761 33 78.5C33 78.2239 33.2239 78 33.5 78C33.7761 78 34 78.2239 34 78.5Z" fill="#49EFE5"/>
<path d="M28 79.5C28 79.7761 27.7761 80 27.5 80C27.2239 80 27 79.7761 27 79.5C27 79.2239 27.2239 79 27.5 79C27.7761 79 28 79.2239 28 79.5Z" fill="#49EFE5"/>
<path d="M33 82.5C33 82.7761 32.7761 83 32.5 83C32.2239 83 32 82.7761 32 82.5C32 82.2239 32.2239 82 32.5 82C32.7761 82 33 82.2239 33 82.5Z" fill="#49EFE5"/>
<path d="M28 82.5C28 82.7761 27.7761 83 27.5 83C27.2239 83 27 82.7761 27 82.5C27 82.2239 27.2239 82 27.5 82C27.7761 82 28 82.2239 28 82.5Z" fill="#49EFE5"/>
<path d="M29 85.5C29 85.7761 28.7761 86 28.5 86C28.2239 86 28 85.7761 28 85.5C28 85.2239 28.2239 85 28.5 85C28.7761 85 29 85.2239 29 85.5Z" fill="#49EFE5"/>
<path d="M67 81C67 81.5523 66.5523 82 66 82C65.4477 82 65 81.5523 65 81C65 80.4477 65.4477 80 66 80C66.5523 80 67 80.4477 67 81Z" fill="#49EFE5"/>
<path d="M67 75C67 75.5523 66.5523 76 66 76C65.4477 76 65 75.5523 65 75C65 74.4477 65.4477 74 66 74C66.5523 74 67 74.4477 67 75Z" fill="#49EFE5"/>
<path d="M67 84C67 84.5523 66.5523 85 66 85C65.4477 85 65 84.5523 65 84C65 83.4477 65.4477 83 66 83C66.5523 83 67 83.4477 67 84Z" fill="#49EFE5"/>
<path d="M66 77.5C66 77.7761 65.7761 78 65.5 78C65.2239 78 65 77.7761 65 77.5C65 77.2239 65.2239 77 65.5 77C65.7761 77 66 77.2239 66 77.5Z" fill="#49EFE5"/>
<path d="M68 77.5C68 77.7761 67.7761 78 67.5 78C67.2239 78 67 77.7761 67 77.5C67 77.2239 67.2239 77 67.5 77C67.7761 77 68 77.2239 68 77.5Z" fill="#49EFE5"/>
<path d="M64 76.5C64 76.7761 63.7761 77 63.5 77C63.2239 77 63 76.7761 63 76.5C63 76.2239 63.2239 76 63.5 76C63.7761 76 64 76.2239 64 76.5Z" fill="#49EFE5"/>
<path d="M64 72.5C64 72.7761 63.7761 73 63.5 73C63.2239 73 63 72.7761 63 72.5C63 72.2239 63.2239 72 63.5 72C63.7761 72 64 72.2239 64 72.5Z" fill="#49EFE5"/>
<path d="M67 70.5C67 70.7761 66.7761 71 66.5 71C66.2239 71 66 70.7761 66 70.5C66 70.2239 66.2239 70 66.5 70C66.7761 70 67 70.2239 67 70.5Z" fill="#49EFE5"/>
<path d="M68 79.5C68 79.7761 67.7761 80 67.5 80C67.2239 80 67 79.7761 67 79.5C67 79.2239 67.2239 79 67.5 79C67.7761 79 68 79.2239 68 79.5Z" fill="#49EFE5"/>
<path d="M64 79.5C64 79.7761 63.7761 80 63.5 80C63.2239 80 63 79.7761 63 79.5C63 79.2239 63.2239 79 63.5 79C63.7761 79 64 79.2239 64 79.5Z" fill="#49EFE5"/>
<path d="M69 82.5C69 82.7761 68.7761 83 68.5 83C68.2239 83 68 82.7761 68 82.5C68 82.2239 68.2239 82 68.5 82C68.7761 82 69 82.2239 69 82.5Z" fill="#49EFE5"/>
<path d="M64 82.5C64 82.7761 63.7761 83 63.5 83C63.2239 83 63 82.7761 63 82.5C63 82.2239 63.2239 82 63.5 82C63.7761 82 64 82.2239 64 82.5Z" fill="#49EFE5"/>
<path d="M65 85.5C65 85.7761 64.7761 86 64.5 86C64.2239 86 64 85.7761 64 85.5C64 85.2239 64.2239 85 64.5 85C64.7761 85 65 85.2239 65 85.5Z" fill="#49EFE5"/>
<path d="M81 49C81 49.5523 80.5523 50 80 50C79.4477 50 79 49.5523 79 49C79 48.4477 79.4477 48 80 48C80.5523 48 81 48.4477 81 49Z" fill="#556971"/>
<path d="M82 54C82 54.5523 81.5523 55 81 55C80.4477 55 80 54.5523 80 54C80 53.4477 80.4477 53 81 53C81.5523 53 82 53.4477 82 54Z" fill="#556971"/>
<path d="M81 46.5C81 46.7761 80.7761 47 80.5 47C80.2239 47 80 46.7761 80 46.5C80 46.2239 80.2239 46 80.5 46C80.7761 46 81 46.2239 81 46.5Z" fill="#556971"/>
<path d="M83 50.5C83 50.7761 82.7761 51 82.5 51C82.2239 51 82 50.7761 82 50.5C82 50.2239 82.2239 50 82.5 50C82.7761 50 83 50.2239 83 50.5Z" fill="#556971"/>
<path d="M79 51.5C79 51.7761 78.7761 52 78.5 52C78.2239 52 78 51.7761 78 51.5C78 51.2239 78.2239 51 78.5 51C78.7761 51 79 51.2239 79 51.5Z" fill="#556971"/>
<path d="M79 54.5C79 54.7761 78.7761 55 78.5 55C78.2239 55 78 54.7761 78 54.5C78 54.2239 78.2239 54 78.5 54C78.7761 54 79 54.2239 79 54.5Z" fill="#556971"/>
<path d="M76 26.5C76 26.7761 75.7761 27 75.5 27C75.2239 27 75 26.7761 75 26.5C75 26.2239 75.2239 26 75.5 26C75.7761 26 76 26.2239 76 26.5Z" fill="#556971"/>
<path d="M74 27.5C74 27.7761 73.7761 28 73.5 28C73.2239 28 73 27.7761 73 27.5C73 27.2239 73.2239 27 73.5 27C73.7761 27 74 27.2239 74 27.5Z" fill="#556971"/>
<path d="M80 30.5C80 30.7761 79.7761 31 79.5 31C79.2239 31 79 30.7761 79 30.5C79 30.2239 79.2239 30 79.5 30C79.7761 30 80 30.2239 80 30.5Z" fill="#556971"/>
<path d="M79 32.5C79 32.7761 78.7761 33 78.5 33C78.2239 33 78 32.7761 78 32.5C78 32.2239 78.2239 32 78.5 32C78.7761 32 79 32.2239 79 32.5Z" fill="#556971"/>
<path d="M79 28C79 28.5523 78.5523 29 78 29C77.4477 29 77 28.5523 77 28C77 27.4477 77.4477 27 78 27C78.5523 27 79 27.4477 79 28Z" fill="#556971"/>
<path d="M77 30C77 30.5523 76.5523 31 76 31C75.4477 31 75 30.5523 75 30C75 29.4477 75.4477 29 76 29C76.5523 29 77 29.4477 77 30Z" fill="#556971"/>
</svg>
