<?xml version="1.0" encoding="utf-8"?>
<!-- Generator: Adobe Illustrator 28.2.0, SVG Export Plug-In . SVG Version: 6.00 Build 0)  -->
<svg version="1.1" id="Layer_1" xmlns="http://www.w3.org/2000/svg" xmlns:xlink="http://www.w3.org/1999/xlink" x="0px" y="0px"
	 viewBox="0 0 95 95" style="enable-background:new 0 0 95 95;" xml:space="preserve">
<style type="text/css">
	.st0{fill:#4C4EAA;}
	.st1{fill:#FFFFFF;}
	.st2{fill:#EEA160;}
	.st3{fill:#676AC6;}
	.st4{fill:#BF7958;}
	.st5{fill:#E7F3FC;}
	.st6{fill:#BFD4E5;}
	.st7{fill:#A8603F;}
	.st8{fill:#D78B49;}
	.st9{fill:url(#SVGID_1_);}
	.st10{fill:#454A51;}
	.st11{fill:#3C3E41;}
	.st12{fill:#955435;}
</style>
<g>
	<g transform="matrix( 1, 0, 0, 1, 728,488.95) ">
		<g transform="matrix( 1, 0, 0, 1, 0,0) ">
			<g>
				<g id="leg_0_Layer0_0_FILL_00000064324724810727470660000013799862902842039938_">
					<path class="st0" d="M-666.75-403.29l0.15-5h-11.9l-0.15,5h11.85H-666.75z"/>
					<path class="st1" d="M-661.05-397.29l-5.75-6h-11.85l-0.25,6H-661.05z"/>
					<path class="st2" d="M-661.15-394.29l0.1-3h-17.85l-0.15,3H-661.15z"/>
					<path class="st3" d="M-666.15-417.49c0-1.6-0.63-2.97-1.9-4.1c-1.23-1.13-2.75-1.7-4.55-1.7c-1.77,0-3.28,0.57-4.55,1.7
						s-1.9,2.5-1.9,4.1l0.55,9.2h11.9L-666.15-417.49z"/>
				</g>
			</g>
		</g>
	</g>
	<g transform="matrix( -1, 0, 0, 1, 712,488.95) ">
		<g transform="matrix( 1, 0, 0, 1, 0,0) ">
			<g>
				<g id="leg_0_Layer0_0_FILL_00000139282727924117373890000010702344514037476535_">
					<path class="st0" d="M677.35-403.29l0.15-5h-11.9l-0.15,5h11.85H677.35z"/>
					<path class="st1" d="M683.05-397.29l-5.75-6h-11.85l-0.25,6H683.05z"/>
					<path class="st2" d="M682.95-394.29l0.1-3H665.2l-0.15,3H682.95z"/>
					<path class="st3" d="M677.95-417.49c0-1.6-0.63-2.97-1.9-4.1c-1.23-1.13-2.75-1.7-4.55-1.7c-1.77,0-3.28,0.57-4.55,1.7
						s-1.9,2.5-1.9,4.1l0.55,9.2h11.9L677.95-417.49z"/>
				</g>
			</g>
		</g>
	</g>
	<g transform="matrix( -0.258819580078125, 0.965911865234375, 0.965911865234375, 0.258819580078125, 735.25,469.8) ">
		<g transform="matrix( 1, 0, 0, 1, 0,0) ">
			<g>
				<g id="arm_0_Layer0_0_FILL_00000152968367697217665840000014300837375028270737_">
					<path class="st4" d="M-215.98-746.56c-0.83-2.3-1.9-4.53-3.2-6.7c-3.73,0.9-7.15,2.97-10.25,6.2c0.57,0.9,1.07,1.82,1.5,2.75
						c1.03,2.13,1.68,4.43,1.95,6.9c0.17,1.6,0.88,2.92,2.15,3.95c1.3,1,2.77,1.43,4.4,1.3c1.6-0.2,2.92-0.95,3.95-2.25
						c1.03-1.23,1.47-2.68,1.3-4.35c-0.23-1.93-0.6-3.78-1.1-5.55C-215.48-745.08-215.71-745.83-215.98-746.56z"/>
					<path class="st5" d="M-229.33-762.16c-1.63,0.03-3.03,0.63-4.2,1.8c-1.13,1.2-1.67,2.6-1.6,4.2c0,1.63,0.57,3.02,1.7,4.15
						c1.6,1.53,2.93,3.18,4,4.95c3.1-3.23,6.52-5.3,10.25-6.2c-1.63-2.57-3.62-4.98-5.95-7.25
						C-226.3-761.58-227.7-762.13-229.33-762.16z"/>
				</g>
			</g>
		</g>
		<g transform="matrix( 1, 0, 0, 1, 0,0) ">
			<g>
				<g id="arm_0_Layer0_1_FILL_00000072253436458477139010000004263551808977880462_">
					<path class="st6" d="M-216.73-752.36l-2.05-3.6l-12.9,7.5l2,3.55L-216.73-752.36z"/>
				</g>
			</g>
		</g>
	</g>
	<g transform="matrix( 0, 0.999969482421875, -0.999969482421875, 0, 705.75,469.8) ">
		<g transform="matrix( 1, 0, 0, 1, 0,0) ">
			<g>
				<g id="arm_0_Layer0_0_FILL_00000075160137006945792500000009163486605808841657_">
					<path class="st4" d="M-404.15,682.67c-0.83-2.3-1.9-4.53-3.2-6.7c-3.73,0.9-7.15,2.97-10.25,6.2c0.57,0.9,1.07,1.82,1.5,2.75
						c1.03,2.13,1.68,4.43,1.95,6.9c0.17,1.6,0.88,2.92,2.15,3.95c1.3,1,2.77,1.43,4.4,1.3c1.6-0.2,2.92-0.95,3.95-2.25
						c1.03-1.23,1.47-2.68,1.3-4.35c-0.23-1.93-0.6-3.78-1.1-5.55C-403.65,684.15-403.88,683.4-404.15,682.67z"/>
					<path class="st5" d="M-417.5,667.07c-1.63,0.03-3.03,0.63-4.2,1.8c-1.13,1.2-1.67,2.6-1.6,4.2c0,1.63,0.57,3.02,1.7,4.15
						c1.6,1.53,2.93,3.18,4,4.95c3.1-3.23,6.52-5.3,10.25-6.2c-1.63-2.57-3.62-4.98-5.95-7.25
						C-414.47,667.65-415.87,667.1-417.5,667.07z"/>
				</g>
			</g>
		</g>
		<g transform="matrix( 1, 0, 0, 1, 0,0) ">
			<g>
				<g id="arm_0_Layer0_1_FILL_00000116956953742104326590000000107353601613338529_">
					<path class="st6" d="M-404.9,676.87l-2.05-3.6l-12.9,7.5l2,3.55L-404.9,676.87z"/>
				</g>
			</g>
		</g>
	</g>
	<g transform="matrix( 1, 0, 0, 1, 720,486.05) ">
		<g transform="matrix( 1, 0, 0, 1, 0,0) ">
			<g>
				<g id="body_0_Layer0_0_FILL_00000170997472584038061760000008420043445131282350_">
					<path class="st6" d="M-657.45-414.49v-4.95h-30.05v4.95H-657.45z"/>
					<path class="st3" d="M-658.95-409.29c0.93-1.27,1.43-3,1.5-5.2h-30.05c0.07,2.2,0.57,3.93,1.5,5.2H-658.95z"/>
					<path class="st5" d="M-654.25-433.09c0.7-3.6-0.17-5.33-2.6-5.2h-31.3c-2.43-0.13-3.3,1.6-2.6,5.2l3.25,13.65h30.05
						L-654.25-433.09z"/>
				</g>
			</g>
		</g>
		<g transform="matrix( 1, 0, 0, 1, 0,0) ">
			<g>
				<g id="body_0_Layer0_0_MEMBER_0_FILL_00000170267805630907844010000007925525042620315538_">
					<path class="st7" d="M-664.45-445.74c-2.1-1.7-4.62-2.55-7.55-2.55s-5.45,0.85-7.55,2.55c-2.07,1.8-3.1,3.95-3.1,6.45
						c0,0.17,0.02,0.33,0.05,0.5c0.1,2.27,1.12,4.2,3.05,5.8c2.1,1.8,4.62,2.7,7.55,2.7s5.45-0.9,7.55-2.7
						c1.93-1.6,2.95-3.53,3.05-5.8c0.03-0.17,0.05-0.33,0.05-0.5C-661.35-441.79-662.38-443.94-664.45-445.74z"/>
				</g>
			</g>
		</g>
		<g transform="matrix( 1, 0, 0, 1, 0,0) ">
			<g>
				<g id="body_0_Layer0_0_MEMBER_1_FILL_00000181088962245783309610000012660092301691763134_">
					<path class="st8" d="M-675.2-419.24l-14.1,1.25c0.27,1.63,0.55,3.37,0.85,5.2l12.45-1.5
						C-675.67-415.82-675.4-417.47-675.2-419.24z"/>
					<path class="st2" d="M-675.2-419.24c0.23-2.33,0.32-4.85,0.25-7.55c-4.5-2.83-8.07-7.13-10.7-12.9l-4.55-0.85
						c-1.37,2.47-1.07,9.98,0.9,22.55L-675.2-419.24z"/>
				</g>
			</g>
		</g>
		<g transform="matrix( 1, 0, 0, 1, 0,0) ">
			<g>
				<g id="body_0_Layer0_0_MEMBER_2_FILL_00000027590388117208826790000014829080100517686940_">
					<path class="st8" d="M-655.2-417.99l-14.1-1.25c0.2,1.77,0.47,3.42,0.8,4.95l12.45,1.5
						C-655.75-414.62-655.47-416.35-655.2-417.99z"/>
					<path class="st2" d="M-669.55-426.79c-0.07,2.7,0.02,5.22,0.25,7.55l14.1,1.25c1.97-12.57,2.27-20.08,0.9-22.55l-4.55,0.85
						C-661.48-433.92-665.05-429.62-669.55-426.79z"/>
				</g>
			</g>
		</g>
		<g transform="matrix( 1, 0, 0, 1, 0,0) ">
			<g>
				<g id="body_0_Layer0_0_MEMBER_3_FILL_00000170970153183364295830000013991337749648457876_">
					<path class="st6" d="M-685.1-439.29l-2.05,3.6l13.1,7.6l2.05-3.65L-685.1-439.29 M-658.9-439.29l-13.1,7.55l2.05,3.65l13.1-7.6
						L-658.9-439.29z"/>
					<path class="st5" d="M-669.95-428.09l-2.05-3.65l-2.05,3.65H-669.95z"/>
				</g>
			</g>
		</g>
	</g>
	<g transform="matrix( -0.3830108642578125, 0.923736572265625, 0.923736572265625, 0.3830108642578125, 750.6,482.75) ">
		<g transform="matrix( 1, 0, 0, 1, 0,0) ">
			<g>
				<g id="hand_0_Layer0_0_FILL_00000141426555272122120130000014405930708890066879_">
					<path class="st7" d="M-137.26-773.03l-0.05-0.95c0.33-4.13,1.6-7.33,3.8-9.6c-5.8,4.3-7.07,7.83-3.8,10.6L-137.26-773.03z"/>
					<path class="st4" d="M-121.06-782.28c-0.03-0.9-0.53-1.35-1.5-1.35l-10.95,0.05c-2.2,2.27-3.47,5.47-3.8,9.6l0.05,0.95
						l-0.05,0.05c-0.03,1.1-0.03,2.27,0,3.5v0.4c0,0.93,0.72,1.53,2.15,1.8c2.1,0.47,4.15,0.68,6.15,0.65
						c5.67-0.03,8.32-4.95,7.95-14.75V-782.28z"/>
				</g>
			</g>
		</g>
	</g>
	<g transform="matrix( 1.50738525390625, 0, 0, 1, 720.4,466.1) ">
		<g transform="matrix( 1, 0, 0, 1, 0,0) ">
			<g>
				<g id="shadow_0_Layer0_0_FILL_00000145772838142727023770000013670706990263089848_">
					
						<radialGradient id="SVGID_1_" cx="-883.4352" cy="48.1871" r="13.5875" gradientTransform="matrix(1.5074 0 0 -1 885.8389 -369.1)" gradientUnits="userSpaceOnUse">
						<stop  offset="0" style="stop-color:#000000;stop-opacity:0.302"/>
						<stop  offset="1" style="stop-color:#000000;stop-opacity:0"/>
					</radialGradient>
					<path class="st9" d="M-436.39-426.84c-2.6-2.6-5.75-3.9-9.45-3.9s-6.88,1.3-9.55,3.9c-2.6,2.67-3.9,5.85-3.9,9.55
						c0,3.7,1.3,6.85,3.9,9.45c2.67,2.67,5.85,4,9.55,4s6.85-1.33,9.45-4c2.67-2.6,4-5.75,4-9.45
						C-432.39-420.99-433.72-424.17-436.39-426.84z"/>
				</g>
			</g>
		</g>
	</g>
	<g transform="matrix( 0.993194580078125, 0.116455078125, -0.116455078125, 0.993194580078125, 721.85,458.2) ">
		<g transform="matrix( 1, 0, 0, 1, 0,0) ">
			<g>
				<g id="head_0_Layer0_0_FILL_00000001628564749228732000000015073940827084060073_">
					<path class="st10" d="M-703.42-371.23l-2.9-4.55c-9.73-0.77-18.85-0.47-27.35,0.9c-4.77,0.67-6.93,2.93-6.5,6.8l0.2,1.7
						c0.63-2.37,2.75-3.8,6.35-4.3c8.5-1.33,17.62-1.62,27.35-0.85L-703.42-371.23 M-692.92-366.83l0.15-1.25
						c0.47-3.77-1.35-6.03-5.45-6.8l-4.55,3.75l4.6,0.45C-695.31-370.15-693.56-368.87-692.92-366.83z"/>
					<path class="st11" d="M-698.17-370.68l-4.6-0.45l-0.4,0.3l-0.25-0.4l-2.85-0.3c-9.73-0.77-18.85-0.48-27.35,0.85
						c-3.6,0.5-5.72,1.93-6.35,4.3l2.25,19.4c0.37,2.9,2.27,4.35,5.7,4.35h31.1c3.47,0,5.37-1.45,5.7-4.35l2.3-19.85
						C-693.56-368.87-695.31-370.15-698.17-370.68z"/>
				</g>
			</g>
		</g>
		<g transform="matrix( 1, 0, 0, 1, 0,0) ">
			<g>
				<g id="head_0_Layer0_1_FILL_00000039832975749718441400000011268723634174806916_">
					<path class="st4" d="M-740.72-347.43c-1.57,1.57-2.35,3.47-2.35,5.7s0.78,4.13,2.35,5.7c1.6,1.63,3.48,2.45,5.65,2.45
						c2.2,0,4.1-0.82,5.7-2.45c1.53-1.57,2.3-3.47,2.3-5.7c0-2.23-0.77-4.13-2.3-5.7c-1.6-1.63-3.5-2.45-5.7-2.45
						C-737.24-349.88-739.12-349.07-740.72-347.43 M-738.42-338.28c-0.93-0.93-1.4-2.08-1.4-3.45c0-1.3,0.47-2.45,1.4-3.45
						c0.93-0.93,2.05-1.4,3.35-1.4c1.37,0,2.52,0.47,3.45,1.4c0.93,1,1.4,2.15,1.4,3.45c0,1.37-0.47,2.52-1.4,3.45
						c-0.93,0.97-2.08,1.45-3.45,1.45C-736.37-336.83-737.49-337.32-738.42-338.28 M-703.72-347.43c-1.57,1.57-2.35,3.47-2.35,5.7
						c0,2.23,0.78,4.13,2.35,5.7c1.6,1.63,3.48,2.45,5.65,2.45c2.2,0,4.1-0.82,5.7-2.45c1.53-1.57,2.3-3.47,2.3-5.7
						c0-2.23-0.77-4.13-2.3-5.7c-1.6-1.63-3.5-2.45-5.7-2.45C-700.24-349.88-702.12-349.07-703.72-347.43 M-701.42-345.18
						c0.93-0.93,2.05-1.4,3.35-1.4c1.33,0,2.48,0.47,3.45,1.4c0.93,1,1.4,2.15,1.4,3.45c0,1.37-0.47,2.52-1.4,3.45
						c-0.97,0.97-2.12,1.45-3.45,1.45c-1.3,0-2.42-0.48-3.35-1.45c-0.97-0.93-1.45-2.08-1.45-3.45
						C-702.87-343.03-702.39-344.18-701.42-345.18z"/>
					<path class="st7" d="M-739.82-341.73c0,1.37,0.47,2.52,1.4,3.45c0.93,0.97,2.05,1.45,3.35,1.45c1.37,0,2.52-0.48,3.45-1.45
						c0.93-0.93,1.4-2.08,1.4-3.45c0-1.3-0.47-2.45-1.4-3.45c-0.93-0.93-2.08-1.4-3.45-1.4c-1.3,0-2.42,0.47-3.35,1.4
						C-739.36-344.18-739.82-343.03-739.82-341.73 M-698.07-346.58c-1.3,0-2.42,0.47-3.35,1.4c-0.97,1-1.45,2.15-1.45,3.45
						c0,1.37,0.48,2.52,1.45,3.45c0.93,0.97,2.05,1.45,3.35,1.45c1.33,0,2.48-0.48,3.45-1.45c0.93-0.93,1.4-2.08,1.4-3.45
						c0-1.3-0.47-2.45-1.4-3.45C-695.59-346.12-696.74-346.58-698.07-346.58z"/>
				</g>
			</g>
		</g>
		<g transform="matrix( 1, 0, 0, 1, 0,0) ">
			<g>
				<g id="head_0_Layer0_2_FILL_00000183930476478184782070000006262597705359981730_">
					<path class="st4" d="M-704.37-328.18c3.6-0.47,5.63-2.4,6.1-5.8l2.65-26h-41.85l3.2,31.8H-704.37z"/>
				</g>
			</g>
		</g>
		<g transform="matrix( 1, 0, 0, 1, 0,0) ">
			<g>
				<g id="head_0_Layer0_3_FILL_00000001651966298087707320000016862808739475831446_">
					<path class="st1" d="M-729.02-344.33c0,1.17,0.37,2.17,1.1,3c0.8,0.9,1.8,1.35,3,1.35c1.13,0,2.08-0.45,2.85-1.35
						c0.77-0.83,1.15-1.83,1.15-3c0-1.17-0.38-2.17-1.15-3c-0.77-0.87-1.72-1.3-2.85-1.3c-1.2,0-2.2,0.43-3,1.3
						C-728.66-346.5-729.02-345.5-729.02-344.33 M-726.52-344.18v-0.25c0.03-0.7,0.27-1.3,0.7-1.8c0.47-0.53,1.03-0.8,1.7-0.8
						c0.7,0,1.28,0.27,1.75,0.8c0.43,0.5,0.67,1.1,0.7,1.8v0.25c-0.03,0.67-0.27,1.25-0.7,1.75c-0.47,0.53-1.05,0.8-1.75,0.8
						c-0.67,0-1.23-0.27-1.7-0.8C-726.26-342.93-726.49-343.52-726.52-344.18 M-710.97-341.33c0.83,0.9,1.83,1.35,3,1.35
						c1.17,0,2.1-0.45,2.8-1.35c0.83-0.83,1.25-1.83,1.25-3c0-1.17-0.42-2.17-1.25-3c-0.7-0.87-1.63-1.3-2.8-1.3
						c-1.17,0-2.17,0.43-3,1.3c-0.73,0.83-1.1,1.83-1.1,3C-712.07-343.17-711.71-342.17-710.97-341.33 M-707.42-346.23
						c0.47,0.5,0.72,1.1,0.75,1.8v0.25c-0.03,0.67-0.28,1.25-0.75,1.75c-0.43,0.53-0.98,0.8-1.65,0.8s-1.27-0.27-1.8-0.8
						c-0.4-0.5-0.62-1.08-0.65-1.75v-0.35c0.03-0.63,0.25-1.2,0.65-1.7c0.53-0.53,1.13-0.8,1.8-0.8S-707.86-346.77-707.42-346.23z"
						/>
					<path class="st11" d="M-726.52-344.43v0.25c0.03,0.67,0.27,1.25,0.7,1.75c0.47,0.53,1.03,0.8,1.7,0.8c0.7,0,1.28-0.27,1.75-0.8
						c0.43-0.5,0.67-1.08,0.7-1.75v-0.25c-0.03-0.7-0.27-1.3-0.7-1.8c-0.47-0.53-1.05-0.8-1.75-0.8c-0.67,0-1.23,0.27-1.7,0.8
						C-726.26-345.73-726.49-345.13-726.52-344.43 M-706.67-344.43c-0.03-0.7-0.28-1.3-0.75-1.8c-0.43-0.53-0.98-0.8-1.65-0.8
						s-1.27,0.27-1.8,0.8c-0.4,0.5-0.62,1.07-0.65,1.7v0.35c0.03,0.67,0.25,1.25,0.65,1.75c0.53,0.53,1.13,0.8,1.8,0.8
						s1.22-0.27,1.65-0.8c0.47-0.5,0.72-1.08,0.75-1.75V-344.43z"/>
				</g>
			</g>
		</g>
		<g transform="matrix( 1, 0, 0, 1, 0,0) ">
			<g>
				<g id="head_0_Layer0_3_MEMBER_0_FILL_00000008130365368314508760000011500388371479276687_">
					<path class="st11" d="M-719.47-347.48l0.2-2.85l-10.8-0.5l-0.15,2.85L-719.47-347.48 M-713.17-350.33l0.2,2.85l10.75-0.5
						l-0.15-2.85L-713.17-350.33z"/>
				</g>
			</g>
		</g>
		<g transform="matrix( 1, 0, 0, 1, 0,0) ">
			<g>
				<g id="head_0_Layer0_3_MEMBER_1_FILL_00000170976895906680695430000016040923983361714362_">
					<path class="st11" d="M-716.77-339.48c-2.37,0-4.37,0.48-6,1.45c-1.53,0.87-2.4,1.9-2.6,3.1c-0.07,0.17-0.07,0.35,0,0.55
						c0.07,0.17,0.17,0.32,0.3,0.45c0.13,0.13,0.3,0.22,0.5,0.25c2.87,0.43,5.57,0.1,8.1-1c2.5,1.1,5.2,1.43,8.1,1
						c0.2-0.03,0.37-0.12,0.5-0.25c0.13-0.13,0.23-0.28,0.3-0.45c0.07-0.2,0.08-0.38,0.05-0.55c-0.23-1.2-1.12-2.23-2.65-3.1
						c-1.67-0.97-3.67-1.45-6-1.45c-0.1,0-0.2,0-0.3,0C-716.57-339.48-716.67-339.48-716.77-339.48z"/>
				</g>
			</g>
		</g>
		<g transform="matrix( 1, 0, 0, 1, 0,0) ">
			<g>
				<g id="head_0_Layer0_3_MEMBER_2_FILL_00000029766898701298929120000007226853728034062477_">
					<path class="st12" d="M-713.97-339.58c0.67-0.47,1-1.02,1-1.65c0-0.6-0.33-1.15-1-1.65c-0.67-0.43-1.48-0.65-2.45-0.65
						c-0.93,0-1.73,0.22-2.4,0.65c-0.67,0.5-1,1.05-1,1.65c0,0.63,0.33,1.18,1,1.65c0.67,0.5,1.47,0.75,2.4,0.75
						C-715.46-338.83-714.64-339.08-713.97-339.58z"/>
				</g>
			</g>
		</g>
		<g transform="matrix( 1, 0, 0, 1, 0,0) ">
			<g>
				<g id="head_0_Layer0_4_FILL_00000137104742457348111160000011975477334398846370_">
					<path class="st11" d="M-736.67-359.48h-0.05c-0.67,0.1-1.22,0.43-1.65,1c-0.43,0.5-0.6,1.08-0.5,1.75l1.9,16
						c0.07,0.63,0.37,1.18,0.9,1.65c0.53,0.4,1.13,0.55,1.8,0.45h0.05c0.67-0.07,1.2-0.37,1.6-0.9s0.57-1.15,0.5-1.85l-1.9-15.9
						c-0.1-0.7-0.42-1.25-0.95-1.65C-735.47-359.33-736.04-359.52-736.67-359.48 M-698.17-358.93c-0.5,0.4-0.8,0.95-0.9,1.65
						l-1.9,15.9c-0.07,0.7,0.1,1.32,0.5,1.85c0.4,0.53,0.93,0.83,1.6,0.9h0.05c0.63,0.1,1.22-0.05,1.75-0.45
						c0.57-0.47,0.88-1.02,0.95-1.65l1.9-16c0.1-0.67-0.07-1.25-0.5-1.75c-0.43-0.57-0.98-0.9-1.65-1h-0.05
						C-697.09-359.52-697.67-359.33-698.17-358.93z"/>
				</g>
			</g>
		</g>
		<g transform="matrix( 1, 0, 0, 1, 0,0) ">
			<g>
				<g id="head_0_Layer0_5_FILL_00000019654087996101637290000014438706185710119327_">
					<path class="st11" d="M-701.42-356.08c4.27-1.37,6.4-2.95,6.4-4.75c0-1.77-2.13-3.22-6.4-4.35c-4.2-1.13-9.32-1.62-15.35-1.45
						c-5.97,0.2-11.08,0.98-15.35,2.35c-4.23,1.4-6.35,2.98-6.35,4.75c0,1.8,2.12,3.25,6.35,4.35c4.27,1.17,9.38,1.65,15.35,1.45
						C-710.74-353.9-705.62-354.68-701.42-356.08z"/>
				</g>
			</g>
		</g>
	</g>
	<g transform="matrix( 0.3830108642578125, 0.923736572265625, -0.923736572265625, 0.3830108642578125, 688.5,478.65) ">
		<g transform="matrix( 1, 0, 0, 1, 0,0) ">
			<g>
				<g id="hand_0_Layer0_0_FILL_00000068638349236557126690000001932102045865019528_">
					<path class="st7" d="M-652.07,468.58l-0.05-0.95c0.33-4.13,1.6-7.33,3.8-9.6c-5.8,4.3-7.07,7.83-3.8,10.6L-652.07,468.58z"/>
					<path class="st4" d="M-635.87,459.33c-0.03-0.9-0.53-1.35-1.5-1.35l-10.95,0.05c-2.2,2.27-3.47,5.47-3.8,9.6l0.05,0.95
						l-0.05,0.05c-0.03,1.1-0.03,2.27,0,3.5v0.4c0,0.93,0.72,1.53,2.15,1.8c2.1,0.47,4.15,0.68,6.15,0.65
						c5.67-0.03,8.32-4.95,7.95-14.75V459.33z"/>
				</g>
			</g>
		</g>
	</g>
</g>
</svg>
