<?xml version="1.0" encoding="utf-8"?>
<!-- Generator: Adobe Illustrator 28.2.0, SVG Export Plug-In . SVG Version: 6.00 Build 0)  -->
<svg version="1.1" id="Layer_1" xmlns="http://www.w3.org/2000/svg" xmlns:xlink="http://www.w3.org/1999/xlink" x="0px" y="0px"
	 viewBox="0 0 80 80" style="enable-background:new 0 0 80 80;" xml:space="preserve">
<style type="text/css">
	.st0{fill:url(#SVGID_1_);}
	.st1{fill:url(#SVGID_00000120553710224698831500000005399172363034544262_);}
	.st2{fill:#3D465D;}
</style>
<g id="red_body_square" transform="matrix( 1, 0, 0, 1, 70,80) ">
	<g transform="matrix( 1, 0, 0, 1, 0,0) ">
		<g>
			<g id="Symbol_24_0_Layer0_0_FILL">
				
					<linearGradient id="SVGID_1_" gradientUnits="userSpaceOnUse" x1="-100" y1="81" x2="-100" y2="1" gradientTransform="matrix(1 0 0 -1 70 1)">
					<stop  offset="0" style="stop-color:#E26081"/>
					<stop  offset="1" style="stop-color:#D44947"/>
				</linearGradient>
				<path class="st0" d="M10-66C9.83-72.67,6.32-76-0.55-76H-59.5c-6.83,0-10.33,3.33-10.5,10v55.95C-69.83-3.35-66.33,0-59.5,0
					h58.95C6.32,0,9.83-3.35,10-10.05V-66z"/>
				
					<linearGradient id="SVGID_00000178899376468709896370000007147361493918333598_" gradientUnits="userSpaceOnUse" x1="-100" y1="81.25" x2="-100" y2="37.75" gradientTransform="matrix(1 0 0 -1 70 1)">
					<stop  offset="0" style="stop-color:#F37F98"/>
					<stop  offset="1" style="stop-color:#D74854"/>
				</linearGradient>
				<path style="fill:url(#SVGID_00000178899376468709896370000007147361493918333598_);" d="M10-69.5C10-76.5,6.48-80-0.55-80
					H-59.5c-7,0-10.5,3.5-10.5,10.5v3.5c0.17-6.67,3.67-10,10.5-10h58.95C6.32-76,9.83-72.67,10-66V-69.5z"/>
			</g>
		</g>
	</g>
</g>
<g id="face_j" transform="matrix( 1, 0, 0, 1, 145,649.95) ">
	<g transform="matrix( 1, 0, 0, 1, 0,0) ">
		<g>
			<g id="Symbol_108_0_Layer0_0_FILL">
				<path class="st2" d="M-128.81-617.47c0.43,0.27,0.93,0.33,1.5,0.2l15.45-4.15c0.53-0.13,0.95-0.43,1.25-0.9
					c0.23-0.47,0.27-0.98,0.1-1.55l-0.25-0.95c-0.13-0.57-0.42-0.97-0.85-1.2c-0.5-0.3-1.02-0.38-1.55-0.25l-15.45,4.15
					c-0.57,0.13-0.97,0.45-1.2,0.95c-0.3,0.43-0.38,0.93-0.25,1.5l0.25,0.95C-129.64-618.15-129.31-617.74-128.81-617.47z"/>
			</g>
		</g>
	</g>
	<g transform="matrix( 1, 0, 0, 1, 0,0) ">
		<g>
			<g id="Symbol_108_0_Layer0_1_FILL">
				<path class="st2" d="M-99.96-622.27c0.27,0.47,0.67,0.77,1.2,0.9l15.45,4.15c0.57,0.13,1.08,0.08,1.55-0.15
					c0.47-0.3,0.78-0.73,0.95-1.3l0.25-0.95c0.13-0.57,0.07-1.05-0.2-1.45c-0.27-0.53-0.68-0.87-1.25-1l-15.45-4.15
					c-0.53-0.13-1.03-0.05-1.5,0.25c-0.47,0.23-0.77,0.63-0.9,1.2l-0.25,0.95C-100.28-623.25-100.23-622.74-99.96-622.27z"/>
			</g>
		</g>
	</g>
	<g transform="matrix( 1, 0, 0, 1, 0,0) ">
		<g>
			<g id="Symbol_108_0_Layer0_2_FILL">
				<path class="st2" d="M-128.31-613.22c0,0.57,0.2,1.05,0.6,1.45l4.55,4.55l-4.55,4.6c-0.4,0.37-0.6,0.83-0.6,1.4
					s0.2,1.05,0.6,1.45c0.37,0.37,0.83,0.55,1.4,0.55s1.05-0.18,1.45-0.55l4.55-4.6l4.6,4.6c0.37,0.37,0.83,0.55,1.4,0.55
					s1.05-0.18,1.45-0.55c0.37-0.4,0.55-0.88,0.55-1.45s-0.18-1.03-0.55-1.4l-4.6-4.6l4.6-4.55c0.37-0.4,0.55-0.88,0.55-1.45
					s-0.18-1.03-0.55-1.4c-0.4-0.4-0.88-0.6-1.45-0.6s-1.03,0.2-1.4,0.6l-4.6,4.55l-4.55-4.55c-0.4-0.4-0.88-0.6-1.45-0.6
					s-1.03,0.2-1.4,0.6C-128.11-614.25-128.31-613.79-128.31-613.22 M-98.31-613.22c0,0.57,0.2,1.05,0.6,1.45l4.55,4.55l-4.55,4.6
					c-0.4,0.37-0.6,0.83-0.6,1.4s0.2,1.05,0.6,1.45c0.37,0.37,0.83,0.55,1.4,0.55s1.05-0.18,1.45-0.55l4.55-4.6l4.6,4.6
					c0.37,0.37,0.83,0.55,1.4,0.55s1.05-0.18,1.45-0.55c0.37-0.4,0.55-0.88,0.55-1.45s-0.18-1.03-0.55-1.4l-4.6-4.6l4.6-4.55
					c0.37-0.4,0.55-0.88,0.55-1.45s-0.18-1.03-0.55-1.4c-0.4-0.4-0.88-0.6-1.45-0.6s-1.03,0.2-1.4,0.6l-4.6,4.55l-4.55-4.55
					c-0.4-0.4-0.88-0.6-1.45-0.6s-1.03,0.2-1.4,0.6C-98.11-614.25-98.31-613.79-98.31-613.22z"/>
			</g>
		</g>
	</g>
	<g transform="matrix( 1, 0, 0, 1, 0,0) ">
		<g>
			<g id="Symbol_108_0_Layer0_3_FILL">
				<path class="st2" d="M-99.46-589.37c0.3,0.2,0.58,0.42,0.85,0.65c0.4,0.37,0.88,0.53,1.45,0.5c0.53-0.03,0.98-0.25,1.35-0.65
					c0.37-0.43,0.53-0.92,0.5-1.45c-0.03-0.57-0.25-1.03-0.65-1.4c-0.37-0.3-0.75-0.6-1.15-0.9c-2.27-1.73-5-2.6-8.2-2.6
					c-3.27,0-6.05,0.87-8.35,2.6c0,0.03-0.02,0.05-0.05,0.05c-0.43,0.33-0.8,0.68-1.1,1.05c-0.37,0.4-0.53,0.88-0.5,1.45
					c0.03,0.53,0.27,0.98,0.7,1.35c0.4,0.37,0.88,0.53,1.45,0.5c0.53-0.03,0.98-0.25,1.35-0.65c0.17-0.2,0.35-0.38,0.55-0.55
					c1.63-1.2,3.62-1.8,5.95-1.8c2.27,0,4.2,0.6,5.8,1.8L-99.46-589.37z"/>
			</g>
		</g>
	</g>
</g>
</svg>
