<?xml version="1.0" encoding="utf-8"?>
<!-- Generator: Adobe Illustrator 28.2.0, SVG Export Plug-In . SVG Version: 6.00 Build 0)  -->
<svg version="1.1" id="Layer_1" xmlns="http://www.w3.org/2000/svg" xmlns:xlink="http://www.w3.org/1999/xlink" x="0px" y="0px"
	 viewBox="0 0 80 80" style="enable-background:new 0 0 80 80;" xml:space="preserve">
<style type="text/css">
	.st0{fill:url(#SVGID_1_);}
	.st1{fill:url(#SVGID_00000178203775014175916730000014945115668992875409_);}
	.st2{fill:#FFFFFF;}
	.st3{fill:#3D465D;}
</style>
<g>
	<g id="yellow_body_square" transform="matrix( 1, 0, 0, 1, 830,250) ">
		<g transform="matrix( 1, 0, 0, 1, 0,0) ">
			<g>
				<g id="Symbol_36_0_Layer0_0_FILL">
					
						<linearGradient id="SVGID_1_" gradientUnits="userSpaceOnUse" x1="-1620" y1="82" x2="-1620" y2="2" gradientTransform="matrix(1 0 0 -1 830 -168)">
						<stop  offset="0" style="stop-color:#FFCD59"/>
						<stop  offset="1" style="stop-color:#F7A41B"/>
					</linearGradient>
					<path class="st0" d="M-750-236c-0.17-6.67-3.68-10-10.55-10h-58.95c-6.83,0-10.33,3.33-10.5,10v55.95
						c0.17,6.7,3.67,10.05,10.5,10.05h58.95c6.87,0,10.38-3.35,10.55-10.05V-236z"/>
					
						<linearGradient id="SVGID_00000154421247535039724280000011621846257938093733_" gradientUnits="userSpaceOnUse" x1="-1620" y1="82.25" x2="-1620" y2="38.75" gradientTransform="matrix(1 0 0 -1 830 -168)">
						<stop  offset="0" style="stop-color:#FFE383"/>
						<stop  offset="1" style="stop-color:#FFB43C"/>
					</linearGradient>
					<path style="fill:url(#SVGID_00000154421247535039724280000011621846257938093733_);" d="M-750-239.5c0-7-3.52-10.5-10.55-10.5
						h-58.95c-7,0-10.5,3.5-10.5,10.5v3.5c0.17-6.67,3.67-10,10.5-10h58.95c6.87,0,10.38,3.33,10.55,10V-239.5z"/>
				</g>
			</g>
		</g>
	</g>
	<g id="face_i" transform="matrix( 1, 0, 0, 1, 55,648.2) ">
		<g transform="matrix( 1, 0, 0, 1, 0,0) ">
			<g>
				<g id="Symbol_99_0_Layer0_0_MEMBER_0_FILL">
					<path class="st2" d="M-29.75-612.04c-2.77,0-5.12,0.98-7.05,2.95c-1.97,1.97-2.95,4.32-2.95,7.05c0,2.77,0.98,5.12,2.95,7.05
						c1.93,1.97,4.28,2.95,7.05,2.95s5.12-0.98,7.05-2.95c1.97-1.93,2.95-4.28,2.95-7.05c0-2.73-0.98-5.08-2.95-7.05
						C-24.63-611.06-26.98-612.04-29.75-612.04z"/>
				</g>
			</g>
		</g>
		<g transform="matrix( 1, 0, 0, 1, 0,0) ">
			<g>
				<g id="Symbol_99_0_Layer0_0_MEMBER_1_FILL">
					<path class="st3" d="M-29.75-608.04c-1.63,0-3.03,0.6-4.2,1.8c-1.2,1.17-1.8,2.57-1.8,4.2c0,1.67,0.6,3.08,1.8,4.25
						c1.17,1.17,2.57,1.75,4.2,1.75c1.67,0,3.08-0.58,4.25-1.75s1.75-2.58,1.75-4.25c0-1.63-0.58-3.03-1.75-4.2
						C-26.67-607.44-28.08-608.04-29.75-608.04z"/>
				</g>
			</g>
		</g>
		<g transform="matrix( 1, 0, 0, 1, 0,0) ">
			<g>
				<g id="Symbol_99_0_Layer0_1_MEMBER_0_FILL">
					<path class="st2" d="M0.25-612.04c-2.77,0-5.12,0.98-7.05,2.95c-1.97,1.97-2.95,4.32-2.95,7.05c0,2.77,0.98,5.12,2.95,7.05
						c1.93,1.97,4.28,2.95,7.05,2.95s5.12-0.98,7.05-2.95c1.97-1.93,2.95-4.28,2.95-7.05c0-2.73-0.98-5.08-2.95-7.05
						C5.37-611.06,3.02-612.04,0.25-612.04z"/>
				</g>
			</g>
		</g>
		<g transform="matrix( 1, 0, 0, 1, 0,0) ">
			<g>
				<g id="Symbol_99_0_Layer0_1_MEMBER_1_FILL">
					<path class="st3" d="M0.25-608.04c-1.63,0-3.03,0.6-4.2,1.8c-1.2,1.17-1.8,2.57-1.8,4.2c0,1.67,0.6,3.08,1.8,4.25
						c1.17,1.17,2.57,1.75,4.2,1.75c1.67,0,3.08-0.58,4.25-1.75s1.75-2.58,1.75-4.25c0-1.63-0.58-3.03-1.75-4.2
						C3.33-607.44,1.92-608.04,0.25-608.04z"/>
				</g>
			</g>
		</g>
		<g transform="matrix( 1, 0, 0, 1, 0,0) ">
			<g>
				<g id="Symbol_99_0_Layer0_2_FILL">
					<path class="st3" d="M-42.4-619.34c-0.57,0.13-0.97,0.43-1.2,0.9c-0.3,0.47-0.38,0.98-0.25,1.55l1.05,3.85
						c0.13,0.57,0.45,0.97,0.95,1.2c0.43,0.3,0.93,0.38,1.5,0.25l19.3-5.2c0.53-0.13,0.95-0.45,1.25-0.95
						c0.27-0.43,0.33-0.93,0.2-1.5l-1.05-3.85c-0.13-0.57-0.43-0.98-0.9-1.25c-0.5-0.27-1.02-0.33-1.55-0.2L-42.4-619.34z"/>
				</g>
			</g>
		</g>
		<g transform="matrix( 1, 0, 0, 1, 0,0) ">
			<g>
				<g id="Symbol_99_0_Layer0_3_FILL">
					<path class="st3" d="M-6.4-624.54c-0.53-0.13-1.05-0.07-1.55,0.2c-0.47,0.27-0.77,0.68-0.9,1.25l-1.05,3.85
						c-0.13,0.57-0.07,1.07,0.2,1.5c0.3,0.5,0.72,0.82,1.25,0.95l19.3,5.2c0.57,0.13,1.07,0.05,1.5-0.25
						c0.5-0.23,0.82-0.63,0.95-1.2l1.05-3.85c0.13-0.57,0.05-1.08-0.25-1.55c-0.23-0.47-0.63-0.77-1.2-0.9L-6.4-624.54z"/>
				</g>
			</g>
		</g>
		<g transform="matrix( 1, 0, 0, 1, 0,0) ">
			<g>
				<g id="Symbol_99_0_Layer0_4_FILL">
					<path class="st3" d="M-5.4-586.54c-0.37-0.3-0.75-0.6-1.15-0.9c-2.27-1.73-5-2.6-8.2-2.6c-3.27,0-6.05,0.87-8.35,2.6
						c0,0.03-0.02,0.05-0.05,0.05c-0.43,0.33-0.8,0.68-1.1,1.05c-0.37,0.4-0.53,0.88-0.5,1.45c0.03,0.53,0.27,0.98,0.7,1.35
						c0.4,0.37,0.88,0.53,1.45,0.5c0.53-0.03,0.98-0.25,1.35-0.65c0.17-0.2,0.35-0.38,0.55-0.55c1.63-1.2,3.62-1.8,5.95-1.8
						c2.27,0,4.2,0.6,5.8,1.8l0.05,0.05c0.3,0.2,0.58,0.42,0.85,0.65c0.4,0.37,0.88,0.53,1.45,0.5c0.53-0.03,0.98-0.25,1.35-0.65
						c0.37-0.43,0.53-0.92,0.5-1.45C-4.78-585.71-5-586.18-5.4-586.54z"/>
				</g>
			</g>
		</g>
	</g>
</g>
</svg>
