<?xml version="1.0" encoding="utf-8"?>
<!-- Generator: Adobe Illustrator 28.2.0, SVG Export Plug-In . SVG Version: 6.00 Build 0)  -->
<svg version="1.1" id="Layer_1" xmlns="http://www.w3.org/2000/svg" xmlns:xlink="http://www.w3.org/1999/xlink" x="0px" y="0px"
	 viewBox="0 0 800 800" style="enable-background:new 0 0 800 800;" xml:space="preserve">
<style type="text/css">
	.st0{fill:#22c55b;}
</style>
<path class="st0" d="M580.5,10.8h-361c-114.7,0-208.6,93.9-208.6,208.6v361.3c0,114.7,93.9,208.6,208.6,208.6h361
	c114.7,0,208.6-93.9,208.6-208.6V219.4C789.1,104.7,695.2,10.8,580.5,10.8z M516,267.9c1.9-1.9,5-1.9,6.9,0l49.5,49.5l0,0L520.8,369
	c-0.9,0.9-2.2,1.4-3.5,1.4l-234.8-0.1c-1.3,0-2.5-0.5-3.5-1.4l-51.5-51.5h238.8L516,267.9z M663.8,325.8L412.5,577.1l-9,9
	c-1.9,1.9-5,1.9-6.9,0l-9-9L136.2,325.8c-3.1-3.1-0.9-8.4,3.5-8.4h61c1.3,0,2.5,0.5,3.5,1.4l192.3,192.3c1.9,1.9,5,1.9,6.9,0
	l192.3-192.3c0.9-0.9,2.2-1.4,3.5-1.4h61.1C664.7,317.5,666.9,322.7,663.8,325.8z"/>
</svg>
