<svg width="96" height="96" viewBox="0 0 96 96" fill="none" xmlns="http://www.w3.org/2000/svg">
<path d="M78.1825 20.6456L58.7528 45.5939C57.826 46.784 58.5 48.5326 59.9858 48.7928L73.7679 51.2061C75.5951 51.526 76.04 53.9455 74.4461 54.8946L28.3775 82.325C26.7455 83.2968 24.805 81.6598 25.488 79.8874L35.3094 54.4015C35.7624 53.226 35.029 51.9295 33.7881 51.7123L18.4971 49.0348C17.191 48.8061 16.4649 47.3929 17.0396 46.1979L33.7893 11.3685C34.1774 10.5615 35.0546 10.1108 35.9366 10.2652L76.9495 17.4467C78.4353 17.7069 79.1093 19.4555 78.1825 20.6456Z" fill="#FFB547"/>
<path fill-rule="evenodd" clip-rule="evenodd" d="M79.7602 21.8745L60.3305 46.8228L74.1126 49.2361C77.7671 49.876 78.6569 54.7149 75.4691 56.613L29.4005 84.0435C26.1364 85.9869 22.2556 82.713 23.6216 79.1682L33.4429 53.6823L18.1519 51.0048C15.5397 50.5474 14.0877 47.721 15.237 45.3312L31.9866 10.5017C32.7628 8.88766 34.5173 7.9863 36.2814 8.2952L77.2943 15.4767C80.2659 15.997 81.6139 19.4943 79.7602 21.8745ZM58.7526 45.5939L78.1823 20.6456C79.1091 19.4555 78.4351 17.7069 76.9493 17.4467L35.9364 10.2652C35.0544 10.1108 34.1771 10.5615 33.789 11.3685L17.0394 46.1979C16.4647 47.3929 17.1908 48.8061 18.4968 49.0348L33.7879 51.7123C35.0287 51.9295 35.7622 53.226 35.3092 54.4015L25.4878 79.8874C24.8048 81.6598 26.7452 83.2968 28.3773 82.325L74.4459 54.8946C76.0398 53.9455 75.5949 51.526 73.7677 51.2061L59.9856 48.7928C58.4997 48.5326 57.8258 46.784 58.7526 45.5939Z" fill="#604104"/>
<path d="M33.789 11.3687C34.1771 10.5617 35.0543 10.111 35.9364 10.2655L52.2715 13.1258L39.5623 40.125L21.5674 36.7825L33.789 11.3687Z" fill="#FFC369"/>
<path fill-rule="evenodd" clip-rule="evenodd" d="M37.4994 54.0103C38.0114 54.2172 38.2588 54.8 38.052 55.3121L27.927 80.3746C27.7201 80.8866 27.1373 81.1341 26.6252 80.9272C26.1131 80.7203 25.8657 80.1375 26.0726 79.6254L36.1976 54.5629C36.4045 54.0508 36.9873 53.8034 37.4994 54.0103Z" fill="#FFE7A9"/>
<path d="M74.4461 54.8946L28.3774 82.3251L65.0126 51.5648L64 49.5312L73.7678 51.2062C75.5951 51.5261 76.04 53.9456 74.4461 54.8946Z" fill="#C87719"/>
<path d="M78.1826 20.6456L58.7529 45.5939C57.8298 46.7791 58.4946 48.5185 59.9679 48.7896L50 47L69.0001 16.0547L76.9496 17.4467C78.4354 17.7068 79.1094 19.4555 78.1826 20.6456Z" fill="#C87719"/>
<path fill-rule="evenodd" clip-rule="evenodd" d="M29.6706 83.8507C29.586 83.9224 29.4956 83.9869 29.4004 84.0437C26.1363 85.9872 22.2555 82.7132 23.6215 79.1684L33.4428 53.6825L18.1518 51.005C15.5396 50.5476 14.0876 47.7212 15.2369 45.3314L31.9865 10.5019C32.7627 8.88787 34.5172 7.98651 36.2813 8.29541L66.4449 13.5771C69.2269 14.0643 70.6415 17.2032 69.1637 19.6101L53.2337 45.5552L62.6947 47.2754C66.0183 47.8797 67.1426 52.077 64.5661 54.2617L29.6706 83.8507ZM62.337 49.2431C63.9988 49.5453 64.5609 51.6439 63.2727 52.7363L28.3771 82.3252C26.7451 83.297 24.8047 81.66 25.4877 79.8876L35.3091 54.4017C35.762 53.2262 35.0286 51.9297 33.7878 51.7125L18.4967 49.035C17.1907 48.8063 16.4646 47.3931 17.0393 46.1982L33.7889 11.3687C34.177 10.5617 35.0542 10.111 35.9363 10.2654L66.0999 15.5472C67.491 15.7907 68.1983 17.3602 67.4594 18.5637L49.9997 47L62.337 49.2431Z" fill="#604104"/>
<path d="M50 47.0002L67.4597 18.5639C68.1986 17.3605 67.4913 15.791 66.1002 15.5474L62.5 14.917L46.5 46L50 47.0002Z" fill="#E78F28"/>
<path fill-rule="evenodd" clip-rule="evenodd" d="M35.436 12.1002C35.933 12.3411 36.1405 12.9393 35.8996 13.4363L19.8996 46.4363C19.6586 46.9332 19.0604 47.1407 18.5635 46.8998C18.0665 46.6589 17.859 46.0607 18.0999 45.5637L34.0999 12.5637C34.3409 12.0668 34.9391 11.8592 35.436 12.1002Z" fill="#FFE7A9"/>
<path fill-rule="evenodd" clip-rule="evenodd" d="M23.936 35.8189C24.433 36.0599 24.6405 36.6581 24.3996 37.155L19.8996 46.4363C19.6586 46.9332 19.0604 47.1407 18.5635 46.8998C18.0665 46.6589 17.859 46.0607 18.0999 45.5637L22.5999 36.2825C22.8409 35.7855 23.4391 35.578 23.936 35.8189Z" fill="#FFF5DB"/>
<path d="M66.4339 32.4178C66.2317 32.8662 65.7616 33.0916 65.384 32.9214C65.0065 32.7511 64.8643 32.2495 65.0665 31.8011C65.2687 31.3528 65.7387 31.1273 66.1163 31.2976C66.4939 31.4679 66.6361 31.9694 66.4339 32.4178Z" fill="#AD6209"/>
<path d="M63.6341 37.6629C63.4319 38.1113 62.9618 38.3368 62.5842 38.1665C62.2066 37.9962 62.0645 37.4947 62.2667 37.0463C62.4689 36.5979 62.9389 36.3724 63.3165 36.5427C63.6941 36.713 63.8363 37.2145 63.6341 37.6629Z" fill="#AD6209"/>
<path d="M64.2008 34.5686C63.9249 35.1804 63.2835 35.4881 62.7682 35.2557C62.2529 35.0234 62.0589 34.339 62.3348 33.7271C62.6108 33.1152 63.2522 32.8075 63.7675 33.0399C64.2827 33.2723 64.4768 33.9567 64.2008 34.5686Z" fill="#AD6209"/>
<path d="M70.2151 28.449C70.0129 28.8974 69.5429 29.1229 69.1653 28.9526C68.7877 28.7823 68.6455 28.2808 68.8477 27.8324C69.0499 27.384 69.52 27.1585 69.8976 27.3288C70.2752 27.4991 70.4173 28.0006 70.2151 28.449Z" fill="#AD6209"/>
<path d="M67.6222 29.1213C67.4775 29.4422 67.1412 29.6035 66.871 29.4817C66.6008 29.3598 66.4991 29.0009 66.6438 28.6801C66.7885 28.3592 67.1248 28.1979 67.395 28.3197C67.6652 28.4416 67.7669 28.8005 67.6222 29.1213Z" fill="#AD6209"/>
<path d="M68.6008 31.5286C68.4561 31.8494 68.1197 32.0108 67.8495 31.8889C67.5793 31.7671 67.4776 31.4082 67.6223 31.0873C67.767 30.7665 68.1033 30.6051 68.3735 30.727C68.6437 30.8488 68.7454 31.2077 68.6008 31.5286Z" fill="#AD6209"/>
<path d="M65.5436 35.6536C65.3989 35.9744 65.0626 36.1358 64.7924 36.0139C64.5222 35.8921 64.4205 35.5332 64.5652 35.2123C64.7098 34.8915 65.0462 34.7301 65.3164 34.852C65.5866 34.9738 65.6883 35.3327 65.5436 35.6536Z" fill="#AD6209"/>
<path d="M60.7311 39.0554C60.5864 39.3763 60.2501 39.5376 59.9799 39.4158C59.7097 39.2939 59.608 38.935 59.7527 38.6142C59.8973 38.2933 60.2337 38.132 60.5039 38.2538C60.7741 38.3757 60.8758 38.7346 60.7311 39.0554Z" fill="#AD6209"/>
<path d="M65.5436 29.5623C65.3989 29.8831 65.0626 30.0444 64.7924 29.9226C64.5222 29.8008 64.4205 29.4419 64.5652 29.121C64.7098 28.8001 65.0462 28.6388 65.3164 28.7607C65.5866 28.8825 65.6883 29.2414 65.5436 29.5623Z" fill="#AD6209"/>
<path d="M68.6008 24.5623C68.4561 24.8831 68.1197 25.0444 67.8495 24.9226C67.5793 24.8008 67.4776 24.4419 67.6223 24.121C67.767 23.8001 68.1033 23.6388 68.3735 23.7607C68.6437 23.8825 68.7454 24.2414 68.6008 24.5623Z" fill="#AD6209"/>
<path d="M72.4758 25.1873C72.3311 25.5081 71.9947 25.6694 71.7245 25.5476C71.4543 25.4258 71.3526 25.0669 71.4973 24.746C71.642 24.4251 71.9783 24.2638 72.2485 24.3857C72.5187 24.5075 72.6204 24.8664 72.4758 25.1873Z" fill="#AD6209"/>
<path fill-rule="evenodd" clip-rule="evenodd" d="M62.0598 50.6792C62.4268 51.0919 62.3897 51.724 61.977 52.091L42.7895 69.1535C42.3768 69.5205 41.7447 69.4835 41.3777 69.0707C41.0107 68.658 41.0478 68.026 41.4605 67.659L60.648 50.5965C61.0607 50.2295 61.6928 50.2665 62.0598 50.6792Z" fill="#F0A637"/>
<path fill-rule="evenodd" clip-rule="evenodd" d="M59.9494 15.1693C60.4427 15.4177 60.6413 16.0189 60.3929 16.5122L46.7679 43.5747C46.5196 44.068 45.9183 44.2665 45.425 44.0182C44.9317 43.7698 44.7332 43.1686 44.9815 42.6753L58.6065 15.6128C58.8549 15.1195 59.4561 14.921 59.9494 15.1693Z" fill="#F0A637"/>
<path d="M54.6406 51.5761C54.4938 52.1085 53.9971 52.436 53.5313 52.3076C53.0654 52.1792 52.8067 51.6434 52.9535 51.111C53.1003 50.5786 53.5969 50.2511 54.0628 50.3795C54.5286 50.5079 54.7873 51.0437 54.6406 51.5761Z" fill="#FFC670"/>
<path d="M51.5419 55.3294C51.4421 55.6915 51.1043 55.9143 50.7874 55.8269C50.4706 55.7396 50.2946 55.3752 50.3944 55.0131C50.4943 54.651 50.8321 54.4282 51.1489 54.5156C51.4658 54.6029 51.6417 54.9673 51.5419 55.3294Z" fill="#FFC670"/>
<path d="M47.5765 57.1898C47.4767 57.5519 47.1389 57.7746 46.8221 57.6873C46.5052 57.5999 46.3293 57.2356 46.4291 56.8734C46.5289 56.5113 46.8667 56.2886 47.1836 56.3759C47.5004 56.4633 47.6764 56.8276 47.5765 57.1898Z" fill="#FFC670"/>
<path d="M51.5419 51.5335C51.4421 51.8956 51.1043 52.1184 50.7874 52.031C50.4706 51.9437 50.2946 51.5793 50.3944 51.2172C50.4943 50.8551 50.8321 50.6323 51.1489 50.7197C51.4658 50.807 51.6417 51.1714 51.5419 51.5335Z" fill="#FFC670"/>
<path d="M58.1669 50.8026C58.0671 51.1647 57.7293 51.3874 57.4124 51.3001C57.0956 51.2127 56.9196 50.8484 57.0194 50.4862C57.1193 50.1241 57.4571 49.9014 57.7739 49.9887C58.0908 50.0761 58.2667 50.4404 58.1669 50.8026Z" fill="#FFC670"/>
<path d="M55.308 53.526C55.238 53.7797 55.0014 53.9357 54.7795 53.8745C54.5576 53.8133 54.4343 53.5581 54.5043 53.3045C54.5742 53.0508 54.8108 52.8948 55.0327 52.956C55.2546 53.0172 55.3779 53.2724 55.308 53.526Z" fill="#FFC670"/>
<path d="M49.4017 58.526C49.3318 58.7797 49.0952 58.9357 48.8733 58.8745C48.6513 58.8133 48.5281 58.5581 48.598 58.3045C48.6679 58.0508 48.9045 57.8948 49.1265 57.956C49.3484 58.0172 49.4716 58.2724 49.4017 58.526Z" fill="#FFC670"/>
<path d="M50.3402 49.2521C50.2703 49.5057 50.0337 49.6618 49.8117 49.6006C49.5898 49.5394 49.4666 49.2842 49.5365 49.0305C49.6064 48.7769 49.843 48.6209 50.0649 48.6821C50.2869 48.7432 50.4101 48.9985 50.3402 49.2521Z" fill="#FFC670"/>
<path d="M56.1117 49.9416C56.0417 50.1952 55.8051 50.3512 55.5832 50.29C55.3613 50.2289 55.238 49.9736 55.308 49.72C55.3779 49.4664 55.6145 49.3103 55.8364 49.3715C56.0584 49.4327 56.1816 49.6879 56.1117 49.9416Z" fill="#FFC670"/>
<path d="M53.618 54.318C53.5481 54.5717 53.3115 54.7277 53.0896 54.6665C52.8676 54.6053 52.7444 54.3501 52.8143 54.0965C52.8842 53.8428 53.1208 53.6868 53.3428 53.748C53.5647 53.8092 53.6879 54.0644 53.618 54.318Z" fill="#FFC670"/>
<path d="M49.4017 52.1388C49.3318 52.3925 49.0952 52.5485 48.8733 52.4873C48.6513 52.4261 48.5281 52.1709 48.598 51.9173C48.6679 51.6636 48.9045 51.5076 49.1265 51.5688C49.3484 51.63 49.4716 51.8852 49.4017 52.1388Z" fill="#FFC670"/>
<path d="M50.0873 53.7477C50.0173 54.0013 49.7807 54.1574 49.5588 54.0962C49.3369 54.035 49.2136 53.7798 49.2836 53.5262C49.3535 53.2725 49.5901 53.1165 49.812 53.1777C50.0339 53.2389 50.1572 53.4941 50.0873 53.7477Z" fill="#FFC670"/>
<path d="M46.0018 61.1227C45.9319 61.3763 45.6953 61.5324 45.4734 61.4712C45.2514 61.41 45.1282 61.1548 45.1981 60.9012C45.268 60.6475 45.5046 60.4915 45.7266 60.5527C45.9485 60.6139 46.0717 60.8691 46.0018 61.1227Z" fill="#FFC670"/>
</svg>
