<svg width="96" height="96" viewBox="0 0 96 96" fill="none" xmlns="http://www.w3.org/2000/svg">
<path d="M8 30C8 25.0294 11.9797 21 16.8889 21H79.1111C84.0203 21 88 25.0294 88 30V66C88 70.9706 84.0203 75 79.1111 75H16.8889C11.9797 75 8 70.9706 8 66V30Z" fill="#CD911F"/>
<path fill-rule="evenodd" clip-rule="evenodd" d="M16.8889 19H79.1111C85.1482 19 90 23.9484 90 30V66C90 72.0516 85.1482 77 79.1111 77H16.8889C10.8518 77 6 72.0516 6 66V30C6 23.9484 10.8518 19 16.8889 19ZM16.8889 21C11.9797 21 8 25.0294 8 30V66C8 70.9706 11.9797 75 16.8889 75H79.1111C84.0203 75 88 70.9706 88 66V30C88 25.0294 84.0203 21 79.1111 21H16.8889Z" fill="#501D01"/>
<path d="M82.2233 24.983L25.5323 5.33274C24.4886 4.97099 23.3493 5.52378 22.9876 6.56743L10.5424 42.4717C10.1807 43.5154 10.7335 44.6547 11.7771 45.0164L68.4681 64.6667C69.5117 65.0284 70.651 64.4756 71.0128 63.432L83.458 27.5277C83.8197 26.484 83.2669 25.3447 82.2233 24.983Z" fill="#FFF7E7"/>
<path fill-rule="evenodd" clip-rule="evenodd" d="M25.5321 5.33277L82.2231 24.983C83.2667 25.3448 83.8195 26.4841 83.4578 27.5277L71.0126 63.432C70.6509 64.4757 69.5116 65.0285 68.4679 64.6667L11.7769 45.0165C10.7333 44.6547 10.1805 43.5154 10.5422 42.4718L22.9874 6.56746C23.3491 5.52381 24.4885 4.97102 25.5321 5.33277ZM26.1871 3.44307L82.8781 23.0933C84.9654 23.8168 86.071 26.0954 85.3475 28.1827L72.9023 64.087C72.1788 66.1743 69.9002 67.2799 67.8129 66.5564L11.1219 46.9062C9.03462 46.1827 7.92904 43.904 8.65254 41.8167L21.0977 5.91246C21.8212 3.82515 24.0998 2.71957 26.1871 3.44307Z" fill="#D6BD8D"/>
<path d="M73.8484 30.7102L29.4693 15.3275C28.9474 15.1466 28.3778 15.423 28.1969 15.9448L18.3272 44.4191C18.1463 44.9409 18.4227 45.5106 18.9445 45.6914L63.3237 61.0742C63.8455 61.255 64.4152 60.9787 64.596 60.4568L74.4658 31.9826C74.6467 31.4608 74.3703 30.8911 73.8484 30.7102Z" fill="#BEF0F3"/>
<path fill-rule="evenodd" clip-rule="evenodd" d="M30.1246 13.4378L74.5038 28.8206C76.0692 29.3632 76.8984 31.0721 76.3558 32.6376L66.486 61.1119C65.9434 62.6773 64.2345 63.5065 62.669 62.9639L18.2898 47.5812C16.7243 47.0386 15.8951 45.3296 16.4378 43.7641L26.3075 15.2899C26.8502 13.7244 28.5591 12.8952 30.1246 13.4378ZM29.4696 15.3275L73.8488 30.7103C74.3706 30.8911 74.647 31.4608 74.4661 31.9826L64.5963 60.4569C64.4155 60.9787 63.8458 61.2551 63.324 61.0742L18.9448 45.6915C18.423 45.5106 18.1466 44.941 18.3275 44.4191L28.1972 15.9449C28.3781 15.4231 28.9478 15.1467 29.4696 15.3275Z" fill="#6BBDD7"/>
<path fill-rule="evenodd" clip-rule="evenodd" d="M24.5531 6.60532C24.7933 6.48539 25.0716 6.46708 25.3254 6.55452L70.3255 22.0545C70.8476 22.2344 71.1251 22.8035 70.9453 23.3257C70.7654 23.8478 70.1963 24.1253 69.6741 23.9455L25.6376 8.77734L20.4512 24.8078C20.2812 25.3333 19.7174 25.6214 19.192 25.4514C18.6665 25.2814 18.3783 24.7176 18.5483 24.1922L24.0483 7.19218C24.131 6.93674 24.3129 6.72526 24.5531 6.60532Z" fill="white"/>
<path d="M78 33H18C16.8954 33 16 33.8954 16 35V73C16 74.1046 16.8954 75 18 75H78C79.1046 75 80 74.1046 80 73V35C80 33.8954 79.1046 33 78 33Z" fill="#F7DFB3"/>
<path fill-rule="evenodd" clip-rule="evenodd" d="M18 33H78C79.1046 33 80 33.8954 80 35V73C80 74.1046 79.1046 75 78 75H18C16.8954 75 16 74.1046 16 73V35C16 33.8954 16.8954 33 18 33ZM18 31H78C80.2091 31 82 32.7909 82 35V73C82 75.2091 80.2091 77 78 77H18C15.7909 77 14 75.2091 14 73V35C14 32.7909 15.7909 31 18 31Z" fill="#C2AA7B"/>
<path fill-rule="evenodd" clip-rule="evenodd" d="M23.7613 31H18C16.8954 31 16 31.8954 16 33V71C16 71.1868 16.0256 71.3677 16.0735 71.5392C16.9583 71.8381 17.9049 72 18.8889 72H79.7324C79.9026 71.7058 80 71.3643 80 71V33C80 31.8954 79.1046 31 78 31H76.2391L61.0371 45.4842C54.8571 51.3724 45.1432 51.3724 38.9632 45.4842L23.7613 31Z" fill="#A69473"/>
<path fill-rule="evenodd" clip-rule="evenodd" d="M30 34.5C30 33.9477 30.4477 33.5 31 33.5H59.5C60.0523 33.5 60.5 33.9477 60.5 34.5C60.5 35.0523 60.0523 35.5 59.5 35.5H31C30.4477 35.5 30 35.0523 30 34.5Z" fill="#FFF4DF"/>
<path d="M8 30V66C8 70.9706 11.9797 75 16.8889 75H79.1111C84.0203 75 88 70.9706 88 66V30C88 27.4448 86.9483 25.1383 85.2593 23.5001L59.0371 48.4842C52.8571 54.3724 43.1432 54.3724 36.9632 48.4842L10.7409 23.5C9.82729 24.3333 8 26.8 8 30Z" fill="#FFBA35"/>
<path fill-rule="evenodd" clip-rule="evenodd" d="M83.8797 22.0521C84.6572 21.3113 85.8809 21.3168 86.6518 22.0645C88.7159 24.0666 90 26.8857 90 30V66C90 72.0516 85.1482 77 79.1111 77H16.8889C10.8518 77 6 72.0516 6 66V30C6 26.0861 8.19107 23.1188 9.39316 22.0223C10.1691 21.3146 11.3602 21.3276 12.1206 22.052L38.3429 47.0362C43.7503 52.1884 52.25 52.1884 57.6575 47.0362L83.8797 22.0521ZM86.5344 25.0476C87.4608 26.4682 88 28.1703 88 30V66C88 70.9706 84.0203 75 79.1111 75H16.8889C11.9797 75 8 70.9706 8 66V30C8 27.9912 8.72009 26.2714 9.48221 25.0632C9.73877 24.6564 10.0001 24.3077 10.2403 24.0254C10.4232 23.8105 10.5939 23.6341 10.7409 23.5L36.9632 48.4842C43.1432 54.3724 52.8571 54.3724 59.0371 48.4842L85.2593 23.5001C85.4291 23.6648 85.5924 23.8362 85.7489 24.0139C86.0345 24.3383 86.2971 24.6837 86.5344 25.0476Z" fill="#501D01"/>
<path fill-rule="evenodd" clip-rule="evenodd" d="M12.2929 27.2929C12.6834 26.9024 13.3166 26.9024 13.7071 27.2929L31.7071 45.2929C32.0976 45.6834 32.0976 46.3166 31.7071 46.7071C31.3166 47.0976 30.6834 47.0976 30.2929 46.7071L12.2929 28.7071C11.9024 28.3166 11.9024 27.6834 12.2929 27.2929Z" fill="#FFDA92"/>
<path fill-rule="evenodd" clip-rule="evenodd" d="M9.7207 71.3234C11.177 72.3788 12.9611 72.9999 14.8886 72.9999H77.1108C82.02 72.9999 85.9997 68.9705 85.9997 63.9999V27.9999C85.9997 26.4753 85.6253 25.0391 84.9644 23.7807L85.259 23.5C86.948 25.1382 87.9997 27.4447 87.9997 29.9999V65.9999C87.9997 70.9705 84.02 74.9999 79.1108 74.9999H16.8886C13.9467 74.9999 11.3386 73.5529 9.7207 71.3234Z" fill="#D39318"/>
<path fill-rule="evenodd" clip-rule="evenodd" d="M36.4548 48L10.7407 72.5C12.3373 74.0486 14.5033 75 16.8888 75H79.1111C81.4966 75 83.6626 74.0486 85.2592 72.5L59.5451 48L59.0369 48.4842C52.8569 54.3724 43.143 54.3724 36.963 48.4842L36.4548 48Z" fill="#ECA928"/>
<path fill-rule="evenodd" clip-rule="evenodd" d="M35.0752 46.552C35.8477 45.816 37.062 45.816 37.8345 46.552L38.3426 47.0362C43.7501 52.1884 52.2498 52.1884 57.6573 47.0362L58.1654 46.552C58.9379 45.816 60.1522 45.816 60.9247 46.552L86.6388 71.052C87.0327 71.4274 87.2567 71.947 87.2592 72.4911C87.2616 73.0352 87.0422 73.5568 86.6516 73.9356C84.6995 75.8291 82.0404 77 79.1111 77H16.8888C13.9595 77 11.3004 75.8291 9.34827 73.9356C8.95769 73.5568 8.73832 73.0352 8.74074 72.4911C8.74317 71.947 8.96717 71.4274 9.36111 71.052L35.0752 46.552ZM10.7407 72.5C11.2256 72.9703 11.763 73.3855 12.3431 73.7357C13.6732 74.5387 15.2278 75 16.8888 75H79.1111C80.7721 75 82.3267 74.5387 83.6568 73.7357C84.2369 73.3855 84.7743 72.9703 85.2592 72.5L59.5451 48L59.0369 48.4842C52.8569 54.3724 43.143 54.3724 36.963 48.4842L36.4548 48L10.7407 72.5Z" fill="#501D01"/>
<path fill-rule="evenodd" clip-rule="evenodd" d="M82.8238 70.1797C81.694 70.7063 80.4364 70.9999 79.1111 70.9999H16.8888C15.5635 70.9999 14.306 70.7063 13.1761 70.1797L10.7407 72.5001C12.3373 74.0487 14.5033 75.0001 16.8888 75.0001H79.1111C81.4966 75.0001 83.6626 74.0487 85.2592 72.5001L82.8238 70.1797Z" fill="#D39318"/>
<path fill-rule="evenodd" clip-rule="evenodd" d="M10 29C10.5523 29 11 29.4477 11 30V64C11 64.5523 10.5523 65 10 65C9.44772 65 9 64.5523 9 64V30C9 29.4477 9.44772 29 10 29Z" fill="#FFCC6A"/>
<path d="M64 65C64 65.5523 63.5523 66 63 66C62.4477 66 62 65.5523 62 65C62 64.4477 62.4477 64 63 64C63.5523 64 64 64.4477 64 65Z" fill="#D29520"/>
<path d="M75 66C75 66.5523 74.5523 67 74 67C73.4477 67 73 66.5523 73 66C73 65.4477 73.4477 65 74 65C74.5523 65 75 65.4477 75 66Z" fill="#D29520"/>
<path d="M68 63C68 63.5523 67.5523 64 67 64C66.4477 64 66 63.5523 66 63C66 62.4477 66.4477 62 67 62C67.5523 62 68 62.4477 68 63Z" fill="#D29520"/>
<path d="M59 68C59 68.5523 58.5523 69 58 69C57.4477 69 57 68.5523 57 68C57 67.4477 57.4477 67 58 67C58.5523 67 59 67.4477 59 68Z" fill="#D29520"/>
<path d="M58 64.5C58 64.7761 57.7761 65 57.5 65C57.2239 65 57 64.7761 57 64.5C57 64.2239 57.2239 64 57.5 64C57.7761 64 58 64.2239 58 64.5Z" fill="#D29520"/>
<path d="M61 63.5C61 63.7761 60.7761 64 60.5 64C60.2239 64 60 63.7761 60 63.5C60 63.2239 60.2239 63 60.5 63C60.7761 63 61 63.2239 61 63.5Z" fill="#D29520"/>
<path d="M61 65.5C61 65.7761 60.7761 66 60.5 66C60.2239 66 60 65.7761 60 65.5C60 65.2239 60.2239 65 60.5 65C60.7761 65 61 65.2239 61 65.5Z" fill="#D29520"/>
<path d="M64 68.5C64 68.7761 63.7761 69 63.5 69C63.2239 69 63 68.7761 63 68.5C63 68.2239 63.2239 68 63.5 68C63.7761 68 64 68.2239 64 68.5Z" fill="#D29520"/>
<path d="M55 66.5C55 66.7761 54.7761 67 54.5 67C54.2239 67 54 66.7761 54 66.5C54 66.2239 54.2239 66 54.5 66C54.7761 66 55 66.2239 55 66.5Z" fill="#D29520"/>
<path d="M70 64.5C70 64.7761 69.7761 65 69.5 65C69.2239 65 69 64.7761 69 64.5C69 64.2239 69.2239 64 69.5 64C69.7761 64 70 64.2239 70 64.5Z" fill="#D29520"/>
<path d="M77 67.5C77 67.7761 76.7761 68 76.5 68C76.2239 68 76 67.7761 76 67.5C76 67.2239 76.2239 67 76.5 67C76.7761 67 77 67.2239 77 67.5Z" fill="#D29520"/>
<path d="M71 61.5C71 61.7761 70.7761 62 70.5 62C70.2239 62 70 61.7761 70 61.5C70 61.2239 70.2239 61 70.5 61C70.7761 61 71 61.2239 71 61.5Z" fill="#D29520"/>
<path d="M64 61.5C64 61.7761 63.7761 62 63.5 62C63.2239 62 63 61.7761 63 61.5C63 61.2239 63.2239 61 63.5 61C63.7761 61 64 61.2239 64 61.5Z" fill="#D29520"/>
<path d="M50 68.5C50 68.7761 49.7761 69 49.5 69C49.2239 69 49 68.7761 49 68.5C49 68.2239 49.2239 68 49.5 68C49.7761 68 50 68.2239 50 68.5Z" fill="#D29520"/>
<path d="M52 66.5C52 66.7761 51.7761 67 51.5 67C51.2239 67 51 66.7761 51 66.5C51 66.2239 51.2239 66 51.5 66C51.7761 66 52 66.2239 52 66.5Z" fill="#D29520"/>
<path d="M56 64C56 64.5523 55.5523 65 55 65C54.4477 65 54 64.5523 54 64C54 63.4477 54.4477 63 55 63C55.5523 63 56 63.4477 56 64Z" fill="#D29520"/>
<path d="M72 68C72 68.5523 71.5523 69 71 69C70.4477 69 70 68.5523 70 68C70 67.4477 70.4477 67 71 67C71.5523 67 72 67.4477 72 68Z" fill="#D29520"/>
<path d="M68 66.5C68 67.3284 67.3284 68 66.5 68C65.6716 68 65 67.3284 65 66.5C65 65.6716 65.6716 65 66.5 65C67.3284 65 68 65.6716 68 66.5Z" fill="#D29520"/>
<path d="M80 54C80 54.5523 79.5523 55 79 55C78.4477 55 78 54.5523 78 54C78 53.4477 78.4477 53 79 53C79.5523 53 80 53.4477 80 54Z" fill="#E9A522"/>
<path d="M85 49C85 49.5523 84.5523 50 84 50C83.4477 50 83 49.5523 83 49C83 48.4477 83.4477 48 84 48C84.5523 48 85 48.4477 85 49Z" fill="#E9A522"/>
<path d="M82 47C82 47.5523 81.5523 48 81 48C80.4477 48 80 47.5523 80 47C80 46.4477 80.4477 46 81 46C81.5523 46 82 46.4477 82 47Z" fill="#E9A522"/>
<path d="M85 41C85 41.5523 84.5523 42 84 42C83.4477 42 83 41.5523 83 41C83 40.4477 83.4477 40 84 40C84.5523 40 85 40.4477 85 41Z" fill="#E9A522"/>
<path d="M83 53C83 53.5523 82.5523 54 82 54C81.4477 54 81 53.5523 81 53C81 52.4477 81.4477 52 82 52C82.5523 52 83 52.4477 83 53Z" fill="#E9A522"/>
<path d="M82 59C82 59.5523 81.5523 60 81 60C80.4477 60 80 59.5523 80 59C80 58.4477 80.4477 58 81 58C81.5523 58 82 58.4477 82 59Z" fill="#E9A522"/>
<path d="M83 62.5C83 63.3284 82.3284 64 81.5 64C80.6716 64 80 63.3284 80 62.5C80 61.6716 80.6716 61 81.5 61C82.3284 61 83 61.6716 83 62.5Z" fill="#E9A522"/>
<path d="M78 57.5C78 57.7761 77.7761 58 77.5 58C77.2239 58 77 57.7761 77 57.5C77 57.2239 77.2239 57 77.5 57C77.7761 57 78 57.2239 78 57.5Z" fill="#E9A522"/>
<path d="M81 56.5C81 56.7761 80.7761 57 80.5 57C80.2239 57 80 56.7761 80 56.5C80 56.2239 80.2239 56 80.5 56C80.7761 56 81 56.2239 81 56.5Z" fill="#E9A522"/>
<path d="M77 53.5C77 53.7761 76.7761 54 76.5 54C76.2239 54 76 53.7761 76 53.5C76 53.2239 76.2239 53 76.5 53C76.7761 53 77 53.2239 77 53.5Z" fill="#E9A522"/>
<path d="M81 50.5C81 50.7761 80.7761 51 80.5 51C80.2239 51 80 50.7761 80 50.5C80 50.2239 80.2239 50 80.5 50C80.7761 50 81 50.2239 81 50.5Z" fill="#E9A522"/>
<path d="M79 48.5C79 48.7761 78.7761 49 78.5 49C78.2239 49 78 48.7761 78 48.5C78 48.2239 78.2239 48 78.5 48C78.7761 48 79 48.2239 79 48.5Z" fill="#E9A522"/>
<path d="M81 43.5C81 43.7761 80.7761 44 80.5 44C80.2239 44 80 43.7761 80 43.5C80 43.2239 80.2239 43 80.5 43C80.7761 43 81 43.2239 81 43.5Z" fill="#E9A522"/>
<path d="M84 45.5C84 45.7761 83.7761 46 83.5 46C83.2239 46 83 45.7761 83 45.5C83 45.2239 83.2239 45 83.5 45C83.7761 45 84 45.2239 84 45.5Z" fill="#E9A522"/>
<path d="M76 46.5C76 46.7761 75.7761 47 75.5 47C75.2239 47 75 46.7761 75 46.5C75 46.2239 75.2239 46 75.5 46C75.7761 46 76 46.2239 76 46.5Z" fill="#E9A522"/>
<path d="M83 36.5C83 36.7761 82.7761 37 82.5 37C82.2239 37 82 36.7761 82 36.5C82 36.2239 82.2239 36 82.5 36C82.7761 36 83 36.2239 83 36.5Z" fill="#E9A522"/>
<path d="M84 55.5C84 55.7761 83.7761 56 83.5 56C83.2239 56 83 55.7761 83 55.5C83 55.2239 83.2239 55 83.5 55C83.7761 55 84 55.2239 84 55.5Z" fill="#E9A522"/>
<path d="M85 59.5C85 59.7761 84.7761 60 84.5 60C84.2239 60 84 59.7761 84 59.5C84 59.2239 84.2239 59 84.5 59C84.7761 59 85 59.2239 85 59.5Z" fill="#E9A522"/>
<path d="M79 60.5C79 60.7761 78.7761 61 78.5 61C78.2239 61 78 60.7761 78 60.5C78 60.2239 78.2239 60 78.5 60C78.7761 60 79 60.2239 79 60.5Z" fill="#E9A522"/>
<path d="M75 56.5C75 56.7761 74.7761 57 74.5 57C74.2239 57 74 56.7761 74 56.5C74 56.2239 74.2239 56 74.5 56C74.7761 56 75 56.2239 75 56.5Z" fill="#E9A522"/>
<path fill-rule="evenodd" clip-rule="evenodd" d="M84.2071 26.7929C84.5976 27.1834 84.5976 27.8166 84.2071 28.2071L65.7071 46.7071C65.3166 47.0976 64.6834 47.0976 64.2929 46.7071C63.9024 46.3166 63.9024 45.6834 64.2929 45.2929L82.7929 26.7929C83.1834 26.4024 83.8166 26.4024 84.2071 26.7929Z" fill="#E8A525"/>
</svg>
