<?xml version="1.0" encoding="utf-8"?>
<!-- Generator: Adobe Illustrator 28.2.0, SVG Export Plug-In . SVG Version: 6.00 Build 0)  -->
<svg version="1.1" id="Layer_1" xmlns="http://www.w3.org/2000/svg" xmlns:xlink="http://www.w3.org/1999/xlink" x="0px" y="0px"
	 viewBox="0 0 95 95" style="enable-background:new 0 0 95 95;" xml:space="preserve">
<style type="text/css">
	.st0{fill:#334E63;}
	.st1{fill:#477CA6;}
	.st2{fill:#5393C5;}
	.st3{fill:#FF6699;}
	.st4{fill:#BFD4E5;}
	.st5{fill:#FFFFFF;}
	.st6{fill:#FFCC00;}
	.st7{fill:url(#SVGID_1_);}
</style>
<g>
	<g transform="matrix( 1, 0, 0.1630401611328125, 1, 344.25,489) ">
		<g transform="matrix( 1, 0, 0, 1, 0,0) ">
			<g>
				<g id="leg_0_Layer0_0_FILL_00000025409204826490777110000001654199393038168212_">
					<path class="st0" d="M-205.53-397.71l-6.38-6.65h-6.43v-4.82c0-0.92-0.33-1.72-1-2.38c-0.67-0.67-1.46-1-2.38-1h-0.06
						c-0.92,0-1.72,0.33-2.38,1c-0.33,0.33-0.59,0.7-0.78,1.11c-0.15,0.41-0.22,0.83-0.22,1.28l-0.33,14.8h19.85L-205.53-397.71
						 M-221.72-410.63c0.44,0,0.83,0.17,1.16,0.5s0.5,0.72,0.5,1.16s-0.17,0.83-0.5,1.16c-0.33,0.33-0.72,0.5-1.16,0.5
						c-0.44,0-0.83-0.17-1.16-0.5c-0.33-0.33-0.5-0.72-0.5-1.16s0.17-0.83,0.5-1.16S-222.16-410.63-221.72-410.63z"/>
					<path class="st1" d="M-220.56-410.13c-0.33-0.33-0.72-0.5-1.16-0.5c-0.44,0-0.83,0.17-1.16,0.5s-0.5,0.72-0.5,1.16
						s0.17,0.83,0.5,1.16c0.33,0.33,0.72,0.5,1.16,0.5c0.44,0,0.83-0.17,1.16-0.5c0.33-0.33,0.5-0.72,0.5-1.16
						S-220.22-409.8-220.56-410.13 M-211.19-420.11c0-1.77-0.7-3.29-2.11-4.55c-1.37-1.26-3.05-1.89-5.05-1.89
						c-1.96,0-3.64,0.63-5.05,1.89c-1.4,1.26-2.11,2.77-2.11,4.55l0.55,9.65c0.18-0.41,0.44-0.78,0.78-1.11c0.67-0.67,1.46-1,2.38-1
						h0.06c0.92,0,1.72,0.33,2.38,1c0.67,0.67,1,1.46,1,2.38v4.82h6.43h0.06L-211.19-420.11z"/>
				</g>
			</g>
		</g>
	</g>
	<g transform="matrix( -1, 0, -0.1086883544921875, 1, 327.75,489) ">
		<g transform="matrix( 1, 0, 0, 1, 0,0) ">
			<g>
				<g id="leg_0_Layer0_0_FILL_00000152264242093430715190000006310118670797015728_">
					<path class="st0" d="M345.82-397.71l-6.38-6.65h-6.43v-4.82c0-0.92-0.33-1.72-1-2.38c-0.67-0.67-1.46-1-2.38-1h-0.06
						c-0.92,0-1.72,0.33-2.38,1c-0.33,0.33-0.59,0.7-0.78,1.11c-0.15,0.41-0.22,0.83-0.22,1.28l-0.33,14.8h19.85L345.82-397.71
						 M329.63-410.63c0.44,0,0.83,0.17,1.16,0.5c0.33,0.33,0.5,0.72,0.5,1.16s-0.17,0.83-0.5,1.16c-0.33,0.33-0.72,0.5-1.16,0.5
						s-0.83-0.17-1.16-0.5c-0.33-0.33-0.5-0.72-0.5-1.16s0.17-0.83,0.5-1.16C328.8-410.46,329.19-410.63,329.63-410.63z"/>
					<path class="st1" d="M330.79-410.13c-0.33-0.33-0.72-0.5-1.16-0.5s-0.83,0.17-1.16,0.5c-0.33,0.33-0.5,0.72-0.5,1.16
						s0.17,0.83,0.5,1.16c0.33,0.33,0.72,0.5,1.16,0.5s0.83-0.17,1.16-0.5c0.33-0.33,0.5-0.72,0.5-1.16S331.13-409.8,330.79-410.13
						 M340.16-420.11c0-1.77-0.7-3.29-2.11-4.55c-1.37-1.26-3.05-1.89-5.05-1.89c-1.96,0-3.64,0.63-5.05,1.89
						c-1.4,1.26-2.11,2.77-2.11,4.55l0.55,9.65c0.18-0.41,0.44-0.78,0.78-1.11c0.67-0.67,1.46-1,2.38-1h0.06
						c0.92,0,1.72,0.33,2.38,1c0.67,0.67,1,1.46,1,2.38v4.82h6.43h0.06L340.16-420.11z"/>
				</g>
			</g>
		</g>
	</g>
	<g transform="matrix( -1, 0, 0, 1, 320.5,470.8) ">
		<g transform="matrix( 1, 0, 0, 1, 0,0) ">
			<g>
				<g id="arm_0_Layer0_0_FILL_00000047772981517715498430000001656130466454954662_">
					<path class="st1" d="M295.87-405.57c-0.97,0-1.87-0.18-2.72-0.55c0.55,2.08,0.86,4.3,0.94,6.65c0.04,1.18,0.54,2.2,1.5,3.05
						c0.89,0.81,1.96,1.2,3.22,1.16c1.26-0.04,2.33-0.5,3.22-1.39c0.81-0.92,1.2-1.98,1.16-3.16c-0.13-3.36-0.61-6.51-1.44-9.43
						c-0.3,0.68-0.74,1.31-1.33,1.89C299.16-406.16,297.65-405.57,295.87-405.57 M295.87-418.05c0.76,0,1.47,0.11,2.11,0.33
						c-2.15-3.4-5-6.34-8.54-8.82c-1.04-0.74-2.18-1.02-3.44-0.83c-1.26,0.18-2.24,0.76-2.94,1.72c-0.78,0.96-1.07,2.05-0.89,3.27
						c0.22,1.18,0.83,2.14,1.83,2.88c2.29,1.64,4.19,3.55,5.71,5.71c0.3-0.89,0.82-1.7,1.55-2.44
						C292.56-417.44,294.1-418.05,295.87-418.05 M294.37-414c-0.15,0.15-0.28,0.31-0.39,0.5c-0.33,0.48-0.5,1.04-0.5,1.66
						c0,0.85,0.3,1.57,0.89,2.16c0.63,0.59,1.39,0.89,2.27,0.89c0.67,0,1.26-0.15,1.77-0.44c0.15-0.15,0.3-0.3,0.44-0.44
						c0.3-0.26,0.52-0.5,0.67-0.72c0.22-0.44,0.33-0.92,0.33-1.44c0-0.85-0.33-1.57-1-2.16c-0.59-0.59-1.33-0.89-2.22-0.89
						c-0.55,0-1.04,0.11-1.44,0.33C294.91-414.41,294.63-414.22,294.37-414z"/>
					<path class="st0" d="M301.75-409.23c0.41-0.78,0.61-1.63,0.61-2.55c0-1.7-0.65-3.18-1.94-4.44c-0.72-0.7-1.53-1.19-2.44-1.5
						c-0.64-0.22-1.34-0.33-2.11-0.33c-1.77,0-3.31,0.61-4.6,1.83c-0.74,0.74-1.25,1.55-1.55,2.44c-0.22,0.63-0.33,1.29-0.33,2
						c0,1.7,0.63,3.18,1.89,4.44c0.59,0.54,1.22,0.94,1.89,1.22c0.84,0.37,1.75,0.55,2.72,0.55c1.77,0,3.29-0.59,4.55-1.77
						C301.01-407.92,301.45-408.55,301.75-409.23 M293.99-413.5c0.11-0.18,0.24-0.35,0.39-0.5c0.26-0.22,0.54-0.41,0.83-0.55
						c0.41-0.22,0.89-0.33,1.44-0.33c0.89,0,1.63,0.3,2.22,0.89c0.67,0.59,1,1.31,1,2.16c0,0.52-0.11,1-0.33,1.44
						c-0.15,0.22-0.37,0.46-0.67,0.72c-0.15,0.15-0.3,0.3-0.44,0.44c-0.52,0.3-1.11,0.44-1.77,0.44c-0.89,0-1.64-0.3-2.27-0.89
						c-0.59-0.59-0.89-1.31-0.89-2.16C293.49-412.47,293.65-413.02,293.99-413.5z"/>
				</g>
			</g>
		</g>
	</g>
	<g transform="matrix( 0.9965972900390625, -0.0824127197265625, 0.0824127197265625, 0.9965972900390625, 335.75,487.75) ">
		<g transform="matrix( 1, 0, 0, 1, 0,0) ">
			<g>
				<g id="body_0_Layer0_0_FILL_00000163782951839068889410000006303419248199816377_">
					<path class="st0" d="M-265.88-458.78c1.44-1.4,2.16-3.11,2.16-5.1c0-2-0.72-3.7-2.16-5.1c-1.4-1.4-3.11-2.11-5.1-2.11
						s-3.68,0.7-5.05,2.11c-1.4,1.4-2.11,3.11-2.11,5.1c0,2,0.7,3.7,2.11,5.1c1.37,1.4,3.05,2.11,5.05,2.11
						C-268.99-456.68-267.29-457.38-265.88-458.78 M-228.12-458.78c1.4-1.4,2.11-3.11,2.11-5.1s-0.7-3.7-2.11-5.1
						s-3.11-2.11-5.1-2.11c-2,0-3.68,0.7-5.05,2.11c-1.44,1.4-2.16,3.11-2.16,5.1c0,2,0.72,3.7,2.16,5.1
						c1.37,1.4,3.05,2.11,5.05,2.11C-231.23-456.68-229.53-457.38-228.12-458.78z"/>
				</g>
			</g>
		</g>
		<g transform="matrix( 1, 0, 0, 1, 0,0) ">
			<g>
				<g id="body_0_Layer0_1_FILL_00000088817332315573537840000012525543442944267922_">
					<path class="st2" d="M-237.22-433.39c1.04-1.44,1.59-3.38,1.66-5.82h-33.16c0.07,2.44,0.63,4.38,1.66,5.82H-237.22z"/>
					<path class="st0" d="M-242.93-444.76c1-1.63,1.5-3.47,1.5-5.54c0-2.96-1.04-5.49-3.11-7.6c-2.11-2.11-4.64-3.16-7.6-3.16
						c-2.96,0-5.49,1.05-7.6,3.16c-2.11,2.11-3.16,4.64-3.16,7.6c0,2.07,0.52,3.92,1.55,5.54h-7.37v5.54h33.16v-5.54H-242.93
						 M-246.53-452.02l-1.83,5.82c-0.04,0.15-0.13,0.28-0.28,0.39c-0.15,0.11-0.31,0.17-0.5,0.17h-5.82c-0.15,0-0.3-0.06-0.44-0.17
						c-0.18-0.11-0.3-0.24-0.33-0.39l-1.83-5.82c-0.04-0.18-0.04-0.37,0-0.55c0.07-0.15,0.18-0.3,0.33-0.44l4.77-3.49
						c0.11-0.11,0.26-0.17,0.44-0.17c0.15,0,0.31,0.06,0.5,0.17l4.71,3.49c0.11,0.15,0.2,0.3,0.28,0.44
						C-246.49-452.39-246.49-452.2-246.53-452.02z"/>
					<path class="st3" d="M-248.36-446.2l1.83-5.82c0.04-0.18,0.04-0.37,0-0.55c-0.07-0.15-0.17-0.3-0.28-0.44l-4.71-3.49
						c-0.18-0.11-0.35-0.17-0.5-0.17c-0.18,0-0.33,0.06-0.44,0.17l-4.77,3.49c-0.15,0.15-0.26,0.3-0.33,0.44
						c-0.04,0.18-0.04,0.37,0,0.55l1.83,5.82c0.04,0.15,0.15,0.28,0.33,0.39c0.15,0.11,0.3,0.17,0.44,0.17h5.82
						c0.18,0,0.35-0.06,0.5-0.17C-248.49-445.92-248.4-446.05-248.36-446.2z"/>
					<path class="st1" d="M-231.95-460c0.92-3.7,0.09-5.64-2.5-5.82h-5.93c0-0.07,0-0.17,0-0.28c0.04-0.18,0.06-0.37,0.06-0.55
						c0-2.77-1.13-5.16-3.38-7.15c-2.33-1.89-5.12-2.83-8.37-2.83c-3.25,0-6.04,0.94-8.37,2.83c-2.25,2-3.38,4.38-3.38,7.15
						c0,0.18,0.02,0.37,0.06,0.55c0,0.11,0.02,0.2,0.06,0.28h-5.71c-2.7-0.15-3.66,1.79-2.88,5.82l3.6,15.25h7.37
						c-1.04-1.63-1.55-3.47-1.55-5.54c0-2.96,1.05-5.49,3.16-7.6c2.11-2.11,4.64-3.16,7.6-3.16c2.96,0,5.49,1.05,7.6,3.16
						c2.07,2.11,3.11,4.64,3.11,7.6c0,2.07-0.5,3.92-1.5,5.54h7.37L-231.95-460z"/>
				</g>
			</g>
		</g>
	</g>
	<g transform="matrix( 0.9915313720703125, 0.129852294921875, -0.129852294921875, 0.9915313720703125, 337.2,463.95) ">
		<g transform="matrix( 1, 0, 0, 1, 0,0) ">
			<g>
				<g id="headShock_0_Layer0_0_FILL_00000037688664686660484130000006622517477299931578_">
					<path class="st4" d="M-326.26-389.65c3.81-3.77,5.71-8.34,5.71-13.7c0-5.36-1.9-9.94-5.71-13.75
						c-3.81-3.81-8.39-5.71-13.75-5.71c-5.36,0-9.94,1.9-13.75,5.71c-3.81,3.81-5.71,8.39-5.71,13.75c0,5.36,1.9,9.93,5.71,13.7
						c3.81,3.84,8.39,5.77,13.75,5.77S-330.07-385.81-326.26-389.65 M-328.98-403.35c0,3.03-1.07,5.62-3.22,7.76
						c-2.18,2.18-4.79,3.27-7.82,3.27c-3.03,0-5.62-1.09-7.76-3.27c-2.18-2.14-3.27-4.73-3.27-7.76c0-3.03,1.09-5.62,3.27-7.76
						c2.14-2.18,4.73-3.27,7.76-3.27c3.03,0,5.64,1.09,7.82,3.27C-330.05-408.97-328.98-406.38-328.98-403.35z"/>
					<path class="st5" d="M-332.2-395.59c2.14-2.14,3.22-4.73,3.22-7.76c0-3.03-1.07-5.62-3.22-7.76c-2.18-2.18-4.79-3.27-7.82-3.27
						c-3.03,0-5.62,1.09-7.76,3.27c-2.18,2.14-3.27,4.73-3.27,7.76c0,3.03,1.09,5.62,3.27,7.76c2.14,2.18,4.73,3.27,7.76,3.27
						C-336.98-392.32-334.38-393.41-332.2-395.59z"/>
				</g>
			</g>
		</g>
		<g transform="matrix( 1, 0, 0, 1, 0,0) ">
			<g>
				<g id="headShock_0_Layer0_1_FILL_00000004524997180121268500000009412431459403110793_">
					<path class="st1" d="M-357.15-415.55c-0.7,0.41-1.16,1.02-1.39,1.83l-2.44,9.09c-0.22,0.81-0.13,1.61,0.28,2.38
						c0.48,0.7,1.13,1.16,1.94,1.39h0.06c0.81,0.22,1.59,0.15,2.33-0.22c0.74-0.48,1.22-1.13,1.44-1.94l2.38-9.09
						c0.22-0.81,0.11-1.59-0.33-2.33c-0.41-0.74-1-1.22-1.77-1.44h-0.06C-355.52-416.1-356.33-415.99-357.15-415.55z"/>
				</g>
			</g>
		</g>
		<g transform="matrix( 1, 0, 0, 1, 0,0) ">
			<g>
				<g id="headShock_0_Layer0_2_FILL_00000142146140700421880770000006092716433195952792_">
					<path class="st1" d="M-321.33-413.72c-0.22-0.81-0.68-1.42-1.39-1.83c-0.81-0.44-1.63-0.55-2.44-0.33h-0.06
						c-0.81,0.22-1.42,0.7-1.83,1.44c-0.44,0.74-0.55,1.52-0.33,2.33l2.44,9.09c0.22,0.81,0.7,1.46,1.44,1.94
						c0.74,0.37,1.52,0.44,2.33,0.22h0.06c0.78-0.22,1.4-0.68,1.89-1.39c0.41-0.78,0.5-1.57,0.28-2.38L-321.33-413.72z"/>
				</g>
			</g>
		</g>
		<g transform="matrix( 1, 0, 0, 1, 0,0) ">
			<g>
				<g id="headShock_0_Layer0_3_FILL_00000177453404299597044120000015559150254720010880_">
					<path class="st2" d="M-366.74-393.98c-1.74,1.74-2.61,3.83-2.61,6.27s0.87,4.51,2.61,6.21c1.77,1.77,3.86,2.66,6.27,2.66
						c2.44,0,4.55-0.89,6.32-2.66c1.7-1.7,2.55-3.77,2.55-6.21s-0.85-4.53-2.55-6.27c-1.77-1.77-3.88-2.66-6.32-2.66
						C-362.88-396.64-364.97-395.75-366.74-393.98 M-364.19-383.94c-1.04-1.04-1.55-2.29-1.55-3.77c0-1.44,0.52-2.7,1.55-3.77
						c1.04-1.04,2.27-1.55,3.71-1.55c1.52,0,2.79,0.52,3.83,1.55c1.04,1.07,1.55,2.33,1.55,3.77c0,1.48-0.52,2.74-1.55,3.77
						c-1.04,1.07-2.31,1.61-3.83,1.61C-361.92-382.34-363.15-382.87-364.19-383.94 M-319.44-396.64c-2.4,0-4.49,0.89-6.27,2.66
						c-1.74,1.74-2.61,3.83-2.61,6.27c0,2.44,0.87,4.51,2.61,6.21c1.77,1.77,3.86,2.66,6.27,2.66c2.44,0,4.55-0.89,6.32-2.66
						c1.7-1.7,2.55-3.77,2.55-6.21c0-2.44-0.85-4.53-2.55-6.27C-314.9-395.75-317-396.64-319.44-396.64 M-319.44-382.34
						c-1.44,0-2.68-0.54-3.71-1.61c-1.07-1.04-1.61-2.29-1.61-3.77c0-1.44,0.54-2.7,1.61-3.77c1.04-1.04,2.27-1.55,3.71-1.55
						c1.48,0,2.75,0.52,3.83,1.55c1.04,1.07,1.55,2.33,1.55,3.77c0,1.48-0.52,2.74-1.55,3.77
						C-316.69-382.87-317.96-382.34-319.44-382.34z"/>
					<path class="st1" d="M-365.74-387.71c0,1.48,0.52,2.74,1.55,3.77c1.04,1.07,2.27,1.61,3.71,1.61c1.52,0,2.79-0.54,3.83-1.61
						c1.04-1.04,1.55-2.29,1.55-3.77c0-1.44-0.52-2.7-1.55-3.77c-1.04-1.04-2.31-1.55-3.83-1.55c-1.44,0-2.68,0.52-3.71,1.55
						C-365.22-390.41-365.74-389.16-365.74-387.71 M-323.16-383.94c1.04,1.07,2.27,1.61,3.71,1.61c1.48,0,2.75-0.54,3.83-1.61
						c1.04-1.04,1.55-2.29,1.55-3.77c0-1.44-0.52-2.7-1.55-3.77c-1.07-1.04-2.35-1.55-3.83-1.55c-1.44,0-2.68,0.52-3.71,1.55
						c-1.07,1.07-1.61,2.33-1.61,3.77C-324.77-386.23-324.23-384.98-323.16-383.94z"/>
				</g>
			</g>
		</g>
		<g transform="matrix( 1, 0, 0, 1, 0,0) ">
			<g>
				<g id="headShock_0_Layer0_4_FILL_00000005975180924936832200000009963899135057718451_">
					<path class="st0" d="M-359.59-372.91h8.87c-0.04-7.25-3.47-11.94-10.31-14.08L-359.59-372.91 M-326.43-372.91
						c3.96-0.52,6.21-2.62,6.76-6.32l1-9.7c-6.69,3.44-10.17,8.78-10.42,16.02H-326.43z"/>
					<path class="st2" d="M-318.67-388.93l1.94-18.74l-46.41,0l2.11,20.68c6.84,2.14,10.28,6.84,10.31,14.08h21.62
						C-328.83-380.15-325.36-385.5-318.67-388.93z"/>
				</g>
			</g>
		</g>
		<g transform="matrix( 1, 0, 0, 1, 0,0) ">
			<g>
				<g id="headShock_0_Layer0_5_FILL_00000124858320735943357140000013190191168810357161_">
					<path class="st1" d="M-333.36-386.88c1.74-1.74,2.61-3.83,2.61-6.27c0-2.48-0.87-4.57-2.61-6.27
						c-1.74-1.74-3.83-2.61-6.27-2.61c-2.48,0-4.57,0.87-6.27,2.61c-1.74,1.7-2.61,3.79-2.61,6.27c0,2.44,0.87,4.53,2.61,6.27
						c1.7,1.74,3.79,2.61,6.27,2.61C-337.19-384.28-335.1-385.14-333.36-386.88 M-333.69-393.15c0,1.63-0.59,3.01-1.77,4.16
						c-1.15,1.18-2.53,1.77-4.16,1.77c-1.66,0-3.09-0.59-4.27-1.77c-1.15-1.15-1.72-2.53-1.72-4.16c0-1.66,0.57-3.09,1.72-4.27
						c1.18-1.11,2.61-1.66,4.27-1.66c1.63,0,3.01,0.55,4.16,1.66C-334.28-396.23-333.69-394.81-333.69-393.15z"/>
					<path class="st6" d="M-335.47-388.99c1.18-1.15,1.77-2.53,1.77-4.16c0-1.66-0.59-3.09-1.77-4.27
						c-1.15-1.11-2.53-1.66-4.16-1.66c-1.66,0-3.09,0.55-4.27,1.66c-1.15,1.18-1.72,2.61-1.72,4.27c0,1.63,0.57,3.01,1.72,4.16
						c1.18,1.18,2.61,1.77,4.27,1.77C-338-387.21-336.61-387.81-335.47-388.99 M-336.19-393.15c0,0.67-0.24,1.22-0.72,1.66
						c-0.41,0.48-0.94,0.72-1.61,0.72c-0.67,0-1.24-0.24-1.72-0.72c-0.44-0.44-0.67-1-0.67-1.66c0-0.67,0.22-1.24,0.67-1.72
						c0.48-0.44,1.05-0.67,1.72-0.67c0.67,0,1.2,0.22,1.61,0.67C-336.43-394.39-336.19-393.81-336.19-393.15z"/>
					<path class="st5" d="M-336.91-391.48c0.48-0.44,0.72-1,0.72-1.66c0-0.67-0.24-1.24-0.72-1.72c-0.41-0.44-0.94-0.67-1.61-0.67
						c-0.67,0-1.24,0.22-1.72,0.67c-0.44,0.48-0.67,1.05-0.67,1.72c0,0.67,0.22,1.22,0.67,1.66c0.48,0.48,1.05,0.72,1.72,0.72
						C-337.85-390.76-337.32-391-336.91-391.48z"/>
				</g>
			</g>
		</g>
		<g transform="matrix( 1, 0, 0, 1, 0,0) ">
			<g>
				<g id="headShock_0_Layer0_6_FILL_00000111149695789531622640000013621543218624192662_">
					<path class="st1" d="M-322.6-390.54c0.67-0.63,1-1.39,1-2.27s-0.33-1.66-1-2.33c-0.63-0.63-1.39-0.94-2.27-0.94
						s-1.66,0.31-2.33,0.94c-0.63,0.67-0.94,1.44-0.94,2.33s0.31,1.64,0.94,2.27c0.67,0.63,1.44,0.94,2.33,0.94
						C-323.99-389.6-323.23-389.91-322.6-390.54z"/>
				</g>
			</g>
		</g>
		<g transform="matrix( 1, 0, 0, 1, 0,0) ">
			<g>
				<g id="headShock_0_Layer0_7_FILL_00000171716144812204021400000014958392242900183736_">
					<path class="st1" d="M-352.21-390.54c0.67-0.63,1-1.39,1-2.27c0-0.89-0.33-1.66-1-2.33c-0.63-0.63-1.37-0.94-2.22-0.94
						c-0.89,0-1.66,0.31-2.33,0.94c-0.63,0.67-0.94,1.44-0.94,2.33c0,0.89,0.31,1.64,0.94,2.27c0.67,0.63,1.44,0.94,2.33,0.94
						C-353.58-389.6-352.84-389.91-352.21-390.54z"/>
				</g>
			</g>
		</g>
		<g transform="matrix( 1, 0, 0, 1, 0,0) ">
			<g>
				<g id="headShock_0_Layer0_8_FILL_00000140726892625746416700000012651997618815047338_">
					<path class="st0" d="M-348.66-380.89c-0.59,0.59-0.89,1.31-0.89,2.16s0.3,1.57,0.89,2.16c0.15,0.15,0.32,0.28,0.5,0.39
						c0.03-0.03,0.07-0.07,0.11-0.11c0.74-0.7,1.11-1.55,1.11-2.55c0-0.98-0.35-1.83-1.05-2.55
						C-348.24-381.26-348.46-381.1-348.66-380.89 M-329.98-378.73c0-0.85-0.3-1.57-0.89-2.16c-0.2-0.2-0.43-0.37-0.67-0.5
						c-0.67,0.72-1,1.57-1,2.55c0,1,0.35,1.85,1.05,2.55c0.04,0.04,0.08,0.08,0.11,0.11c0.18-0.11,0.35-0.24,0.5-0.39
						C-330.27-377.16-329.98-377.88-329.98-378.73z"/>
					<path class="st5" d="M-331.53-381.39c-0.44-0.26-0.94-0.39-1.5-0.39h-13.47c-0.56,0-1.06,0.13-1.5,0.39
						c0.7,0.72,1.05,1.57,1.05,2.55c0,1-0.37,1.85-1.11,2.55c-0.04,0.04-0.08,0.08-0.11,0.11c0.48,0.33,1.03,0.5,1.66,0.5h13.47
						c0.63,0,1.19-0.17,1.66-0.5c-0.03-0.03-0.07-0.07-0.11-0.11c-0.7-0.7-1.05-1.55-1.05-2.55
						C-332.53-379.82-332.2-380.67-331.53-381.39z"/>
				</g>
			</g>
		</g>
	</g>
	<g transform="matrix( 1.2486419677734375, 0, 0, 0.8283538818359375, 334.9,477.35) ">
		<g transform="matrix( 1, 0, 0, 1, 0,0) ">
			<g>
				<g id="shadow_0_Layer0_0_FILL_00000104690057149869794310000014255073273801020044_">
					
						<radialGradient id="SVGID_1_" cx="-452.4231" cy="152.2053" r="15.0678" gradientTransform="matrix(1.2486 0 0 -0.8284 334.9 -382.3499)" gradientUnits="userSpaceOnUse">
						<stop  offset="0" style="stop-color:#000000;stop-opacity:0.302"/>
						<stop  offset="1" style="stop-color:#000000;stop-opacity:0"/>
					</radialGradient>
					<path class="st7" d="M-219.53-519.02c-2.88-2.88-6.38-4.32-10.48-4.32c-4.1,0-7.63,1.44-10.59,4.32
						c-2.88,2.96-4.32,6.49-4.32,10.59c0,4.1,1.44,7.6,4.32,10.48c2.96,2.96,6.49,4.44,10.59,4.44c4.1,0,7.6-1.48,10.48-4.44
						c2.96-2.88,4.44-6.38,4.44-10.48C-215.1-512.53-216.58-516.06-219.53-519.02z"/>
				</g>
			</g>
		</g>
	</g>
	<g transform="matrix( -0.25885009765625, 0.965911865234375, -0.965911865234375, -0.25885009765625, 355.05,477.35) ">
		<g transform="matrix( 1, 0, 0, 1, 0,0) ">
			<g>
				<g id="arm_0_Layer0_0_FILL_00000140705717502772721770000003399791653293647495_">
					<path class="st1" d="M-325.93,400.62c-0.97,0-1.87-0.18-2.72-0.55c0.55,2.08,0.86,4.3,0.94,6.65c0.04,1.18,0.54,2.2,1.5,3.05
						c0.89,0.81,1.96,1.2,3.22,1.16c1.26-0.04,2.33-0.5,3.22-1.39c0.81-0.92,1.2-1.98,1.16-3.16c-0.13-3.36-0.61-6.51-1.44-9.43
						c-0.3,0.68-0.74,1.31-1.33,1.89C-322.64,400.03-324.16,400.62-325.93,400.62 M-325.93,388.14c0.76,0,1.47,0.11,2.11,0.33
						c-2.15-3.4-5-6.34-8.54-8.82c-1.04-0.74-2.18-1.02-3.44-0.83c-1.26,0.18-2.24,0.76-2.94,1.72c-0.78,0.96-1.07,2.05-0.89,3.27
						c0.22,1.18,0.83,2.14,1.83,2.88c2.29,1.64,4.19,3.55,5.71,5.71c0.3-0.89,0.82-1.7,1.55-2.44
						C-329.24,388.75-327.71,388.14-325.93,388.14 M-327.43,392.19c-0.15,0.15-0.28,0.31-0.39,0.5c-0.33,0.48-0.5,1.04-0.5,1.66
						c0,0.85,0.3,1.57,0.89,2.16c0.63,0.59,1.39,0.89,2.27,0.89c0.67,0,1.26-0.15,1.77-0.44c0.15-0.15,0.3-0.3,0.44-0.44
						c0.3-0.26,0.52-0.5,0.67-0.72c0.22-0.44,0.33-0.92,0.33-1.44c0-0.85-0.33-1.57-1-2.16c-0.59-0.59-1.33-0.89-2.22-0.89
						c-0.55,0-1.04,0.11-1.44,0.33C-326.9,391.78-327.17,391.97-327.43,392.19z"/>
					<path class="st0" d="M-320.06,396.96c0.41-0.78,0.61-1.63,0.61-2.55c0-1.7-0.65-3.18-1.94-4.44c-0.72-0.7-1.53-1.19-2.44-1.5
						c-0.64-0.22-1.34-0.33-2.11-0.33c-1.77,0-3.31,0.61-4.6,1.83c-0.74,0.74-1.25,1.55-1.55,2.44c-0.22,0.63-0.33,1.29-0.33,2
						c0,1.7,0.63,3.18,1.89,4.44c0.59,0.54,1.22,0.94,1.89,1.22c0.84,0.37,1.75,0.55,2.72,0.55c1.77,0,3.29-0.59,4.55-1.77
						C-320.8,398.27-320.35,397.64-320.06,396.96 M-327.82,392.69c0.11-0.18,0.24-0.35,0.39-0.5c0.26-0.22,0.54-0.41,0.83-0.55
						c0.41-0.22,0.89-0.33,1.44-0.33c0.89,0,1.63,0.3,2.22,0.89c0.67,0.59,1,1.31,1,2.16c0,0.52-0.11,1-0.33,1.44
						c-0.15,0.22-0.37,0.46-0.67,0.72c-0.15,0.15-0.3,0.3-0.44,0.44c-0.52,0.3-1.11,0.44-1.77,0.44c-0.89,0-1.64-0.3-2.27-0.89
						c-0.59-0.59-0.89-1.31-0.89-2.16C-328.32,393.72-328.15,393.17-327.82,392.69z"/>
				</g>
			</g>
		</g>
	</g>
	<g transform="matrix( -0.383636474609375, 0.9234771728515625, -0.9234771728515625, -0.383636474609375, 334.35,480.45) ">
		<g transform="matrix( 1, 0, 0, 1, 0,0) ">
			<g>
				<g id="hand_0_Layer0_0_FILL_00000099663123840238590860000010653211439951911821_">
					<path class="st4" d="M-279.69,438.54c-0.07-0.07-0.13-0.06-0.17,0.06c-0.07,0.11-0.13,0.24-0.17,0.39v3.88
						c0,0.11,0.06,0.26,0.17,0.44c0.07,0.04,0.17,0.06,0.28,0.06c2.07-0.04,3.84-0.79,5.32-2.27h0.06c1.55-1.55,2.37-3.44,2.44-5.66
						c0.04-2.25-0.68-4.16-2.16-5.71l-0.17-0.17c-0.02,0.41-0.09,0.82-0.22,1.22c-0.38,1.4-1.19,2.49-2.44,3.27
						c0.18,0.4,0.28,0.83,0.28,1.28c-0.07,0.85-0.37,1.59-0.89,2.22c-0.04,0-0.09,0.02-0.17,0.06
						C-278.09,438.19-278.81,438.5-279.69,438.54 M-284.74,426.23c-0.31,0.07-0.62,0.14-0.94,0.22c-2.07,0.48-3.7,1.68-4.88,3.6
						c-1.11,1.92-1.42,3.96-0.94,6.1c0,0.04,0,0.07,0,0.11c0.55,2.03,1.7,3.6,3.44,4.71c0.11,0.07,0.22,0.11,0.33,0.11
						c0.07-0.04,0.13-0.11,0.17-0.22l2.16-3.38c0.07-0.07,0.11-0.15,0.11-0.22c-0.07-0.15-0.15-0.26-0.22-0.33
						c-0.67-0.44-1.11-1.07-1.33-1.89c0-0.04,0-0.07,0-0.11c-0.18-0.81-0.06-1.59,0.39-2.33c0.36-0.58,0.8-1.01,1.33-1.28
						c-0.42-1.21-0.47-2.45-0.17-3.71C-285.15,427.13-284.97,426.67-284.74,426.23z"/>
					<path class="st2" d="M-274.81,426.4c-0.74-1.37-1.87-2.29-3.38-2.77c-1.48-0.44-2.94-0.28-4.38,0.5
						c-0.93,0.55-1.65,1.25-2.16,2.11c-0.23,0.44-0.41,0.9-0.55,1.39c-0.31,1.26-0.25,2.5,0.17,3.71c0.11,0.24,0.22,0.48,0.33,0.72
						c0.78,1.37,1.92,2.27,3.44,2.72c1.52,0.41,2.96,0.24,4.32-0.5c0.1-0.06,0.2-0.13,0.28-0.22c1.25-0.78,2.06-1.87,2.44-3.27
						c0.13-0.4,0.2-0.81,0.22-1.22C-273.98,428.48-274.22,427.43-274.81,426.4z"/>
				</g>
			</g>
		</g>
	</g>
	<g transform="matrix( -1, 0, 0, 1, 311.7,491) ">
		<g transform="matrix( 1, 0, 0, 1, 0,0) ">
			<g>
				<g id="hand_0_Layer0_0_FILL_00000016788811988296137870000004159138372126755208_">
					<path class="st4" d="M288.46-407.86c-0.07-0.07-0.13-0.06-0.17,0.06c-0.07,0.11-0.13,0.24-0.17,0.39v3.88
						c0,0.11,0.06,0.26,0.17,0.44c0.07,0.04,0.17,0.06,0.28,0.06c2.07-0.04,3.84-0.79,5.32-2.27h0.06c1.55-1.55,2.37-3.44,2.44-5.66
						c0.04-2.25-0.68-4.16-2.16-5.71l-0.17-0.17c-0.02,0.41-0.09,0.82-0.22,1.22c-0.38,1.4-1.19,2.49-2.44,3.27
						c0.18,0.4,0.28,0.83,0.28,1.28c-0.07,0.85-0.37,1.59-0.89,2.22c-0.04,0-0.09,0.02-0.17,0.06
						C290.07-408.21,289.35-407.9,288.46-407.86 M283.41-420.17c-0.31,0.07-0.62,0.14-0.94,0.22c-2.07,0.48-3.7,1.68-4.88,3.6
						c-1.11,1.92-1.42,3.96-0.94,6.1c0,0.04,0,0.07,0,0.11c0.55,2.03,1.7,3.6,3.44,4.71c0.11,0.07,0.22,0.11,0.33,0.11
						c0.07-0.04,0.13-0.11,0.17-0.22l2.16-3.38c0.07-0.07,0.11-0.15,0.11-0.22c-0.07-0.15-0.15-0.26-0.22-0.33
						c-0.67-0.44-1.11-1.07-1.33-1.89c0-0.04,0-0.07,0-0.11c-0.18-0.81-0.06-1.59,0.39-2.33c0.36-0.58,0.8-1.01,1.33-1.28
						c-0.42-1.21-0.47-2.45-0.17-3.71C283-419.27,283.18-419.73,283.41-420.17z"/>
					<path class="st2" d="M293.34-420.01c-0.74-1.37-1.87-2.29-3.38-2.77c-1.48-0.44-2.94-0.28-4.38,0.5
						c-0.93,0.55-1.65,1.25-2.16,2.11c-0.23,0.44-0.41,0.9-0.55,1.39c-0.31,1.26-0.25,2.5,0.17,3.71c0.11,0.24,0.22,0.48,0.33,0.72
						c0.78,1.37,1.92,2.27,3.44,2.72c1.52,0.41,2.96,0.24,4.32-0.5c0.1-0.06,0.2-0.13,0.28-0.22c1.25-0.78,2.06-1.87,2.44-3.27
						c0.13-0.4,0.2-0.81,0.22-1.22C294.17-417.92,293.93-418.97,293.34-420.01z"/>
				</g>
			</g>
		</g>
	</g>
</g>
</svg>
