<svg width="96" height="96" viewBox="0 0 96 96" fill="none" xmlns="http://www.w3.org/2000/svg">
<path d="M16 14C16 10.6863 18.6863 8 22 8H74C77.3137 8 80 10.6863 80 14V82C80 85.3137 77.3137 88 74 88H22C18.6863 88 16 85.3137 16 82V14Z" fill="#2DA74F"/>
<path fill-rule="evenodd" clip-rule="evenodd" d="M22 6H74C78.4183 6 82 9.58172 82 14V82C82 86.4183 78.4183 90 74 90H22C17.5817 90 14 86.4183 14 82V14C14 9.58172 17.5817 6 22 6ZM22 8C18.6863 8 16 10.6863 16 14V82C16 85.3137 18.6863 88 22 88H74C77.3137 88 80 85.3137 80 82V14C80 10.6863 77.3137 8 74 8H22Z" fill="#2C4404"/>
<path d="M16 22H80V82C80 85.3137 77.3137 88 74 88H22C18.6863 88 16 85.3137 16 82V22Z" fill="#FFC28A"/>
<path fill-rule="evenodd" clip-rule="evenodd" d="M28 52C28 51.4477 28.4477 51 29 51H37C37.5523 51 38 51.4477 38 52C38 52.5523 37.5523 53 37 53H29C28.4477 53 28 52.5523 28 52Z" fill="#FFD4AD"/>
<path fill-rule="evenodd" clip-rule="evenodd" d="M44 55C44 54.4477 44.4477 54 45 54H53C53.5523 54 54 54.4477 54 55C54 55.5523 53.5523 56 53 56H45C44.4477 56 44 55.5523 44 55Z" fill="#FFD4AD"/>
<path fill-rule="evenodd" clip-rule="evenodd" d="M24 62C24 61.4477 24.4477 61 25 61H30C30.5523 61 31 61.4477 31 62C31 62.5523 30.5523 63 30 63H25C24.4477 63 24 62.5523 24 62Z" fill="#FFD4AD"/>
<path fill-rule="evenodd" clip-rule="evenodd" d="M16 48C16 47.4477 16.4477 47 17 47H22C22.5523 47 23 47.4477 23 48C23 48.5523 22.5523 49 22 49H17C16.4477 49 16 48.5523 16 48Z" fill="#FFD4AD"/>
<path fill-rule="evenodd" clip-rule="evenodd" d="M37 64C37 63.4477 37.4477 63 38 63H46C46.5523 63 47 63.4477 47 64C47 64.5523 46.5523 65 46 65H38C37.4477 65 37 64.5523 37 64Z" fill="#FFD4AD"/>
<path fill-rule="evenodd" clip-rule="evenodd" d="M34 48C34.5523 48 35 48.4477 35 49V54C35 54.5523 34.5523 55 34 55C33.4477 55 33 54.5523 33 54V49C33 48.4477 33.4477 48 34 48Z" fill="#FFD4AD"/>
<path fill-rule="evenodd" clip-rule="evenodd" d="M77 48C77.5523 48 78 48.4477 78 49V54C78 54.5523 77.5523 55 77 55C76.4477 55 76 54.5523 76 54V49C76 48.4477 76.4477 48 77 48Z" fill="#FFD4AD"/>
<path fill-rule="evenodd" clip-rule="evenodd" d="M27 60C27.5523 60 28 60.4477 28 61V64C28 64.5523 27.5523 65 27 65C26.4477 65 26 64.5523 26 64V61C26 60.4477 26.4477 60 27 60Z" fill="#FFD4AD"/>
<path fill-rule="evenodd" clip-rule="evenodd" d="M19 46C19.5523 46 20 46.4477 20 47V50C20 50.5523 19.5523 51 19 51C18.4477 51 18 50.5523 18 50V47C18 46.4477 18.4477 46 19 46Z" fill="#FFD4AD"/>
<path fill-rule="evenodd" clip-rule="evenodd" d="M41 61C41.5523 61 42 61.4477 42 62V67C42 67.5523 41.5523 68 41 68C40.4477 68 40 67.5523 40 67V62C40 61.4477 40.4477 61 41 61Z" fill="#FFD4AD"/>
<path d="M50 51C50 49.8954 50.8954 49 52 49H70C71.1046 49 72 49.8954 72 51V86H50V51Z" fill="#CA693F"/>
<path fill-rule="evenodd" clip-rule="evenodd" d="M74 88H48V51C48 48.7909 49.7909 47 52 47H70C72.2091 47 74 48.7909 74 51V88ZM52 49C50.8954 49 50 49.8954 50 51V86H72V51C72 49.8954 71.1046 49 70 49H52Z" fill="#703514"/>
<path fill-rule="evenodd" clip-rule="evenodd" d="M61 49C61.5523 49 62 49.4477 62 50V85C62 85.5523 61.5523 86 61 86C60.4477 86 60 85.5523 60 85V50C60 49.4477 60.4477 49 61 49Z" fill="#B95125"/>
<path fill-rule="evenodd" clip-rule="evenodd" d="M65 49C65.5523 49 66 49.4477 66 50V85C66 85.5523 65.5523 86 65 86C64.4477 86 64 85.5523 64 85V50C64 49.4477 64.4477 49 65 49Z" fill="#B95125"/>
<path fill-rule="evenodd" clip-rule="evenodd" d="M69 49C69.5523 49 70 49.4477 70 50V85C70 85.5523 69.5523 86 69 86C68.4477 86 68 85.5523 68 85V50C68 49.4477 68.4477 49 69 49Z" fill="#B95125"/>
<path fill-rule="evenodd" clip-rule="evenodd" d="M57 49C57.5523 49 58 49.4477 58 50V85C58 85.5523 57.5523 86 57 86C56.4477 86 56 85.5523 56 85V50C56 49.4477 56.4477 49 57 49Z" fill="#B95125"/>
<path fill-rule="evenodd" clip-rule="evenodd" d="M53 49C53.5523 49 54 49.4477 54 50V85C54 85.5523 53.5523 86 53 86C52.4477 86 52 85.5523 52 85V50C52 49.4477 52.4477 49 53 49Z" fill="#B95125"/>
<path fill-rule="evenodd" clip-rule="evenodd" d="M50 51C50 49.8954 50.8954 49 52 49H70C70.5523 49 71 49.4477 71 50C71 50.5523 70.5523 51 70 51H52V82C52 82.5523 51.5523 83 51 83C50.4477 83 50 82.5523 50 82V51Z" fill="#F0895D"/>
<path fill-rule="evenodd" clip-rule="evenodd" d="M55 62C55.5523 62 56 62.4477 56 63V66C56 66.5523 55.5523 67 55 67C54.4477 67 54 66.5523 54 66V63C54 62.4477 54.4477 62 55 62Z" fill="#703513"/>
<path d="M67 8H75V20H67V8Z" fill="#CDEA8F"/>
<path d="M52 8H60V20H52V8Z" fill="#CDEA8F"/>
<path d="M36 8H44V20H36V8Z" fill="#CDEA8F"/>
<path d="M21 8H29V20H21V8Z" fill="#CDEA8F"/>
<path d="M16 40H80V43H16V40Z" fill="#D89A61"/>
<path d="M15.4471 23.1056C15.7859 22.428 16.4784 22 17.236 22H78.7638C79.5214 22 80.2139 22.428 80.5527 23.1056L86.5527 35.1056C87.2176 36.4354 86.2506 38 84.7638 38H11.236C9.74922 38 8.78222 36.4354 9.44712 35.1056L15.4471 23.1056Z" fill="#46C963"/>
<path fill-rule="evenodd" clip-rule="evenodd" d="M17.2361 20H78.764C80.2791 20 81.6641 20.856 82.3417 22.2111L88.3417 34.2111C89.6715 36.8708 87.7375 40 84.764 40H11.2361C8.26259 40 6.32861 36.8708 7.65841 34.2111L13.6584 22.2111C14.336 20.856 15.721 20 17.2361 20ZM17.2361 22C16.4786 22 15.786 22.428 15.4473 23.1056L9.44726 35.1056C8.78236 36.4354 9.74936 38 11.2361 38H84.764C86.2507 38 87.2177 36.4354 86.5528 35.1056L80.5528 23.1056C80.2141 22.428 79.5215 22 78.764 22H17.2361Z" fill="#507515"/>
<path fill-rule="evenodd" clip-rule="evenodd" d="M10 37C10 36.4477 10.4477 36 11 36H85C85.5523 36 86 36.4477 86 37C86 37.5523 85.5523 38 85 38H11C10.4477 38 10 37.5523 10 37Z" fill="#6DF08A"/>
<path d="M67 22H75L81 38H72L67 22Z" fill="#F8FFEA"/>
<path d="M52 22H60L63 38H54L52 22Z" fill="#F8FFEA"/>
<path d="M36 22H44L42 38H33L36 22Z" fill="#F8FFEA"/>
<path d="M21 22H29L24 38H15L21 22Z" fill="#F8FFEA"/>
<path d="M82 88C85.3137 88 88 85.3137 88 82C88 79.3336 86.2607 77.0734 83.8547 76.2921C83.0444 71.5829 78.9406 68 74 68C70.3872 68 67.2218 69.9159 65.4645 72.7871C64.4163 72.2826 63.2411 72 62 72C58.1742 72 54.9757 74.6855 54.1866 78.2742C53.1897 77.3588 51.8601 76.8 50.4 76.8C49.5312 76.8 48.7086 76.9978 47.9748 77.3509C46.7447 75.3411 44.529 74 42 74C40.3709 74 38.8717 74.5565 37.6823 75.4898C36.5687 71.1819 32.6559 68 28 68C24.3872 68 21.2218 69.9159 19.4645 72.7871C18.4163 72.2826 17.2411 72 16 72C11.5817 72 8 75.5817 8 80C8 84.4183 11.5817 88 16 88H82Z" fill="#8CB714"/>
<path fill-rule="evenodd" clip-rule="evenodd" d="M90 82C90 86.4183 86.4183 90 82 90H16C10.4772 90 6 85.5229 6 80C6 74.4771 10.4772 70 16 70C16.9452 70 17.8618 70.1317 18.7312 70.3781C20.9301 67.7074 24.265 66 28 66C32.6926 66 36.7529 68.6923 38.726 72.6146C39.7413 72.2179 40.846 72 42 72C44.6629 72 47.0543 73.1574 48.7002 74.9913C49.2477 74.866 49.8168 74.8 50.4 74.8C51.3737 74.8 52.3057 74.9838 53.1621 75.3181C54.8411 72.1548 58.1674 70 62 70C62.9452 70 63.8618 70.1316 64.7313 70.3781C66.9301 67.7074 70.265 66 74 66C79.5365 66 84.1942 69.7477 85.5803 74.8445C88.1995 76.1576 90 78.8666 90 82ZM83.8547 76.2921C86.2607 77.0734 88 79.3336 88 82C88 85.3137 85.3137 88 82 88H16C11.5817 88 8 84.4183 8 80C8 75.5817 11.5817 72 16 72C17.2411 72 18.4163 72.2826 19.4645 72.7871C21.2218 69.9159 24.3872 68 28 68C31.9224 68 35.3174 70.2583 36.9556 73.5457C37.262 74.1604 37.5069 74.8112 37.6823 75.4898C38.2209 75.0672 38.823 74.7218 39.472 74.4704C40.2561 74.1666 41.1086 74 42 74C44.529 74 46.7447 75.3411 47.9748 77.3509C48.7086 76.9978 49.5312 76.8 50.4 76.8C51.1071 76.8 51.7836 76.9311 52.4066 77.1702C53.0699 77.4249 53.6725 77.8021 54.1866 78.2742C54.341 77.572 54.5876 76.9044 54.9132 76.2848C56.2514 73.7374 58.9228 72 62 72C63.2411 72 64.4163 72.2826 65.4645 72.7871C67.2218 69.9159 70.3872 68 74 68C78.9406 68 83.0444 71.5829 83.8547 76.2921Z" fill="#415E04"/>
<path fill-rule="evenodd" clip-rule="evenodd" d="M11.2685 73.1863C12.5145 72.2963 13.8263 72 14.9998 72C15.5521 72 15.9998 72.4477 15.9998 73C15.9998 73.5523 15.5521 74 14.9998 74C14.1732 74 13.285 74.2037 12.431 74.8137C11.5717 75.4276 10.6751 76.5044 9.92825 78.3714C9.72314 78.8842 9.14117 79.1336 8.62839 78.9285C8.1156 78.7234 7.86619 78.1414 8.0713 77.6286C8.9245 75.4956 10.0279 74.0724 11.2685 73.1863Z" fill="#C0EF3A"/>
<path fill-rule="evenodd" clip-rule="evenodd" d="M28.8039 69.9806C25.3188 69.2835 22.6668 71.4443 21.8001 72.6C21.4687 73.0418 20.8419 73.1314 20.4001 72.8C19.9582 72.4686 19.8687 71.8418 20.2001 71.4C21.3333 69.889 24.6814 67.1165 29.1962 68.0194C29.7377 68.1277 30.089 68.6546 29.9806 69.1961C29.8723 69.7377 29.3455 70.0889 28.8039 69.9806Z" fill="#C0EF3A"/>
<path fill-rule="evenodd" clip-rule="evenodd" d="M74.9923 68.3759C75.0608 68.924 74.6721 69.4238 74.124 69.4923C71.1385 69.8655 69.2121 71.2021 68.7071 71.7071C68.3166 72.0976 67.6834 72.0976 67.2929 71.7071C66.9024 71.3166 66.9024 70.6834 67.2929 70.2929C68.1212 69.4646 70.4615 67.9345 73.876 67.5077C74.424 67.4392 74.9238 67.8279 74.9923 68.3759Z" fill="#C0EF3A"/>
<path d="M77 79.5C77 80.3284 76.3284 81 75.5 81C74.6716 81 74 80.3284 74 79.5C74 78.6716 74.6716 78 75.5 78C76.3284 78 77 78.6716 77 79.5Z" fill="#77A000"/>
<path d="M71 84.5C71 85.3284 70.3284 86 69.5 86C68.6716 86 68 85.3284 68 84.5C68 83.6716 68.6716 83 69.5 83C70.3284 83 71 83.6716 71 84.5Z" fill="#77A000"/>
<path d="M79 75.5C79 76.3284 78.3284 77 77.5 77C76.6716 77 76 76.3284 76 75.5C76 74.6716 76.6716 74 77.5 74C78.3284 74 79 74.6716 79 75.5Z" fill="#77A000"/>
<path d="M72 78.5C72 79.8807 70.8807 81 69.5 81C68.1193 81 67 79.8807 67 78.5C67 77.1193 68.1193 76 69.5 76C70.8807 76 72 77.1193 72 78.5Z" fill="#77A000"/>
<path d="M84 81C84 82.1046 83.1046 83 82 83C80.8954 83 80 82.1046 80 81C80 79.8954 80.8954 79 82 79C83.1046 79 84 79.8954 84 81Z" fill="#77A000"/>
<path d="M77 85C77 86.1046 76.1046 87 75 87C73.8954 87 73 86.1046 73 85C73 83.8954 73.8954 83 75 83C76.1046 83 77 83.8954 77 85Z" fill="#77A000"/>
<path d="M36 83C36 84.1046 35.1046 85 34 85C32.8954 85 32 84.1046 32 83C32 81.8954 32.8954 81 34 81C35.1046 81 36 81.8954 36 83Z" fill="#77A000"/>
<path d="M30 80.5C30 81.3284 29.3284 82 28.5 82C27.6716 82 27 81.3284 27 80.5C27 79.6716 27.6716 79 28.5 79C29.3284 79 30 79.6716 30 80.5Z" fill="#77A000"/>
<path d="M28 84.5C28 85.3284 27.3284 86 26.5 86C25.6716 86 25 85.3284 25 84.5C25 83.6716 25.6716 83 26.5 83C27.3284 83 28 83.6716 28 84.5Z" fill="#77A000"/>
<path d="M40 79.5C40 80.3284 39.3284 81 38.5 81C37.6716 81 37 80.3284 37 79.5C37 78.6716 37.6716 78 38.5 78C39.3284 78 40 78.6716 40 79.5Z" fill="#77A000"/>
<path d="M45 84.5C45 85.3284 44.3284 86 43.5 86C42.6716 86 42 85.3284 42 84.5C42 83.6716 42.6716 83 43.5 83C44.3284 83 45 83.6716 45 84.5Z" fill="#77A000"/>
<path d="M22 84C22 84.5523 21.5523 85 21 85C20.4477 85 20 84.5523 20 84C20 83.4477 20.4477 83 21 83C21.5523 83 22 83.4477 22 84Z" fill="#77A000"/>
<path d="M25 79C25 79.5523 24.5523 80 24 80C23.4477 80 23 79.5523 23 79C23 78.4477 23.4477 78 24 78C24.5523 78 25 78.4477 25 79Z" fill="#77A000"/>
<path d="M33 77C33 77.5523 32.5523 78 32 78C31.4477 78 31 77.5523 31 77C31 76.4477 31.4477 76 32 76C32.5523 76 33 76.4477 33 77Z" fill="#77A000"/>
<path d="M18 85C18 85.5523 17.5523 86 17 86C16.4477 86 16 85.5523 16 85C16 84.4477 16.4477 84 17 84C17.5523 84 18 84.4477 18 85Z" fill="#77A000"/>
<path d="M47 80C47 80.5523 46.5523 81 46 81C45.4477 81 45 80.5523 45 80C45 79.4477 45.4477 79 46 79C46.5523 79 47 79.4477 47 80Z" fill="#77A000"/>
<path d="M41 83C41 83.5523 40.5523 84 40 84C39.4477 84 39 83.5523 39 83C39 82.4477 39.4477 82 40 82C40.5523 82 41 82.4477 41 83Z" fill="#77A000"/>
<path d="M51 85C51 85.5523 50.5523 86 50 86C49.4477 86 49 85.5523 49 85C49 84.4477 49.4477 84 50 84C50.5523 84 51 84.4477 51 85Z" fill="#77A000"/>
<path d="M74 74C74 74.5523 73.5523 75 73 75C72.4477 75 72 74.5523 72 74C72 73.4477 72.4477 73 73 73C73.5523 73 74 73.4477 74 74Z" fill="#77A000"/>
<path d="M81 85C81 85.5523 80.5523 86 80 86C79.4477 86 79 85.5523 79 85C79 84.4477 79.4477 84 80 84C80.5523 84 81 84.4477 81 85Z" fill="#77A000"/>
<path d="M86 83C86 83.5523 85.5523 84 85 84C84.4477 84 84 83.5523 84 83C84 82.4477 84.4477 82 85 82C85.5523 82 86 82.4477 86 83Z" fill="#77A000"/>
<path d="M61 85C61 85.5523 60.5523 86 60 86C59.4477 86 59 85.5523 59 85C59 84.4477 59.4477 84 60 84C60.5523 84 61 84.4477 61 85Z" fill="#77A000"/>
<path d="M64 82C64 82.5523 63.5523 83 63 83C62.4477 83 62 82.5523 62 82C62 81.4477 62.4477 81 63 81C63.5523 81 64 81.4477 64 82Z" fill="#77A000"/>
<path d="M67 84C67 84.5523 66.5523 85 66 85C65.4477 85 65 84.5523 65 84C65 83.4477 65.4477 83 66 83C66.5523 83 67 83.4477 67 84Z" fill="#77A000"/>
</svg>
