<?xml version="1.0" encoding="utf-8"?>
<!-- Generator: Adobe Illustrator 28.2.0, SVG Export Plug-In . SVG Version: 6.00 Build 0)  -->
<svg version="1.1" id="Layer_1" xmlns="http://www.w3.org/2000/svg" xmlns:xlink="http://www.w3.org/1999/xlink" x="0px" y="0px"
	 viewBox="0 0 95 95" style="enable-background:new 0 0 95 95;" xml:space="preserve">
<style type="text/css">
	.st0{fill:#454A51;}
	.st1{fill:#3C3E41;}
	.st2{fill:#FFFFFF;}
	.st3{fill:#BFD4E5;}
	.st4{fill:#BF7958;}
	.st5{fill:#676AC6;}
	.st6{fill:#3DBF7B;}
	.st7{fill:#25A863;}
	.st8{fill:#A8603F;}
	.st9{fill:url(#SVGID_1_);}
	.st10{fill:#955435;}
	.st11{fill:#71A2BE;}
	.st12{fill:#EEA160;}
</style>
<g>
	
		<g id="back_FL_FL_FL_FL_FL_FL_FL_FL_FL_FL_FL_FL_FL_FL_FL_FL_FL_FL_FL_FL_FL_FL_FL_FL" transform="matrix( 1, 0, 0, 1, 48.25,354.4) ">
		<g transform="matrix( 1, 0, 0, 1, 0,0) ">
			<g>
				<g id="Symbol_1_0_Layer0_0_MEMBER_0_FILL_00000132066984007344320890000011683610696908988825_">
					<path class="st0" d="M-23.6-323.14l-3.67-0.2c-0.4-0.03-0.76,0.1-1.09,0.4c-0.33,0.3-0.51,0.66-0.55,1.09
						c-0.23,4.66-2.08,8.76-5.55,12.29c-0.3,0.23-0.45,0.56-0.45,0.99c-0.03,0.46,0.08,0.84,0.35,1.14v0.05
						c0.03-0.03,0.07-0.07,0.1-0.1c5.12-4.46,8.56-9.37,10.31-14.72C-24.05-322.53-23.87-322.84-23.6-323.14z"/>
					<path class="st1" d="M-13.24-322.55l-10.36-0.59c-0.26,0.3-0.45,0.61-0.55,0.94c-1.75,5.35-5.19,10.26-10.31,14.72
						c-0.03,0.03-0.07,0.07-0.1,0.1c0.3,0.3,0.64,0.48,1.04,0.55c10.91,1.16,18.14-3.35,21.71-13.53c0.1-0.36,0.12-0.69,0.05-0.99
						c-0.1-0.33-0.28-0.59-0.55-0.79C-12.6-322.41-12.91-322.55-13.24-322.55z"/>
				</g>
			</g>
		</g>
		<g transform="matrix( 1, 0, 0, 1, 0,0) ">
			<g>
				<g id="Symbol_1_0_Layer0_0_MEMBER_1_FILL_00000139975378243222037730000002936583024474930622_">
					<path class="st1" d="M9.51-322.2c-0.1-0.33-0.28-0.64-0.55-0.94l-10.36,0.59c-0.33,0-0.64,0.13-0.94,0.4
						c-0.26,0.2-0.45,0.46-0.55,0.79c-0.07,0.3-0.05,0.63,0.05,0.99c3.57,10.18,10.81,14.69,21.71,13.53
						c0.4-0.07,0.74-0.25,1.04-0.55c-0.03-0.03-0.07-0.07-0.1-0.1C14.7-311.94,11.26-316.85,9.51-322.2z"/>
					<path class="st0" d="M14.27-321.85c-0.03-0.43-0.21-0.79-0.55-1.09c-0.33-0.3-0.69-0.43-1.09-0.4l-3.67,0.2
						c0.26,0.3,0.45,0.61,0.55,0.94c1.75,5.35,5.19,10.26,10.31,14.72c0.03,0.03,0.07,0.07,0.1,0.1v-0.05
						c0.26-0.3,0.38-0.68,0.35-1.14c0-0.43-0.15-0.76-0.45-0.99C16.35-313.1,14.5-317.19,14.27-321.85z"/>
				</g>
			</g>
		</g>
	</g>
	<g transform="matrix( 1, 0, 0, 1, 56,360.95) ">
		<g transform="matrix( 1, 0, 0, 1, 0,0) ">
			<g>
				<g id="leg_0_Layer0_0_FILL_00000090986164295763538330000012368450129210450573_">
					<path class="st2" d="M3.39-266.04l0.1-2.97h-14.82v2.97H3.39z"/>
					<path class="st3" d="M3.49-269.02c-3.21-0.89-5.11-2.88-5.7-5.95h-9.12v5.95H3.49z"/>
					<path class="st4" d="M-2.21-274.97h0.05l0.15-4.96h-9.32v4.96H-2.21z"/>
					<path class="st5" d="M-1.56-289.04c0-1.59-0.63-2.94-1.88-4.06c-1.22-1.12-2.73-1.69-4.51-1.69c-1.75,0-3.26,0.56-4.51,1.69
						c-1.26,1.12-1.88,2.48-1.88,4.06c1.95,1.59,2.96,4.63,3.02,9.12h9.32L-1.56-289.04z"/>
				</g>
			</g>
		</g>
	</g>
	<g transform="matrix( -1, 0, 0, 1, 40,360.95) ">
		<g transform="matrix( 1, 0, 0, 1, 0,0) ">
			<g>
				<g id="leg_0_Layer0_0_FILL_00000122704021673235495030000002920735369850447510_">
					<path class="st2" d="M18.08-266.04l0.1-2.97H3.36v2.97H18.08z"/>
					<path class="st3" d="M18.18-269.02c-3.21-0.89-5.11-2.88-5.7-5.95H3.36v5.95H18.18z"/>
					<path class="st4" d="M12.48-274.97h0.05l0.15-4.96H3.36v4.96H12.48z"/>
					<path class="st5" d="M13.12-289.04c0-1.59-0.63-2.94-1.88-4.06c-1.22-1.12-2.73-1.69-4.51-1.69c-1.75,0-3.26,0.56-4.51,1.69
						c-1.26,1.12-1.88,2.48-1.88,4.06c1.95,1.59,2.96,4.63,3.02,9.12h9.32L13.12-289.04z"/>
				</g>
			</g>
		</g>
	</g>
	<g transform="matrix( -0.258819580078125, 0.965911865234375, 0.965911865234375, 0.258819580078125, 62,341.8) ">
		<g transform="matrix( 1, 0, 0, 1, 0,0) ">
			<g>
				<g id="arm_0_Layer0_0_FILL_00000126312393990117488710000014725938801470761362_">
					<path class="st4" d="M-272.11-64.73c0.43,2.35,0.73,4.16,0.89,5.45c0.17,1.29,0.96,2,2.38,2.13c1.35,0.1,2.56-0.3,3.62-1.19
						c1.06-0.89,1.65-2,1.78-3.32c0.26-2.94,0.05-5.77-0.64-8.48l-8.67,3.22C-272.46-66.15-272.24-65.42-272.11-64.73z"/>
					<path class="st6" d="M-276.62-73.25c0.83,1.09,1.55,2.13,2.18,3.12l9.02-3.82c-0.59-1.35-1.32-2.69-2.18-4.02
						c-1.72-2.64-3.97-5.19-6.74-7.63c-1.06-0.93-2.28-1.35-3.67-1.29c-1.42,0.07-2.58,0.61-3.47,1.64
						c-0.99,0.96-1.45,2.13-1.39,3.52c0.07,1.35,0.63,2.48,1.69,3.37C-279.33-76.71-277.81-75-276.62-73.25z"/>
					<path class="st7" d="M-264.08-70.13l1.04-0.45l-1.09-3.92l-1.29,0.55l-9.02,3.82l-0.89,0.35l1.29,3.37l1.29-0.5L-264.08-70.13z
						"/>
				</g>
			</g>
		</g>
	</g>
	<g transform="matrix( -1, 0, 0, 1, 30.25,341.8) ">
		<g transform="matrix( 1, 0, 0, 1, 0,0) ">
			<g>
				<g id="arm_0_Layer0_0_FILL_00000043458798605579353530000014334681278784957112_">
					<path class="st4" d="M12-271.48c0.43,2.35,0.73,4.16,0.89,5.45c0.17,1.29,0.96,2,2.38,2.13c1.35,0.1,2.56-0.3,3.62-1.19
						c1.06-0.89,1.65-2,1.78-3.32c0.26-2.94,0.05-5.77-0.64-8.48l-8.67,3.22C11.65-272.9,11.87-272.17,12-271.48z"/>
					<path class="st6" d="M7.49-280.01c0.83,1.09,1.55,2.13,2.18,3.12l9.02-3.82c-0.59-1.35-1.32-2.69-2.18-4.02
						c-1.72-2.64-3.97-5.19-6.74-7.63c-1.06-0.93-2.28-1.35-3.67-1.29c-1.42,0.07-2.58,0.61-3.47,1.64
						c-0.99,0.96-1.45,2.13-1.39,3.52c0.07,1.35,0.63,2.48,1.69,3.37C4.78-283.46,6.3-281.76,7.49-280.01z"/>
					<path class="st7" d="M20.03-276.88l1.04-0.45l-1.09-3.92l-1.29,0.55l-9.02,3.82l-0.89,0.35l1.29,3.37l1.29-0.5L20.03-276.88z"
						/>
				</g>
			</g>
		</g>
	</g>
	<g transform="matrix( 1, 0, 0, 1, 48,358.05) ">
		<g transform="matrix( 1, 0, 0, 1, 0,0) ">
			<g>
				<g id="body_0_Layer0_0_FILL_00000110462576650717121500000003609662309075663805_">
					<path class="st5" d="M-20.97-285.4c-0.03,1.42,0.17,2.92,0.59,4.51H4.7c0.43-1.59,0.63-3.09,0.59-4.51H-20.97z"/>
					<path class="st7" d="M-21.12-290.31h2.92c0.5-2.81-1.01-5.45-4.51-7.93l0.2,0.79C-21.82-295.23-21.35-292.85-21.12-290.31
						 M6.83-297.45l0.2-0.79c-3.5,2.48-4.99,5.12-4.46,7.93H5.5C5.73-292.85,6.17-295.23,6.83-297.45 M2.03-297.84
						c0-0.56-0.94-1.06-2.83-1.49c-1.95-0.33-4.3-0.5-7.04-0.5s-5.09,0.17-7.04,0.5c-1.88,0.43-2.83,0.93-2.83,1.49
						c0,0.56,0.94,1.01,2.83,1.34c1.95,0.43,4.3,0.64,7.04,0.64s5.09-0.21,7.04-0.64C1.08-296.83,2.03-297.28,2.03-297.84z"/>
					<path class="st1" d="M6.64-290.31H5.5H2.57H-18.2h-2.92h-1.14l0.74,4.91h0.55H5.3h0.59L6.64-290.31z"/>
					<path class="st6" d="M10.25-304.53c0.66-3.34-0.03-5.07-2.08-5.2c-0.17,0-0.33,0-0.5,0h-31.03c-2.41-0.13-3.27,1.6-2.58,5.2
						c1.45,2.08,2.59,4.44,3.42,7.09l-0.2-0.79c3.5,2.48,5.01,5.12,4.51,7.93H2.57c-0.53-2.81,0.96-5.45,4.46-7.93l-0.2,0.79
						C7.66-300.09,8.8-302.45,10.25-304.53 M-0.8-299.33c1.88,0.43,2.83,0.93,2.83,1.49c0,0.56-0.94,1.01-2.83,1.34
						c-1.95,0.43-4.3,0.64-7.04,0.64s-5.09-0.21-7.04-0.64c-1.88-0.33-2.83-0.78-2.83-1.34c0-0.56,0.94-1.06,2.83-1.49
						c1.95-0.33,4.3-0.5,7.04-0.5S-2.75-299.66-0.8-299.33z"/>
				</g>
			</g>
		</g>
		<g transform="matrix( 1, 0, 0, 1, 0,0) ">
			<g>
				<g id="body_0_Layer0_1_FILL_00000163033830052410737010000013676806184106811520_">
					<path class="st2" d="M2.62-309.89c-0.2,2.11-1.19,3.93-2.97,5.45c-2.08,1.75-4.58,2.63-7.48,2.63s-5.4-0.88-7.48-2.63
						c-1.78-1.49-2.76-3.27-2.92-5.35c-0.36,0.83-0.55,1.69-0.55,2.58c0,0.17,0.02,0.33,0.05,0.5c0.1,2.05,1.14,3.78,3.12,5.2
						c2.15,1.62,4.74,2.43,7.78,2.43s5.65-0.81,7.83-2.43c1.98-1.42,3.02-3.16,3.12-5.2c0.03-0.17,0.05-0.33,0.05-0.5
						C3.17-308.14,2.98-309.03,2.62-309.89z"/>
					<path class="st4" d="M2.67-310.68c0-2.45-1.01-4.56-3.02-6.34c-2.08-1.69-4.58-2.53-7.48-2.53s-5.4,0.84-7.48,2.53
						c-2.02,1.78-3.02,3.9-3.02,6.34c0,0.17,0.02,0.33,0.05,0.5c0,0.13,0.02,0.26,0.05,0.4c0.17,2.08,1.14,3.87,2.92,5.35
						c2.08,1.75,4.58,2.63,7.48,2.63s5.4-0.88,7.48-2.63c1.78-1.52,2.78-3.34,2.97-5.45c0-0.1,0-0.2,0-0.3
						C2.65-310.35,2.67-310.52,2.67-310.68z"/>
				</g>
			</g>
		</g>
	</g>
	<g transform="matrix( 0.0000152587890625, 0.9999847412109375, 0.9999847412109375, -0.0000152587890625, 79.55,354.9) ">
		<g transform="matrix( 1, 0, 0, 1, 0,0) ">
			<g>
				<g id="hand_0_Layer0_0_FILL_00000062157178423240291410000014140750492154883461_">
					<path class="st8" d="M-297.08-0.08l-0.05-0.94c0.33-4.1,1.85-7.29,4.56-9.57c-6.21,4.33-7.73,7.85-4.56,10.56L-297.08-0.08z"/>
					<path class="st4" d="M-284.63-10.58l-7.93,0c-2.71,2.28-4.23,5.47-4.56,9.57l0.05,0.94l-0.05,0.05c-0.03,1.09-0.03,2.26,0,3.52
						v0.35c0,0.96,0.68,1.57,2.03,1.83c2.05,0.43,4.03,0.63,5.95,0.59C-284.25,6.24-282.75,0.62-284.63-10.58z"/>
				</g>
			</g>
		</g>
	</g>
	<g transform="matrix( -1, 0, 0, 1, 21.65,363.9) ">
		<g transform="matrix( 1, 0, 0, 1, 0,0) ">
			<g>
				<g id="hand_0_Layer0_0_FILL_00000117657300674613245270000008378033231846214805_">
					<path class="st8" d="M-1.16-281.34l-0.05-0.94c0.33-4.1,1.85-7.29,4.56-9.57c-6.21,4.33-7.73,7.85-4.56,10.56L-1.16-281.34z"/>
					<path class="st4" d="M11.28-291.85H3.35c-2.71,2.28-4.23,5.47-4.56,9.57l0.05,0.94l-0.05,0.05c-0.03,1.09-0.03,2.26,0,3.52
						v0.35c0,0.96,0.68,1.57,2.03,1.83c2.05,0.43,4.03,0.63,5.95,0.59C11.66-275.03,13.16-280.64,11.28-291.85z"/>
				</g>
			</g>
		</g>
	</g>
	<g transform="matrix( 1.50738525390625, 0, 0, 1, 48.4,338.1) ">
		<g transform="matrix( 1, 0, 0, 1, 0,0) ">
			<g>
				<g id="shadow_0_Layer0_0_FILL_00000001637598617686999260000013539116551497553598_">
					
						<radialGradient id="SVGID_1_" cx="-145.0935" cy="47.5492" r="13.4705" gradientTransform="matrix(1.5074 0 0 -1 213.8387 -241.1)" gradientUnits="userSpaceOnUse">
						<stop  offset="0" style="stop-color:#000000;stop-opacity:0.302"/>
						<stop  offset="1" style="stop-color:#000000;stop-opacity:0"/>
					</radialGradient>
					<path class="st9" d="M4.5-298.12c-2.58-2.58-5.7-3.87-9.37-3.87s-6.82,1.29-9.47,3.87c-2.58,2.64-3.87,5.8-3.87,9.47
						c0,3.67,1.29,6.79,3.87,9.37c2.64,2.64,5.8,3.97,9.47,3.97s6.79-1.32,9.37-3.97c2.64-2.58,3.97-5.7,3.97-9.37
						C8.46-292.32,7.14-295.47,4.5-298.12z"/>
				</g>
			</g>
		</g>
	</g>
	<g transform="matrix( 0.9965667724609375, -0.0825958251953125, 0.0825958251953125, 0.9965667724609375, 49.85,330.2) ">
		<g transform="matrix( 1, 0, 0, 1, 0,0) ">
			<g>
				<g id="head_0_Layer0_0_FILL_00000144313231783862681370000003587204962325641119_">
					<path class="st1" d="M40.05-306.6c-0.36-4.76-2.74-8.87-7.14-12.34c-4.79-3.8-10.57-5.7-17.35-5.7s-12.56,1.9-17.35,5.7
						c-4.36,3.47-6.72,7.58-7.09,12.34c0.36,5.39,2.73,10.03,7.09,13.93c4.79,4.3,10.57,6.44,17.35,6.44s12.56-2.15,17.35-6.44
						C37.31-296.57,39.69-301.21,40.05-306.6z"/>
					<path class="st0" d="M40.1-308.04c0-6.01-2.4-11.17-7.19-15.47c-4.79-4.23-10.57-6.34-17.35-6.34S3-327.73-1.79-323.5
						c-4.76,4.3-7.14,9.45-7.14,15.47c0,0.5,0.02,0.97,0.05,1.44c0.36-4.76,2.73-8.87,7.09-12.34c4.79-3.8,10.57-5.7,17.35-5.7
						s12.56,1.9,17.35,5.7c4.4,3.47,6.77,7.58,7.14,12.34C40.08-307.06,40.1-307.54,40.1-308.04z"/>
				</g>
			</g>
		</g>
		<g transform="matrix( 1, 0, 0, 1, 0,0) ">
			<g>
				<g id="head_0_Layer0_1_MEMBER_0_FILL_00000105428969063648527050000009762817177647808391_">
					<path class="st4" d="M-7.93-305.01c-1.55,1.55-2.33,3.45-2.33,5.7c0,2.18,0.78,4.05,2.33,5.6c1.55,1.62,3.42,2.43,5.6,2.43
						c2.15,0,4.02-0.81,5.6-2.43c1.55-1.55,2.33-3.42,2.33-5.6c0-2.25-0.78-4.15-2.33-5.7c-1.59-1.59-3.45-2.38-5.6-2.38
						C-4.51-307.39-6.38-306.6-7.93-305.01 M-5.7-295.94c-0.93-0.93-1.39-2.05-1.39-3.37c0-1.29,0.46-2.45,1.39-3.47
						c0.93-0.93,2.05-1.39,3.37-1.39c1.35,0,2.48,0.46,3.37,1.39c0.93,1.02,1.39,2.18,1.39,3.47c0,1.32-0.46,2.45-1.39,3.37
						c-0.89,0.96-2.02,1.44-3.37,1.44C-3.65-294.5-4.78-294.98-5.7-295.94 M28.75-293.71c1.55,1.62,3.42,2.43,5.6,2.43
						c2.15,0,4.02-0.81,5.6-2.43c1.55-1.55,2.33-3.42,2.33-5.6c0-2.25-0.78-4.15-2.33-5.7c-1.59-1.59-3.45-2.38-5.6-2.38
						c-2.18,0-4.05,0.79-5.6,2.38c-1.55,1.55-2.33,3.45-2.33,5.7C26.42-297.13,27.19-295.26,28.75-293.71 M30.98-302.78
						c0.93-0.93,2.05-1.39,3.37-1.39s2.45,0.46,3.37,1.39c0.93,1.02,1.39,2.18,1.39,3.47c0,1.32-0.46,2.45-1.39,3.37
						c-0.93,0.96-2.05,1.44-3.37,1.44c-1.32,0-2.45-0.48-3.37-1.44c-0.93-0.93-1.39-2.05-1.39-3.37
						C29.59-300.6,30.05-301.76,30.98-302.78z"/>
					<path class="st8" d="M-7.09-299.31c0,1.32,0.46,2.45,1.39,3.37c0.93,0.96,2.05,1.44,3.37,1.44c1.35,0,2.48-0.48,3.37-1.44
						c0.93-0.93,1.39-2.05,1.39-3.37c0-1.29-0.46-2.45-1.39-3.47c-0.89-0.93-2.02-1.39-3.37-1.39c-1.32,0-2.45,0.46-3.37,1.39
						C-6.63-301.76-7.09-300.6-7.09-299.31 M34.35-304.17c-1.32,0-2.45,0.46-3.37,1.39c-0.93,1.02-1.39,2.18-1.39,3.47
						c0,1.32,0.46,2.45,1.39,3.37c0.93,0.96,2.05,1.44,3.37,1.44c1.32,0,2.45-0.48,3.37-1.44c0.93-0.93,1.39-2.05,1.39-3.37
						c0-1.29-0.46-2.45-1.39-3.47C36.79-303.71,35.67-304.17,34.35-304.17z"/>
				</g>
			</g>
		</g>
		<g transform="matrix( 1, 0, 0, 1, 0,0) ">
			<g>
				<g id="head_0_Layer0_1_MEMBER_1_FILL_00000067921202442728792970000008259754458582283152_">
					<path class="st4" d="M34.45-291.83l2.28-22.36H-4.76l2.28,22.36c1.35,4.89,4.79,8.29,10.31,10.21c2.78,0.96,5.49,1.4,8.13,1.34
						c2.68,0.07,5.39-0.38,8.13-1.34C29.64-283.53,33.09-286.94,34.45-291.83z"/>
				</g>
			</g>
		</g>
		<g transform="matrix( 1, 0, 0, 1, 0,0) ">
			<g>
				<g id="head_0_Layer0_1_MEMBER_2_FILL_00000054983365823604163700000005121617995621995445_">
					<path class="st10" d="M18.34-293.02c0.69-0.46,1.04-0.99,1.04-1.59c0-0.59-0.35-1.14-1.04-1.64c-0.66-0.43-1.47-0.64-2.43-0.64
						c-0.89,0-1.67,0.21-2.33,0.64c-0.66,0.5-0.99,1.04-0.99,1.64s0.33,1.12,0.99,1.59c0.66,0.53,1.44,0.79,2.33,0.79
						C16.87-292.22,17.68-292.49,18.34-293.02z"/>
				</g>
			</g>
		</g>
		<g transform="matrix( 1, 0, 0, 1, 0,0) ">
			<g>
				<g id="head_0_Layer0_1_MEMBER_2_MEMBER_0_FILL_00000067946317809472160190000017081794128787436447_">
					<path class="st1" d="M3.52-297.33c0-0.13,0-0.25,0-0.35c0-1.16,0.38-2.15,1.14-2.97c0.63-0.66,1.39-1.07,2.28-1.24h-5.7
						C2.62-300.8,3.38-299.28,3.52-297.33 M10.11-295.2c0.46-0.66,0.69-1.49,0.69-2.48c0-0.96-0.23-1.78-0.69-2.48
						s-1.04-1.04-1.73-1.04c-0.66,0-1.21,0.35-1.64,1.04c-0.46,0.69-0.69,1.52-0.69,2.48c0,0.99,0.23,1.82,0.69,2.48
						c0.43,0.69,0.97,1.04,1.64,1.04C9.07-294.16,9.65-294.5,10.11-295.2 M28.45-297.68c0,0.1,0,0.21,0,0.35
						c0.13-1.95,0.88-3.47,2.23-4.56h-5.65c0.89,0.17,1.65,0.58,2.28,1.24C28.07-299.82,28.45-298.83,28.45-297.68 M21.16-297.68
						c0,0.99,0.23,1.82,0.69,2.48c0.43,0.69,0.99,1.04,1.69,1.04c0.66,0,1.22-0.35,1.69-1.04c0.46-0.66,0.69-1.49,0.69-2.48
						c0-0.96-0.23-1.78-0.69-2.48c-0.46-0.69-1.02-1.04-1.69-1.04c-0.69,0-1.26,0.35-1.69,1.04
						C21.39-299.46,21.16-298.63,21.16-297.68z"/>
					<path class="st2" d="M7.33-301.94c-0.13,0-0.26,0.02-0.4,0.05c-0.89,0.17-1.65,0.58-2.28,1.24c-0.76,0.83-1.14,1.82-1.14,2.97
						c0,0.1,0,0.21,0,0.35c0.07,0.99,0.45,1.87,1.14,2.63c0.79,0.86,1.77,1.29,2.92,1.29c1.12,0,2.07-0.43,2.83-1.29
						c0.79-0.83,1.19-1.82,1.19-2.97c0-1.16-0.4-2.15-1.19-2.97c-0.76-0.86-1.7-1.29-2.83-1.29C7.48-301.94,7.4-301.94,7.33-301.94
						 M10.8-297.68c0,0.99-0.23,1.82-0.69,2.48c-0.46,0.69-1.04,1.04-1.73,1.04c-0.66,0-1.21-0.35-1.64-1.04
						c-0.46-0.66-0.69-1.49-0.69-2.48c0-0.96,0.23-1.78,0.69-2.48c0.43-0.69,0.97-1.04,1.64-1.04c0.69,0,1.27,0.35,1.73,1.04
						S10.8-298.63,10.8-297.68 M25.03-301.89c-0.13-0.03-0.26-0.05-0.4-0.05c-0.1,0-0.2,0-0.3,0c-1.12,0-2.05,0.43-2.78,1.29
						c-0.79,0.83-1.19,1.82-1.19,2.97s0.4,2.15,1.19,2.97c0.73,0.86,1.65,1.29,2.78,1.29c1.19,0,2.18-0.43,2.97-1.29
						c0.69-0.76,1.07-1.64,1.14-2.63c0-0.13,0-0.25,0-0.35c0-1.16-0.38-2.15-1.14-2.97C26.68-301.31,25.92-301.72,25.03-301.89
						 M21.86-295.2c-0.46-0.66-0.69-1.49-0.69-2.48c0-0.96,0.23-1.78,0.69-2.48c0.43-0.69,0.99-1.04,1.69-1.04
						c0.66,0,1.22,0.35,1.69,1.04c0.46,0.69,0.69,1.52,0.69,2.48c0,0.99-0.23,1.82-0.69,2.48c-0.46,0.69-1.02,1.04-1.69,1.04
						C22.85-294.16,22.29-294.5,21.86-295.2z"/>
				</g>
			</g>
		</g>
		<g transform="matrix( 1, 0, 0, 1, 0,0) ">
			<g>
				<g id="head_0_Layer0_1_MEMBER_2_MEMBER_1_FILL_00000150066099292870632400000018112719864261129624_">
					<path class="st2" d="M18.24-287.02v-3.17h-7.58c-0.23,0-0.45,0.08-0.64,0.25c-0.23,0.1-0.36,0.26-0.4,0.5
						c-0.07,0.17-0.07,0.38,0,0.64c0.03,0.33,0.15,0.68,0.35,1.04c0.17,0.23,0.35,0.48,0.55,0.74H18.24z"/>
					<path class="st8" d="M21.36-290.19h-3.12v3.17h-7.73c0.2,0.36,0.46,0.66,0.79,0.89c1.29,1.26,2.86,1.88,4.71,1.88
						c1.78,0,3.34-0.61,4.66-1.83l0.1-0.05c0.5-0.46,0.91-1.01,1.24-1.64c0.2-0.36,0.35-0.71,0.45-1.04
						c0.03-0.26,0.02-0.48-0.05-0.64c-0.07-0.23-0.2-0.4-0.4-0.5C21.81-290.11,21.59-290.19,21.36-290.19z"/>
				</g>
			</g>
		</g>
		<g transform="matrix( 1, 0, 0, 1, 0,0) ">
			<g>
				<g id="head_0_Layer0_2_FILL_00000029030135760502023670000002754040532887198380_">
					<path class="st1" d="M36.38-305.71l0.99-8.33h-0.55v-0.84H-5.51l0.64,7.58c7.1-0.13,12.36-1.49,15.76-4.06
						c3.44,4.26,7.09,6.44,10.95,6.54l1.44-3.07C27.76-306.23,32.12-305.51,36.38-305.71z"/>
				</g>
			</g>
		</g>
		<g transform="matrix( 1, 0, 0, 1, 0,0) ">
			<g>
				<g id="head_0_Layer0_3_FILL_00000119085888876974708510000013090079452053788600_">
					<path class="st11" d="M33.46-314.93c-0.53-0.73-1.19-1.44-1.98-2.13c-3.67-3.11-8.82-4.66-15.47-4.66s-11.78,1.54-15.42,4.61
						c-0.26,0.17-0.48,0.36-0.64,0.59c-0.56,0.46-1.02,0.99-1.39,1.59c-0.4,0.53-0.45,1.17-0.15,1.93
						c4.26-2.45,10.13-3.67,17.6-3.67c7.4,0,13.25,1.21,17.55,3.62C33.85-313.77,33.82-314.4,33.46-314.93z"/>
				</g>
			</g>
		</g>
		<g transform="matrix( 1, 0, 0, 1, 0,0) ">
			<g>
				<g id="head_0_Layer0_4_FILL_00000044892492325804113420000015750426530926482313_">
					<path class="st1" d="M0.05-300.65c0.4-0.53,0.56-1.14,0.5-1.83l-0.64-5.6h-4.91l0.74,6.2c0.07,0.66,0.38,1.22,0.94,1.69
						c0.53,0.4,1.12,0.55,1.78,0.45h0.05C-0.83-299.82-0.32-300.12,0.05-300.65z"/>
				</g>
			</g>
		</g>
		<g transform="matrix( 1, 0, 0, 1, 0,0) ">
			<g>
				<g id="head_0_Layer0_5_FILL_00000044140158691341129730000007311903847301386636_">
					<path class="st1" d="M31.23-302.48c-0.07,0.69,0.1,1.31,0.5,1.83c0.4,0.53,0.93,0.83,1.59,0.89h0.05
						c0.66,0.1,1.26-0.05,1.78-0.45c0.56-0.46,0.88-1.02,0.94-1.69l0.74-6.2h-4.96L31.23-302.48z"/>
				</g>
			</g>
		</g>
		<g transform="matrix( 1, 0, 0, 1, 0,0) ">
			<g>
				<g id="head_0_Layer0_6_MEMBER_0_FILL_00000147905302470821887080000003403673784998086043_">
					<path class="st1" d="M2.28-306.4l-0.64,2.38l9.37,0.94l0.55-1.98L2.28-306.4z"/>
				</g>
			</g>
		</g>
		<g transform="matrix( 1, 0, 0, 1, 0,0) ">
			<g>
				<g id="head_0_Layer0_6_MEMBER_1_FILL_00000036936735335872593900000006869115645296437912_">
					<path class="st1" d="M30.38-303.87l-0.4-2.38l-9.27,0.45l0.35,2.03L30.38-303.87z"/>
				</g>
			</g>
		</g>
		<g transform="matrix( 1, 0, 0, 1, 0,0) ">
			<g>
				<g id="head_0_Layer0_7_FILL_00000089559990003809545870000013283892299951111582_">
					<path class="st12" d="M36.18-295.94c-0.26,0.46-0.33,0.93-0.2,1.39l0.99,3.82c0.13,0.46,0.41,0.83,0.84,1.09
						c0.43,0.23,0.89,0.28,1.39,0.15h0.05c0.46-0.13,0.83-0.41,1.09-0.84c0.26-0.46,0.33-0.94,0.2-1.44l-0.99-3.77
						c-0.13-0.46-0.43-0.83-0.89-1.09c-0.46-0.23-0.91-0.28-1.34-0.15h-0.05C36.78-296.65,36.41-296.37,36.18-295.94z"/>
				</g>
			</g>
		</g>
		<g transform="matrix( 1, 0, 0, 1, 0,0) ">
			<g>
				<g id="head_0_Layer0_8_FILL_00000044868588085660737200000002436049199394391466_">
					<path class="st12" d="M-4.12-295.94c-0.23-0.43-0.59-0.71-1.09-0.84h-0.05c-0.46-0.13-0.93-0.08-1.39,0.15
						c-0.46,0.26-0.76,0.63-0.89,1.09l-0.94,3.77c-0.13,0.5-0.07,0.97,0.2,1.44c0.26,0.43,0.61,0.71,1.04,0.84h0.05
						c0.5,0.13,0.96,0.08,1.39-0.15c0.46-0.26,0.76-0.63,0.89-1.09l0.99-3.82C-3.79-295.02-3.85-295.48-4.12-295.94z"/>
				</g>
			</g>
		</g>
	</g>
</g>
</svg>
